<svg width="17" height="18" viewBox="0 0 17 18" fill="none" xmlns="http://www.w3.org/2000/svg">
<path d="M17 10.8889V9.11111C17 8.36533 17 7.70249 16.989 7.11111H0.0109651C9.65148e-08 7.70249 0 8.36533 0 9.11111V10.8889C0 14.2411 9.72748e-08 15.9172 0.995835 16.9586C1.99168 18 3.59445 18 6.8 18H10.2C13.4055 18 15.0084 18 16.0041 16.9586C17 15.9172 17 14.2411 17 10.8889Z" fill="#F71729"/>
<path d="M4.8875 0.666667C4.8875 0.29848 4.60208 0 4.25 0C3.89792 0 3.6125 0.29848 3.6125 0.666667V2.07045C2.38907 2.1729 1.5859 2.42433 0.995835 3.0414C0.405765 3.65846 0.165334 4.49837 0.0673712 5.77778H16.9326C16.8347 4.49837 16.5942 3.65846 16.0041 3.0414C15.4141 2.42433 14.6109 2.1729 13.3875 2.07045V0.666667C13.3875 0.29848 13.1021 0 12.75 0C12.3979 0 12.1125 0.29848 12.1125 0.666667V2.01147C11.547 2 10.9132 2 10.2 2H6.8C6.08682 2 5.45298 2 4.8875 2.01147V0.666667Z" fill="#F71729"/>
</svg>
