<svg width="24" height="25" viewBox="0 0 24 25" fill="none" xmlns="http://www.w3.org/2000/svg">
<path fill-rule="evenodd" clip-rule="evenodd" d="M12 23.5C18.0751 23.5 23 18.5751 23 12.5C23 6.42486 18.0751 1.5 12 1.5C5.92486 1.5 1 6.42486 1 12.5C1 18.5751 5.92486 23.5 12 23.5ZM12.825 8.1C12.825 7.64437 12.4556 7.275 12 7.275C11.5444 7.275 11.175 7.64437 11.175 8.1V12.5C11.175 12.7188 11.2619 12.9287 11.4167 13.0833L14.1667 15.8333C14.4889 16.1555 15.0111 16.1555 15.3333 15.8333C15.6555 15.5111 15.6555 14.9889 15.3333 14.6667L12.825 12.1582V8.1Z" fill="#F71729"/>
</svg>
