<svg width="14" height="14" viewBox="0 0 14 14" fill="none" xmlns="http://www.w3.org/2000/svg">
<path d="M3.0625 6.125C2.21667 6.125 1.49479 5.82604 0.896875 5.22813C0.298958 4.63021 0 3.90833 0 3.0625C0 2.21667 0.298958 1.49479 0.896875 0.896875C1.49479 0.298958 2.21667 0 3.0625 0C3.90833 0 4.63021 0.298958 5.22813 0.896875C5.82604 1.49479 6.125 2.21667 6.125 3.0625C6.125 3.90833 5.82604 4.63021 5.22813 5.22813C4.63021 5.82604 3.90833 6.125 3.0625 6.125ZM3.0625 4.375C3.42708 4.375 3.73712 4.24754 3.99262 3.99262C4.24812 3.73771 4.37558 3.42767 4.375 3.0625C4.37442 2.69733 4.24696 2.38758 3.99262 2.13325C3.73829 1.87892 3.42825 1.75117 3.0625 1.75C2.69675 1.74883 2.387 1.87658 2.13325 2.13325C1.8795 2.38992 1.75175 2.69967 1.75 3.0625C1.74825 3.42533 1.876 3.73537 2.13325 3.99262C2.3905 4.24987 2.70025 4.37733 3.0625 4.375ZM10.9375 14C10.0917 14 9.36979 13.701 8.77187 13.1031C8.17396 12.5052 7.875 11.7833 7.875 10.9375C7.875 10.0917 8.17396 9.36979 8.77187 8.77187C9.36979 8.17396 10.0917 7.875 10.9375 7.875C11.7833 7.875 12.5052 8.17396 13.1031 8.77187C13.701 9.36979 14 10.0917 14 10.9375C14 11.7833 13.701 12.5052 13.1031 13.1031C12.5052 13.701 11.7833 14 10.9375 14ZM10.9375 12.25C11.3021 12.25 11.6121 12.1225 11.8676 11.8676C12.1231 11.6127 12.2506 11.3027 12.25 10.9375C12.2494 10.5723 12.122 10.2626 11.8676 10.0082C11.6133 9.75392 11.3033 9.62617 10.9375 9.625C10.5717 9.62383 10.262 9.75158 10.0082 10.0082C9.7545 10.2649 9.62675 10.5747 9.625 10.9375C9.62325 11.3003 9.751 11.6104 10.0082 11.8676C10.2655 12.1249 10.5752 12.2523 10.9375 12.25ZM0.6125 13.3875C0.452083 13.2271 0.371875 13.0229 0.371875 12.775C0.371875 12.5271 0.452083 12.3229 0.6125 12.1625L12.1625 0.6125C12.3229 0.452083 12.5271 0.371875 12.775 0.371875C13.0229 0.371875 13.2271 0.452083 13.3875 0.6125C13.5479 0.772916 13.6281 0.977083 13.6281 1.225C13.6281 1.47292 13.5479 1.67708 13.3875 1.8375L1.8375 13.3875C1.67708 13.5479 1.47292 13.6281 1.225 13.6281C0.977083 13.6281 0.772916 13.5479 0.6125 13.3875Z" fill="#F71729"/>
</svg>
