<svg width="24" height="24" viewBox="0 0 24 24" fill="none" xmlns="http://www.w3.org/2000/svg">
<path fill-rule="evenodd" clip-rule="evenodd" d="M12 16.5C15.866 16.5 19 13.366 19 9.49998C19 5.634 15.866 2.5 12 2.5C8.13401 2.5 5 5.634 5 9.49998C5 13.366 8.13401 16.5 12 16.5ZM12 6.49999C11.7159 6.49999 11.5259 6.84083 11.1459 7.52249L11.0476 7.69885C10.9397 7.89256 10.8857 7.98942 10.8015 8.05332C10.7173 8.11723 10.6125 8.14095 10.4028 8.18839L10.2119 8.23159C9.47396 8.39855 9.10501 8.48203 9.01723 8.7643C8.92945 9.04657 9.18097 9.3407 9.68403 9.92896L9.81418 10.0811C9.95713 10.2483 10.0286 10.3319 10.0608 10.4353C10.0929 10.5387 10.0821 10.6502 10.0605 10.8733L10.0408 11.0763C9.96476 11.8612 9.92674 12.2536 10.1565 12.4281C10.3864 12.6025 10.7318 12.4435 11.4227 12.1254L11.6014 12.0431C11.7978 11.9527 11.8959 11.9075 12 11.9075C12.1041 11.9075 12.2022 11.9527 12.3986 12.0431L12.5773 12.1254C13.2682 12.4435 13.6136 12.6025 13.8435 12.4281C14.0733 12.2536 14.0352 11.8612 13.9592 11.0763L13.9395 10.8733C13.9179 10.6502 13.9071 10.5387 13.9392 10.4353C13.9714 10.3319 14.0429 10.2483 14.1858 10.0812L14.316 9.92896C14.819 9.3407 15.0706 9.04657 14.9828 8.7643C14.895 8.48203 14.526 8.39855 13.7881 8.23159L13.5972 8.18839C13.3875 8.14095 13.2827 8.11723 13.1985 8.05332C13.1143 7.98942 13.0603 7.89256 12.9524 7.69885L12.8541 7.52249C12.4741 6.84083 12.2841 6.49999 12 6.49999Z" fill="#F71729"/>
<path d="M4.49517 13.4946L2.99206 15.051C2.45194 15.6102 2.18188 15.8898 2.08843 16.1266C1.87548 16.6662 2.05772 17.2648 2.52138 17.5485C2.72486 17.6731 3.09187 17.7119 3.82589 17.7896C4.2403 17.8334 4.44755 17.8553 4.6211 17.9218C5.00966 18.0708 5.31191 18.3837 5.45575 18.786C5.52 18.9657 5.54117 19.1803 5.5835 19.6094C5.65848 20.3694 5.69597 20.7494 5.81628 20.9601C6.09042 21.4402 6.66852 21.6289 7.18967 21.4084C7.41837 21.3116 7.68843 21.032 8.22855 20.4728L10.7106 17.9028C8.01306 17.4924 5.73225 15.814 4.49517 13.4946Z" fill="#F71729"/>
<path d="M13.2894 17.9028L15.7715 20.4728C16.3116 21.032 16.5816 21.3116 16.8103 21.4084C17.3315 21.6289 17.9096 21.4402 18.1837 20.9601C18.304 20.7494 18.3415 20.3694 18.4165 19.6094C18.4588 19.1803 18.48 18.9657 18.5442 18.786C18.6881 18.3837 18.9903 18.0708 19.3789 17.9218C19.5525 17.8553 19.7597 17.8334 20.1741 17.7896C20.9081 17.7119 21.2751 17.6731 21.4786 17.5485C21.9423 17.2648 22.1245 16.6662 21.9116 16.1266C21.8181 15.8898 21.5481 15.6102 21.0079 15.051L19.5048 13.4946C18.2677 15.814 15.9869 17.4924 13.2894 17.9028Z" fill="#F71729"/>
</svg>
