<svg width="24" height="24" viewBox="0 0 24 24" fill="none" xmlns="http://www.w3.org/2000/svg">
<path fill-rule="evenodd" clip-rule="evenodd" d="M10.2755 2.0051C10.359 1.99997 10.4474 1.99998 10.5609 2H13.4395C13.553 1.99998 13.6413 1.99997 13.7249 2.0051C14.7853 2.07014 15.7139 2.74791 16.1102 3.74611C16.1414 3.82477 16.1694 3.9097 16.2052 4.01873L16.2083 4.02791C16.2916 4.25513 16.4829 4.5135 16.7506 4.71992C16.7804 4.7429 16.8104 4.76459 16.8403 4.78501C18.9942 4.78755 20.1185 4.82783 20.8934 5.46635C21.0524 5.59733 21.1977 5.74448 21.327 5.90545C22 6.74304 22 7.98363 22 10.4648C22 11.0945 22 11.4092 21.8492 11.6548C21.8199 11.7026 21.7866 11.7478 21.7498 11.7901C21.5609 12.0069 21.2631 12.0974 20.6676 12.2783L16 13.6963V12.8862C16 11.7676 15.1046 10.8609 14 10.8609H10C8.89543 10.8609 8 11.7676 8 12.8862V13.6963L3.3324 12.2783C2.7369 12.0974 2.43915 12.0069 2.25021 11.7901C2.21341 11.7478 2.18015 11.7026 2.15078 11.6548C2 11.4092 2 11.0945 2 10.4648C2 7.98363 2 6.74304 2.67298 5.90545C2.80233 5.74448 2.94763 5.59733 3.10659 5.46635C3.88153 4.82783 5.00582 4.78755 7.15973 4.78501C7.18968 4.76458 7.21961 4.74287 7.24943 4.71989C7.51728 4.51344 7.70854 4.25505 7.79189 4.02788C7.82984 3.91256 7.85823 3.82654 7.89017 3.7461C8.28643 2.74791 9.21502 2.07014 10.2755 2.0051ZM14.8187 4.60065C14.8429 4.663 14.8695 4.72442 14.8984 4.78484H9.10172C9.13059 4.72453 9.1572 4.6632 9.18135 4.60096L9.1829 4.59742L9.18707 4.58739L9.19194 4.57512L9.19652 4.563L9.20016 4.55292L9.20194 4.54785L9.20618 4.53545L9.21001 4.52402L9.2121 4.51767L9.21483 4.50922L9.21707 4.50209L9.21886 4.49625C9.25769 4.37848 9.27037 4.34176 9.28191 4.31268C9.46203 3.85897 9.88412 3.55088 10.3661 3.52132C10.3984 3.51935 10.4379 3.519 10.5813 3.519H13.419C13.5624 3.519 13.602 3.51935 13.6342 3.52132C14.1162 3.55088 14.5383 3.85897 14.7185 4.31268C14.7298 4.34133 14.7419 4.37671 14.7813 4.49622L14.783 4.50201L14.7853 4.50917L14.788 4.51764L14.7901 4.52397L14.7939 4.53538L14.7982 4.54775L14.7999 4.55283L14.8036 4.56287L14.8081 4.57492L14.813 4.58708L14.8171 4.59698L14.8187 4.60065ZM14 12.3799H10C9.72386 12.3799 9.5 12.6066 9.5 12.8862V15.0751C9.5 15.2821 9.62448 15.4683 9.8143 15.5452L10.5144 15.8288C11.4681 16.215 12.5319 16.215 13.4856 15.8288L14.1857 15.5452C14.3755 15.4683 14.5 15.2821 14.5 15.0751V12.8862C14.5 12.6066 14.2761 12.3799 14 12.3799ZM8.01076 15.2853L3.00586 13.7649C3.03595 16.9188 3.21789 19.8235 4.31792 20.8137C5.63593 22 7.75726 22 11.9999 22C16.2425 22 18.3639 22 19.6819 20.8137C20.7819 19.8235 20.9638 16.9188 20.9939 13.7649L15.9892 15.2853C15.913 16.0273 15.4372 16.6743 14.7428 16.9555L14.0426 17.2391C12.7314 17.7703 11.2686 17.7703 9.95735 17.2391L9.25722 16.9555C8.5628 16.6743 8.08702 16.0273 8.01076 15.2853Z" fill="#F71729"/>
</svg>
