<svg width="24" height="25" viewBox="0 0 24 25" fill="none" xmlns="http://www.w3.org/2000/svg">
<path d="M9.20312 12.5C9.20312 11.0244 10.3994 9.82812 11.875 9.82812C13.3506 9.82812 14.5469 11.0244 14.5469 12.5C14.5469 13.9756 13.3506 15.1719 11.875 15.1719C10.3994 15.1719 9.20312 13.9756 9.20312 12.5Z" fill="#F71729"/>
<path fill-rule="evenodd" clip-rule="evenodd" d="M0 12.5C0 14.4468 0.50464 15.1024 1.51393 16.4136C3.5292 19.0317 6.90901 22 11.875 22C16.841 22 20.2208 19.0317 22.2361 16.4136C23.2453 15.1024 23.75 14.4468 23.75 12.5C23.75 10.5532 23.2453 9.89763 22.2361 8.58639C20.2208 5.96823 16.841 3 11.875 3C6.90901 3 3.5292 5.96823 1.51393 8.58639C0.50464 9.89763 0 10.5532 0 12.5ZM11.875 8.04687C9.4156 8.04687 7.42188 10.0406 7.42188 12.5C7.42188 14.9594 9.4156 16.9531 11.875 16.9531C14.3344 16.9531 16.3281 14.9594 16.3281 12.5C16.3281 10.0406 14.3344 8.04687 11.875 8.04687Z" fill="#F71729"/>
</svg>
