<svg width="40" height="23" viewBox="0 0 40 23" fill="none" xmlns="http://www.w3.org/2000/svg">
<path d="M39.752 6.84753C41.4758 12.5029 34.03 19.1704 23.1212 21.7399C12.2125 24.3094 1.97182 21.8078 0.248006 16.1525C-1.47581 10.4971 5.97004 3.82961 16.8788 1.26012C27.7875 -1.30937 38.0282 1.1922 39.752 6.84753Z" fill="#F71729" fill-opacity="0.1"/>
<path d="M33.5795 8.39835C34.7646 12.1686 29.6456 16.6136 22.1459 18.3266C14.6461 20.0396 7.60562 18.3719 6.4205 14.6016C5.23538 10.8314 10.3544 6.38641 17.8541 4.67342C25.3539 2.96042 32.3944 4.62813 33.5795 8.39835Z" fill="#F71729"/>
<path fill-rule="evenodd" clip-rule="evenodd" d="M18.75 8.58333C18.75 8.36232 18.8378 8.15036 18.9941 7.99408C19.1504 7.8378 19.3623 7.75 19.5833 7.75H20.4167C20.6377 7.75 20.8496 7.8378 21.0059 7.99408C21.1622 8.15036 21.25 8.36232 21.25 8.58333V10.25H22.9167C23.1377 10.25 23.3496 10.3378 23.5059 10.4941C23.6622 10.6504 23.75 10.8623 23.75 11.0833V11.9167C23.75 12.1377 23.6622 12.3496 23.5059 12.5059C23.3496 12.6622 23.1377 12.75 22.9167 12.75H21.25V14.4167C21.25 14.6377 21.1622 14.8496 21.0059 15.0059C20.8496 15.1622 20.6377 15.25 20.4167 15.25H19.5833C19.3623 15.25 19.1504 15.1622 18.9941 15.0059C18.8378 14.8496 18.75 14.6377 18.75 14.4167V12.75H17.0833C16.8623 12.75 16.6504 12.6622 16.4941 12.5059C16.3378 12.3496 16.25 12.1377 16.25 11.9167V11.0833C16.25 10.8623 16.3378 10.6504 16.4941 10.4941C16.6504 10.3378 16.8623 10.25 17.0833 10.25H18.75V8.58333Z" fill="white"/>
</svg>
