<svg width="40" height="23" viewBox="0 0 40 23" fill="none" xmlns="http://www.w3.org/2000/svg">
<path d="M39.752 6.59753C41.4758 12.2529 34.03 18.9204 23.1212 21.4899C12.2125 24.0594 1.97182 21.5578 0.248006 15.9025C-1.47581 10.2471 5.97004 3.57961 16.8788 1.01012C27.7875 -1.55937 38.0282 0.9422 39.752 6.59753Z" fill="white" fill-opacity="0.2"/>
<path d="M33.5795 8.14811C34.7646 11.9183 29.6456 16.3633 22.1459 18.0763C14.6461 19.7893 7.60562 18.1216 6.4205 14.3514C5.23538 10.5812 10.3544 6.13617 17.8541 4.42317C25.3539 2.71018 32.3944 4.37789 33.5795 8.14811Z" fill="white"/>
<path fill-rule="evenodd" clip-rule="evenodd" d="M18.75 8.33358C18.75 8.11256 18.8378 7.9006 18.9941 7.74432C19.1504 7.58804 19.3623 7.50024 19.5833 7.50024H20.4167C20.6377 7.50024 20.8496 7.58804 21.0059 7.74432C21.1622 7.9006 21.25 8.11256 21.25 8.33358V10.0002H22.9167C23.1377 10.0002 23.3496 10.088 23.5059 10.2443C23.6622 10.4006 23.75 10.6126 23.75 10.8336V11.6669C23.75 11.8879 23.6622 12.0999 23.5059 12.2562C23.3496 12.4124 23.1377 12.5002 22.9167 12.5002H21.25V14.1669C21.25 14.3879 21.1622 14.5999 21.0059 14.7562C20.8496 14.9124 20.6377 15.0002 20.4167 15.0002H19.5833C19.3623 15.0002 19.1504 14.9124 18.9941 14.7562C18.8378 14.5999 18.75 14.3879 18.75 14.1669V12.5002H17.0833C16.8623 12.5002 16.6504 12.4124 16.4941 12.2562C16.3378 12.0999 16.25 11.8879 16.25 11.6669V10.8336C16.25 10.6126 16.3378 10.4006 16.4941 10.2443C16.6504 10.088 16.8623 10.0002 17.0833 10.0002H18.75V8.33358Z" fill="#F71729"/>
</svg>
