<svg width="14" height="16" viewBox="0 0 14 16" fill="none" xmlns="http://www.w3.org/2000/svg">
<path fill-rule="evenodd" clip-rule="evenodd" d="M7 0C3.13401 0 0 2.91669 0 6.51463C0 10.0843 2.23416 14.2499 5.71993 15.7395C6.53252 16.0868 7.46748 16.0868 8.28007 15.7395C11.7658 14.2499 14 10.0843 14 6.51463C14 2.91669 10.866 0 7 0ZM7 9.14284C8.2887 9.14284 9.33333 8.11949 9.33333 6.85713C9.33333 5.59477 8.2887 4.57142 7 4.57142C5.7113 4.57142 4.66667 5.59477 4.66667 6.85713C4.66667 8.11949 5.7113 9.14284 7 9.14284Z" fill="#F71729"/>
</svg>
