<svg width="18" height="20" viewBox="0 0 18 20" fill="none" xmlns="http://www.w3.org/2000/svg">
<path d="M18 15.1304V9.34863C18 8.28383 18 7.75143 17.7169 7.35062C17.4881 7.02684 17.1212 6.85475 16.4667 6.62307C16.3328 8.26189 15.8009 9.93551 14.9655 11.4004C13.9928 13.1059 12.5484 14.6308 10.697 15.4549C9.618 15.9352 8.382 15.9352 7.303 15.4549C5.45164 14.6308 4.00718 13.1059 3.03449 11.4004C2.40086 10.2893 1.9418 9.05814 1.69862 7.81307C1.31607 7.75558 1.0225 7.78508 0.76917 7.92929C0.66809 7.98682 0.57388 8.05611 0.48841 8.13576C0 8.59094 0 9.43719 0 11.1298V16.1596C0 17.2244 -5.72205e-08 17.7568 0.28314 18.1576C0.56627 18.5585 1.06129 18.7268 2.05132 19.0635L2.43488 19.1939C4.01185 19.7303 4.80035 19.9985 5.60688 20C5.8498 20.0005 6.09242 19.983 6.33284 19.9474C7.131 19.8295 7.8809 19.4469 9.3806 18.6818C10.5299 18.0955 11.1046 17.8023 11.715 17.6663C11.9292 17.6186 12.1463 17.5853 12.3648 17.5666C12.9875 17.5135 13.6157 17.6203 14.8721 17.834C16.1455 18.0505 16.7821 18.1587 17.247 17.8864C17.4048 17.7939 17.5449 17.6729 17.6603 17.5292C18 17.1061 18 16.4476 18 15.1304Z" fill="#F71729"/>
<path fill-rule="evenodd" clip-rule="evenodd" d="M9 0C5.68629 0 3 2.60395 3 5.81611C3 9.00305 4.91499 12.722 7.9028 14.0519C8.5993 14.3619 9.4007 14.3619 10.0972 14.0519C13.085 12.722 15 9.00305 15 5.81611C15 2.60395 12.3137 0 9 0ZM9 8.16251C10.1046 8.16251 11 7.24889 11 6.12188C11 4.99488 10.1046 4.08126 9 4.08126C7.8954 4.08126 7 4.99488 7 6.12188C7 7.24889 7.8954 8.16251 9 8.16251Z" fill="#F71729"/>
</svg>
