<svg width="213" height="48" viewBox="0 0 213 48" fill="none" xmlns="http://www.w3.org/2000/svg">
<path d="M27.1621 35.6937L24.4345 38.4028C24.4156 38.4153 24.4031 38.4277 24.3842 38.4463C24.0896 38.7439 23.7886 39.0414 23.4876 39.339L19.951 42.8479C18.6217 44.1622 17.2986 45.4702 15.9692 46.7783C14.9409 47.7949 13.7746 48.1731 12.6396 47.9252C12.6146 47.919 12.5895 47.9128 12.5708 47.9066C12.5394 47.9004 12.5143 47.8942 12.4829 47.888C12.4766 47.8817 12.4766 47.8817 12.4703 47.8817C11.8558 47.7082 11.2602 47.3424 10.7021 46.7969C9.3477 45.4578 7.99958 44.125 6.65136 42.7859C5.15268 41.2918 5.14641 39.2522 6.65764 37.7581C11.3479 33.1086 16.0382 28.4591 20.7349 23.8157C20.7036 25.2726 20.9042 26.6489 21.3244 27.9445C21.6568 28.9798 22.1333 29.9593 22.7478 30.8954C23.3058 31.7447 23.9768 32.5568 24.7606 33.3255C25.5632 34.1191 26.3596 34.9065 27.1621 35.6937Z" fill="#F71729"/>
<path d="M55.3229 7.62298C55.3543 8.55288 54.9655 9.48278 54.1503 10.2887C51.8114 12.601 49.4725 14.9134 47.1336 17.2257C47.1148 17.2444 47.0898 17.263 47.0709 17.2815C47.0271 17.3125 46.9894 17.3435 46.958 17.3931C44.6569 19.6683 42.3619 21.9434 40.0668 24.2248C40.0982 22.7679 39.8975 21.3916 39.4712 20.0898C39.1137 18.9987 38.5996 17.9572 37.9349 16.9715C37.3705 16.1346 36.6934 15.3349 35.9096 14.5723C35.1509 13.8346 34.3921 13.0907 33.6396 12.3406L40.8194 5.2113C42.1549 3.89087 43.4906 2.57036 44.8262 1.25613C46.5192 -0.417674 48.5007 -0.417676 50.1875 1.24993C51.5168 2.55803 52.8399 3.86605 54.1628 5.18035C54.8401 5.84988 55.2225 6.6124 55.3103 7.38733C55.3166 7.46801 55.3229 7.54859 55.3229 7.62298Z" fill="#F71729"/>
<path d="M26.4222 15.4466C26.2091 15.5024 25.9958 15.5582 25.7889 15.6264C24.7355 15.9612 23.7322 16.4447 22.7791 17.0584C21.9326 17.604 21.13 18.2611 20.365 19.0174C18.2643 21.1004 16.1638 23.1896 14.0506 25.2602C11.4735 27.7709 8.49501 29.5563 4.89577 30.2383C4.31245 30.3437 3.71686 30.418 3.12117 30.4367C2.87663 30.4429 2.62582 30.4367 2.37501 30.4305C1.05818 30.3623 0.0235419 29.327 0.0172651 28.0251C0.0172651 27.8515 0.0109864 27.6779 0.0109864 27.5043C0.0109864 26.9587 0.00470763 26.4194 0.00470763 25.8739C-0.00156921 24.6216 -0.00156921 23.3631 0.00470763 22.1108C0.00470763 21.5776 0.00470951 21.0383 0.0109864 20.499V20.0154C0.02354 18.6144 1.13341 17.5357 2.55049 17.5481C2.74481 17.5481 2.93923 17.5543 3.13372 17.5667C5.09009 17.6783 6.94612 18.2673 8.7583 19.005C10.1504 19.563 11.4797 20.2572 12.74 21.0632C13.0786 21.2863 13.2479 21.243 13.5051 20.9702C14.038 20.3936 14.5961 19.8419 15.1792 19.315C15.4614 19.0608 15.4614 18.9182 15.1855 18.6517C12.3638 15.8867 9.56095 13.1094 6.75808 10.3321C5.12139 8.70785 5.11511 6.72402 6.73924 5.10606C7.3977 4.45516 8.05599 3.79796 8.72063 3.14705L8.74574 3.12232C9.24109 2.62638 9.7428 2.13657 10.2444 1.64684C10.4137 1.47946 10.5768 1.31207 10.7461 1.14469C12.3074 -0.386559 14.3516 -0.380353 15.9129 1.16331L18.7409 3.95922C18.7472 3.96543 18.7535 3.98404 18.7723 4.00887L18.9291 4.25063L26.4222 15.4466Z" fill="#F71729"/>
<path d="M60.8347 20.5487C60.8535 22.8425 60.8535 25.1424 60.8347 27.4424V28.0438C60.8221 29.234 59.8376 30.2259 58.5835 30.4119C57.5739 30.5545 56.5832 30.5669 55.6238 30.4429C54.2443 30.2632 52.9149 29.823 51.6295 29.1535C50.4256 28.5273 49.2718 27.8267 48.1933 27.0147C47.8485 26.7605 47.6414 26.6923 47.3154 27.0643C46.8326 27.6284 46.2808 28.1492 45.7226 28.6451C45.4217 28.9241 45.3966 29.0729 45.7101 29.3828C46.1177 29.7796 46.5253 30.1764 46.9328 30.5793C46.983 30.6289 47.0332 30.6723 47.077 30.7219C47.3216 30.9575 47.5598 31.1993 47.8045 31.4348C47.8296 31.4596 47.8484 31.4783 47.8734 31.503C49.9426 33.5364 51.9994 35.5822 54.0561 37.6218L54.1689 37.7334C54.1815 37.7458 54.2003 37.7643 54.2128 37.7768C54.238 37.8016 54.2631 37.8326 54.2881 37.8574C54.8148 38.4402 55.1409 39.0601 55.2662 39.6801C55.2788 39.7235 55.2851 39.7731 55.2913 39.8165C55.3039 39.9095 55.3165 40.0087 55.3227 40.1017V40.1513C55.329 40.2443 55.329 40.3435 55.3227 40.4365C55.2788 41.23 54.9089 42.0235 54.2191 42.7613C54.194 42.7922 54.1689 42.8171 54.1439 42.8419C54.1189 42.8667 54.0938 42.8976 54.0624 42.9225C53.4039 43.5734 52.7456 44.2306 52.081 44.8877C51.4163 45.5386 50.7516 46.1958 50.0869 46.8529C50.0744 46.8653 50.0619 46.8777 50.0493 46.8901C50.0306 46.9088 50.0055 46.9336 49.9804 46.9584C49.9552 46.9769 49.9301 47.0017 49.9051 47.0204C49.8675 47.0576 49.8299 47.0885 49.7922 47.1196C49.7672 47.1382 49.7421 47.163 49.7171 47.1815C49.6669 47.225 49.6166 47.2621 49.5666 47.2994C49.4098 47.411 49.2531 47.5101 49.09 47.5969C49.0398 47.6217 48.9834 47.6527 48.9332 47.6775C48.883 47.6961 48.8328 47.7209 48.789 47.7395C48.7388 47.7581 48.6949 47.7767 48.6448 47.7953C48.6009 47.8139 48.557 47.8262 48.5068 47.8449C48.4567 47.8573 48.4002 47.8759 48.3438 47.8884C48.2435 47.9193 48.137 47.9379 48.0303 47.9566C47.9928 47.9628 47.9488 47.969 47.9049 47.9752C47.8172 47.9876 47.7294 47.9938 47.6415 48H47.5287C47.4158 48 47.2966 47.9938 47.1838 47.9814C47.1211 47.9752 47.0585 47.969 46.9957 47.9566C46.908 47.9441 46.8201 47.9256 46.7324 47.9008C46.6948 47.8946 46.6571 47.8822 46.6132 47.8698C46.0489 47.7086 45.5034 47.3862 44.9955 46.9088C44.9704 46.884 44.9453 46.8592 44.9202 46.8407C42.8948 44.8382 40.8757 42.8358 38.8441 40.8335L33.2321 32.7495C33.834 32.6565 34.4234 32.5139 34.9941 32.3279C36.0851 31.9807 37.126 31.4848 38.1168 30.8339C38.982 30.2697 39.8035 29.5879 40.5873 28.8005C42.7254 26.6556 44.8889 24.5291 47.0835 22.4338C49.4914 20.1338 52.288 18.5157 55.5925 17.8152C56.2446 17.6787 56.9093 17.5858 57.5802 17.5548C57.7495 17.5424 57.9188 17.5362 58.0881 17.5362C58.1823 17.5362 58.2825 17.5424 58.3766 17.5424C59.6997 17.5796 60.8158 18.6211 60.8284 19.923C60.8347 20.1334 60.8347 20.338 60.8347 20.5487Z" fill="#F71729"/>
<path fill-rule="evenodd" clip-rule="evenodd" d="M28.5945 19.8811C28.5945 19.5687 28.72 19.2691 28.9435 19.0482C29.1669 18.8273 29.47 18.7032 29.786 18.7032H30.9774C31.2934 18.7032 31.5964 18.8273 31.8199 19.0482C32.0433 19.2691 32.1688 19.5687 32.1688 19.8811V22.237H34.5517C34.8677 22.237 35.1707 22.3611 35.3942 22.582C35.6176 22.8029 35.7431 23.1025 35.7431 23.4149V24.5928C35.7431 24.9052 35.6176 25.2049 35.3942 25.4258C35.1707 25.6467 34.8677 25.7708 34.5517 25.7708H32.1688V28.1266C32.1688 28.439 32.0433 28.7386 31.8199 28.9595C31.5964 29.1805 31.2934 29.3046 30.9774 29.3046H29.786C29.47 29.3046 29.1669 29.1805 28.9435 28.9595C28.72 28.7386 28.5945 28.439 28.5945 28.1266V25.7708H26.2116C25.8957 25.7708 25.5926 25.6467 25.3692 25.4258C25.1457 25.2049 25.0202 24.9052 25.0202 24.5928V23.4149C25.0202 23.1025 25.1457 22.8029 25.3692 22.582C25.5926 22.3611 25.8957 22.237 26.2116 22.237H28.5945V19.8811Z" fill="#F71729"/>
<path d="M80.1218 2.6464H83.8432C85.8608 2.6464 87.3479 2.99733 88.3044 3.6992C89.2759 4.40107 89.7616 5.49867 89.7616 6.992C89.7616 7.7984 89.6121 8.46293 89.3132 8.9856C89.0293 9.50827 88.566 9.9488 87.9233 10.3072C88.9097 10.7104 89.6196 11.2331 90.053 11.8752C90.4864 12.5173 90.7031 13.3536 90.7031 14.384C90.7031 17.5947 88.5809 19.2 84.3364 19.2H80.1218V2.6464ZM84.2692 17.2288C85.7786 17.2288 86.8697 17.0123 87.5422 16.5792C88.2147 16.1312 88.551 15.4144 88.551 14.4288C88.551 13.5179 88.2521 12.8085 87.6543 12.3008C87.0565 11.7781 86.2195 11.5168 85.1435 11.5168H82.2516V17.2288H84.2692ZM85.009 9.5232C86.7426 9.5232 87.6095 8.70933 87.6095 7.0816C87.6095 6.20053 87.333 5.57333 86.78 5.2C86.227 4.82667 85.3004 4.64 84.0002 4.64H82.2516V9.5232H85.009Z" fill="white"/>
<path d="M97.3865 17.296C98.1935 17.296 98.8063 17.1392 99.2248 16.8256C99.6432 16.4971 99.8525 16.0192 99.8525 15.392C99.8525 14.7648 99.6432 14.2944 99.2248 13.9808C98.8063 13.6523 98.1935 13.488 97.3865 13.488H94.6515V17.296H97.3865ZM92.5442 6.9024H94.6515V11.584H97.7228C98.3505 11.584 98.9184 11.6811 99.4265 11.8752C99.9496 12.0544 100.398 12.3157 100.772 12.6592C101.16 12.9877 101.459 13.3909 101.668 13.8688C101.878 14.3317 101.982 14.8395 101.982 15.392C101.982 15.9445 101.878 16.4597 101.668 16.9376C101.459 17.4005 101.16 17.8037 100.772 18.1472C100.398 18.4757 99.9496 18.7371 99.4265 18.9312C98.9184 19.1104 98.3505 19.2 97.7228 19.2H92.5442V6.9024ZM103.327 6.9024H105.435V19.2H103.327V6.9024Z" fill="white"/>
<path d="M119.901 15.28C119.692 15.9072 119.386 16.4821 118.982 17.0048C118.593 17.5125 118.138 17.9531 117.615 18.3264C117.091 18.6997 116.516 18.9909 115.888 19.2C115.276 19.3941 114.633 19.4912 113.96 19.4912C113.049 19.4912 112.189 19.3269 111.382 18.9984C110.59 18.6549 109.895 18.192 109.297 17.6096C108.7 17.0272 108.229 16.3477 107.885 15.5712C107.556 14.7797 107.392 13.9285 107.392 13.0176C107.392 12.1216 107.556 11.2853 107.885 10.5088C108.229 9.73227 108.685 9.0528 109.253 8.4704C109.835 7.888 110.515 7.43253 111.293 7.104C112.07 6.77547 112.907 6.6112 113.803 6.6112C114.7 6.6112 115.537 6.78293 116.314 7.1264C117.106 7.45493 117.794 7.9104 118.377 8.4928C118.96 9.06027 119.415 9.73227 119.744 10.5088C120.088 11.2853 120.26 12.1216 120.26 13.0176C120.26 13.3163 120.23 13.5925 120.17 13.8464H109.589C109.634 14.384 109.776 14.8768 110.015 15.3248C110.269 15.7728 110.583 16.1685 110.956 16.512C111.345 16.8405 111.793 17.1019 112.301 17.296C112.81 17.4752 113.348 17.5648 113.916 17.5648C114.738 17.5648 115.477 17.3632 116.135 16.96C116.807 16.5568 117.323 15.9968 117.682 15.28H119.901ZM118.13 11.9872C117.876 10.8971 117.368 10.0533 116.606 9.456C115.858 8.84373 114.932 8.5376 113.826 8.5376C112.75 8.5376 111.831 8.8512 111.068 9.4784C110.306 10.0907 109.813 10.9269 109.589 11.9872H118.13Z" fill="white"/>
<path d="M123.612 15.5264C123.657 16.1237 123.911 16.6165 124.374 17.0048C124.852 17.3781 125.435 17.5648 126.123 17.5648C126.467 17.5648 126.788 17.5125 127.087 17.408C127.401 17.3035 127.67 17.1616 127.894 16.9824C128.118 16.7883 128.297 16.5717 128.432 16.3328C128.566 16.0789 128.634 15.8101 128.634 15.5264C128.634 14.8693 128.342 14.3765 127.759 14.048C127.176 13.7045 126.325 13.5328 125.204 13.5328V11.9648C127.132 11.9648 128.096 11.36 128.096 10.1504C128.096 9.7024 127.901 9.3216 127.513 9.008C127.124 8.6944 126.653 8.5376 126.1 8.5376C125.562 8.5376 125.107 8.68693 124.733 8.9856C124.374 9.28427 124.165 9.67253 124.105 10.1504H122.043C122.073 9.64267 122.192 9.17227 122.401 8.7392C122.626 8.30613 122.917 7.9328 123.276 7.6192C123.649 7.29067 124.075 7.0368 124.554 6.8576C125.047 6.6784 125.57 6.5888 126.123 6.5888C126.691 6.5888 127.221 6.68587 127.715 6.88C128.208 7.0592 128.634 7.31307 128.992 7.6416C129.366 7.9552 129.657 8.32853 129.867 8.7616C130.076 9.19467 130.18 9.6576 130.18 10.1504C130.18 10.7328 130.024 11.2405 129.71 11.6736C129.396 12.1067 128.962 12.4053 128.409 12.5696V12.6592C129.142 12.8533 129.717 13.2043 130.136 13.712C130.554 14.2048 130.763 14.8096 130.763 15.5264C130.763 16.0789 130.644 16.5941 130.405 17.072C130.166 17.5499 129.837 17.968 129.418 18.3264C129 18.6848 128.507 18.9685 127.939 19.1776C127.371 19.3867 126.765 19.4912 126.123 19.4912C125.495 19.4912 124.905 19.3941 124.352 19.2C123.814 18.9909 123.336 18.7072 122.917 18.3488C122.514 17.9904 122.185 17.5723 121.931 17.0944C121.677 16.6016 121.535 16.0789 121.505 15.5264H123.612Z" fill="white"/>
<path d="M131.627 17.296H133.308L137.769 6.9024H139.877L144.338 17.296H146.019V22.0672H144.562L143.934 19.2H133.712L133.106 22.0672H131.627V17.296ZM142.141 17.296L138.823 9.5232L135.505 17.296H142.141Z" fill="white"/>
<path d="M147.474 6.9024H149.581V12.0096H156.306V6.9024H158.391V19.2H156.306V13.9136H149.581V19.2H147.474V6.9024Z" fill="white"/>
<path d="M160.351 13.0624C160.351 12.1365 160.515 11.2853 160.844 10.5088C161.188 9.71733 161.651 9.03787 162.234 8.4704C162.817 7.888 163.504 7.43253 164.296 7.104C165.103 6.77547 165.978 6.6112 166.919 6.6112C167.816 6.6112 168.653 6.77547 169.43 7.104C170.207 7.43253 170.88 7.888 171.448 8.4704C172.031 9.0528 172.479 9.73973 172.793 10.5312C173.122 11.3077 173.286 12.1589 173.286 13.0848C173.286 13.9957 173.122 14.8395 172.793 15.616C172.479 16.3925 172.031 17.072 171.448 17.6544C170.88 18.2219 170.207 18.6699 169.43 18.9984C168.653 19.3269 167.816 19.4912 166.919 19.4912C165.993 19.4912 165.126 19.3269 164.319 18.9984C163.527 18.6699 162.832 18.2219 162.234 17.6544C161.651 17.072 161.188 16.3925 160.844 15.616C160.515 14.8245 160.351 13.9733 160.351 13.0624ZM166.897 17.5648C167.51 17.5648 168.078 17.4528 168.601 17.2288C169.124 17.0048 169.572 16.6912 169.946 16.288C170.334 15.8848 170.633 15.4144 170.842 14.8768C171.067 14.3243 171.179 13.7269 171.179 13.0848C171.179 12.4277 171.067 11.8229 170.842 11.2704C170.633 10.7179 170.327 10.24 169.923 9.8368C169.535 9.4336 169.071 9.12 168.533 8.896C167.995 8.65707 167.413 8.5376 166.785 8.5376C166.172 8.5376 165.604 8.65707 165.081 8.896C164.558 9.12 164.102 9.4336 163.714 9.8368C163.325 10.24 163.019 10.7179 162.794 11.2704C162.585 11.8229 162.481 12.4203 162.481 13.0624C162.481 13.7045 162.593 14.3019 162.817 14.8544C163.041 15.4069 163.347 15.8848 163.736 16.288C164.14 16.6912 164.61 17.0048 165.148 17.2288C165.686 17.4528 166.269 17.5648 166.897 17.5648Z" fill="white"/>
<path d="M179.145 2.4896C179.145 3.68427 179.69 4.2816 180.781 4.2816C181.872 4.2816 182.418 3.68427 182.418 2.4896H184.279C184.114 3.44533 183.733 4.1696 183.135 4.6624C182.552 5.1552 181.768 5.4016 180.781 5.4016C179.795 5.4016 179.003 5.1552 178.405 4.6624C177.822 4.1696 177.449 3.44533 177.284 2.4896H179.145ZM175.267 6.9024H177.351V16.2208L184.189 6.9024H186.296V19.2H184.211V9.8592L177.374 19.2H175.267V6.9024Z" fill="white"/>
<path d="M79.808 29.3024H81.9153V34.4096H88.6407V29.3024H90.7256V41.6H88.6407V36.3136H81.9153V41.6H79.808V29.3024Z" fill="white"/>
<path d="M92.6854 35.4848C92.6854 34.5589 92.8423 33.7003 93.1562 32.9088C93.4849 32.1173 93.9333 31.4379 94.5012 30.8704C95.0841 30.288 95.7641 29.8325 96.5413 29.504C97.3334 29.1755 98.1852 29.0112 99.0969 29.0112C100.128 29.0112 101.002 29.1904 101.72 29.5488C102.452 29.9072 103.11 30.4896 103.693 31.296V29.3024H105.71V41.6H103.693V39.6288C103.05 40.4352 102.377 41.0176 101.675 41.376C100.987 41.7195 100.151 41.8912 99.1642 41.8912C98.2376 41.8912 97.3782 41.7344 96.5861 41.4208C95.794 41.0923 95.1065 40.6443 94.5237 40.0768C93.9557 39.5093 93.5074 38.8373 93.1786 38.0608C92.8498 37.2693 92.6854 36.4107 92.6854 35.4848ZM94.8151 35.4624C94.8151 36.1045 94.9272 36.7019 95.1514 37.2544C95.3905 37.792 95.7118 38.2624 96.1153 38.6656C96.5188 39.0688 96.9896 39.3899 97.5277 39.6288C98.0806 39.8528 98.671 39.9648 99.2987 39.9648C99.9264 39.9648 100.502 39.8528 101.025 39.6288C101.563 39.3899 102.026 39.0688 102.415 38.6656C102.803 38.2624 103.102 37.7845 103.311 37.232C103.536 36.6795 103.648 36.0821 103.648 35.44C103.648 34.7829 103.536 34.1856 103.311 33.648C103.087 33.0955 102.773 32.6176 102.37 32.2144C101.981 31.8112 101.511 31.4976 100.958 31.2736C100.42 31.0496 99.8292 30.9376 99.1866 30.9376C98.5738 30.9376 97.9984 31.0571 97.4604 31.296C96.9373 31.52 96.474 31.8411 96.0705 32.2592C95.6819 32.6624 95.3755 33.1403 95.1514 33.6928C94.9272 34.2453 94.8151 34.8352 94.8151 35.4624Z" fill="white"/>
<path d="M108.17 29.3024H110.188V31.184C110.696 30.4672 111.339 29.9296 112.116 29.5712C112.893 29.1979 113.775 29.0112 114.761 29.0112C115.673 29.0112 116.517 29.1755 117.294 29.504C118.072 29.8325 118.744 30.2805 119.312 30.848C119.88 31.4155 120.321 32.0949 120.635 32.8864C120.963 33.6629 121.128 34.5141 121.128 35.44C121.128 36.3509 120.963 37.2021 120.635 37.9936C120.306 38.7851 119.857 39.472 119.29 40.0544C118.722 40.6219 118.042 41.0699 117.25 41.3984C116.472 41.7269 115.628 41.8912 114.716 41.8912C112.863 41.8912 111.383 41.1968 110.278 39.808V45.856H108.17V29.3024ZM114.604 39.9648C115.232 39.9648 115.807 39.8528 116.33 39.6288C116.868 39.4048 117.332 39.0912 117.72 38.688C118.124 38.2848 118.438 37.8144 118.662 37.2768C118.886 36.7243 118.998 36.1269 118.998 35.4848C118.998 34.8277 118.886 34.2229 118.662 33.6704C118.438 33.1029 118.124 32.6176 117.72 32.2144C117.332 31.8112 116.861 31.4976 116.308 31.2736C115.77 31.0496 115.172 30.9376 114.515 30.9376C113.902 30.9376 113.326 31.0571 112.788 31.296C112.265 31.52 111.802 31.8336 111.398 32.2368C111.01 32.64 110.703 33.1179 110.479 33.6704C110.255 34.2229 110.143 34.8203 110.143 35.4624C110.143 36.1045 110.255 36.7019 110.479 37.2544C110.703 37.792 111.017 38.2624 111.421 38.6656C111.824 39.0688 112.295 39.3899 112.833 39.6288C113.386 39.8528 113.977 39.9648 114.604 39.9648Z" fill="white"/>
<path d="M123.074 29.3024H125.181V34.8352L130.337 29.3024H132.983L127.244 35.3056L133.072 41.6H130.337L125.181 35.8432V41.6H123.074V29.3024Z" fill="white"/>
<path d="M133.762 35.4624C133.762 34.5365 133.926 33.6853 134.255 32.9088C134.599 32.1173 135.062 31.4379 135.645 30.8704C136.228 30.288 136.915 29.8325 137.707 29.504C138.515 29.1755 139.389 29.0112 140.33 29.0112C141.227 29.0112 142.064 29.1755 142.841 29.504C143.618 29.8325 144.291 30.288 144.859 30.8704C145.442 31.4528 145.89 32.1397 146.204 32.9312C146.533 33.7077 146.697 34.5589 146.697 35.4848C146.697 36.3957 146.533 37.2395 146.204 38.016C145.89 38.7925 145.442 39.472 144.859 40.0544C144.291 40.6219 143.618 41.0699 142.841 41.3984C142.064 41.7269 141.227 41.8912 140.33 41.8912C139.404 41.8912 138.537 41.7269 137.73 41.3984C136.938 41.0699 136.243 40.6219 135.645 40.0544C135.062 39.472 134.599 38.7925 134.255 38.016C133.926 37.2245 133.762 36.3733 133.762 35.4624ZM140.308 39.9648C140.921 39.9648 141.489 39.8528 142.012 39.6288C142.535 39.4048 142.983 39.0912 143.357 38.688C143.745 38.2848 144.044 37.8144 144.254 37.2768C144.478 36.7243 144.59 36.1269 144.59 35.4848C144.59 34.8277 144.478 34.2229 144.254 33.6704C144.044 33.1179 143.738 32.64 143.334 32.2368C142.946 31.8336 142.483 31.52 141.945 31.296C141.406 31.0571 140.824 30.9376 140.196 30.9376C139.583 30.9376 139.015 31.0571 138.492 31.296C137.969 31.52 137.513 31.8336 137.125 32.2368C136.736 32.64 136.43 33.1179 136.205 33.6704C135.996 34.2229 135.892 34.8203 135.892 35.4624C135.892 36.1045 136.004 36.7019 136.228 37.2544C136.452 37.8069 136.758 38.2848 137.147 38.688C137.551 39.0912 138.021 39.4048 138.559 39.6288C139.097 39.8528 139.68 39.9648 140.308 39.9648Z" fill="white"/>
<path d="M151.967 29.3024H153.985L159.231 41.6H156.989L152.976 31.9456L148.963 41.6H146.722L151.967 29.3024Z" fill="white"/>
<path d="M159.234 35.4624C159.234 34.5365 159.399 33.6853 159.728 32.9088C160.071 32.1173 160.535 31.4379 161.117 30.8704C161.7 30.288 162.388 29.8325 163.18 29.504C163.987 29.1755 164.861 29.0112 165.803 29.0112C166.7 29.0112 167.536 29.1755 168.314 29.504C169.091 29.8325 169.763 30.288 170.331 30.8704C170.914 31.4528 171.362 32.1397 171.676 32.9312C172.005 33.7077 172.17 34.5589 172.17 35.4848C172.17 36.3957 172.005 37.2395 171.676 38.016C171.362 38.7925 170.914 39.472 170.331 40.0544C169.763 40.6219 169.091 41.0699 168.314 41.3984C167.536 41.7269 166.7 41.8912 165.803 41.8912C164.876 41.8912 164.009 41.7269 163.202 41.3984C162.41 41.0699 161.715 40.6219 161.117 40.0544C160.535 39.472 160.071 38.7925 159.728 38.016C159.399 37.2245 159.234 36.3733 159.234 35.4624ZM165.78 39.9648C166.393 39.9648 166.961 39.8528 167.484 39.6288C168.007 39.4048 168.456 39.0912 168.829 38.688C169.218 38.2848 169.517 37.8144 169.726 37.2768C169.95 36.7243 170.062 36.1269 170.062 35.4848C170.062 34.8277 169.95 34.2229 169.726 33.6704C169.517 33.1179 169.21 32.64 168.807 32.2368C168.418 31.8336 167.955 31.52 167.417 31.296C166.879 31.0571 166.296 30.9376 165.668 30.9376C165.056 30.9376 164.488 31.0571 163.965 31.296C163.441 31.52 162.986 31.8336 162.597 32.2368C162.208 32.64 161.902 33.1179 161.678 33.6704C161.469 34.2229 161.364 34.8203 161.364 35.4624C161.364 36.1045 161.476 36.7019 161.7 37.2544C161.925 37.8069 162.231 38.2848 162.619 38.688C163.023 39.0912 163.494 39.4048 164.032 39.6288C164.57 39.8528 165.153 39.9648 165.78 39.9648Z" fill="white"/>
<path d="M174.15 29.3024H180.674V31.2064H176.257V41.6H174.15V29.3024Z" fill="white"/>
<path d="M187.927 39.7184L196.154 33.0208C196.438 32.7968 196.715 32.5429 196.984 32.2592C197.253 31.9605 197.492 31.6469 197.701 31.3184C197.911 30.9899 198.075 30.6464 198.195 30.288C198.329 29.9296 198.396 29.5637 198.396 29.1904C198.396 28.4288 198.15 27.8165 197.656 27.3536C197.178 26.8907 196.536 26.6592 195.729 26.6592C195.176 26.6592 194.675 26.7637 194.227 26.9728C193.778 27.1669 193.39 27.4357 193.061 27.7792C192.732 28.1227 192.456 28.5333 192.231 29.0112C192.022 29.4741 191.865 29.9744 191.761 30.512H189.698C189.848 29.7056 190.094 28.9515 190.438 28.2496C190.797 27.5477 191.245 26.9429 191.783 26.4352C192.321 25.9125 192.949 25.5019 193.666 25.2032C194.383 24.9045 195.191 24.7552 196.087 24.7552C196.76 24.7552 197.365 24.8597 197.903 25.0688C198.441 25.2629 198.904 25.5392 199.293 25.8976C199.682 26.256 199.98 26.6891 200.19 27.1968C200.399 27.7045 200.504 28.2645 200.504 28.8768C200.504 29.6085 200.384 30.2731 200.145 30.8704C199.921 31.4677 199.607 32.0203 199.203 32.528C198.815 33.0357 198.366 33.5136 197.858 33.9616C197.365 34.3947 196.849 34.8277 196.311 35.2608L190.819 39.6736H198.508L198.172 41.6H187.591L187.927 39.7184Z" fill="#F71729"/>
<path d="M200.137 36.9408L210.27 25.0464H212.4L210.203 36.8736H211.795L211.458 38.7552H209.867L209.329 41.6H207.244L207.782 38.7552H199.801L200.137 36.9408ZM208.118 36.8736L209.71 28.2496L202.424 36.8736H208.118Z" fill="#F71729"/>
</svg>
