<svg width="212" height="48" viewBox="0 0 212 48" fill="none" xmlns="http://www.w3.org/2000/svg">
<path d="M27.2023 35.6937L24.4706 38.4028C24.4518 38.4153 24.4392 38.4277 24.4203 38.4463C24.1252 38.7439 23.8238 39.0414 23.5224 39.339L19.9806 42.8479C18.6492 44.1622 17.3242 45.4702 15.9929 46.7783C14.963 47.7949 13.795 48.1731 12.6583 47.9252C12.6333 47.919 12.6082 47.9128 12.5894 47.9066C12.558 47.9004 12.5328 47.8942 12.5014 47.8879C12.4951 47.8817 12.4951 47.8817 12.4888 47.8817C11.8734 47.7082 11.2769 47.3424 10.7179 46.7969C9.36153 45.4578 8.01142 44.125 6.66121 42.7859C5.16031 41.2918 5.15402 39.2522 6.66749 37.7581C11.3647 33.1086 16.0619 28.4591 20.7655 23.8157C20.7342 25.2726 20.9351 26.6489 21.3559 27.9445C21.6888 28.9798 22.166 29.9593 22.7815 30.8954C23.3403 31.7447 24.0122 32.5568 24.7972 33.3255C25.6011 34.1191 26.3986 34.9065 27.2023 35.6937Z" fill="#F71729"/>
<path d="M55.4048 7.62298C55.4362 8.55288 55.0468 9.48278 54.2305 10.2887C51.8881 12.601 49.5457 14.9134 47.2034 17.2257C47.1845 17.2444 47.1595 17.263 47.1406 17.2815C47.0967 17.3125 47.059 17.3435 47.0275 17.3931C44.723 19.6683 42.4246 21.9434 40.1261 24.2248C40.1576 22.7679 39.9566 21.3916 39.5296 20.0898C39.1716 18.9987 38.6568 17.9572 37.991 16.9715C37.4258 16.1346 36.7477 15.3349 35.9627 14.5723C35.2029 13.8346 34.4429 13.0907 33.6894 12.3406L40.8798 5.2113C42.2173 3.89087 43.555 2.57036 44.8925 1.25613C46.588 -0.417674 48.5724 -0.417676 50.2617 1.24993C51.593 2.55803 52.9181 3.86605 54.243 5.18035C54.9212 5.84988 55.3043 6.6124 55.3922 7.38733C55.3985 7.46801 55.4048 7.5486 55.4048 7.62298Z" fill="#F71729"/>
<path d="M26.4613 15.4466C26.2479 15.5024 26.0343 15.5582 25.827 15.6264C24.7721 15.9612 23.7673 16.4447 22.8128 17.0584C21.9651 17.604 21.1612 18.2611 20.3951 19.0174C18.2913 21.1004 16.1877 23.1896 14.0713 25.2602C11.4904 27.7709 8.50758 29.5563 4.90301 30.2383C4.31884 30.3437 3.72236 30.418 3.12578 30.4367C2.88089 30.4429 2.62971 30.4367 2.37852 30.4305C1.05975 30.3623 0.0235768 29.327 0.0172906 28.0251C0.0172906 27.8515 0.0110026 27.6779 0.0110026 27.5043C0.0110026 26.9587 0.0047146 26.4194 0.0047146 25.8739C-0.00157153 24.6216 -0.00157153 23.3631 0.0047146 22.1108C0.0047146 21.5776 0.00471648 21.0383 0.0110026 20.499V20.0154C0.0235749 18.6144 1.13509 17.5357 2.55427 17.5481C2.74888 17.5481 2.94358 17.5543 3.13836 17.5667C5.09763 17.6783 6.9564 18.2673 8.77126 19.005C10.1654 19.5629 11.4967 20.2572 12.7588 21.0632C13.0979 21.2863 13.2675 21.243 13.5251 20.9702C14.0588 20.3936 14.6177 19.8419 15.2017 19.315C15.4842 19.0608 15.4842 18.9182 15.208 18.6517C12.3821 15.8867 9.5751 13.1094 6.76808 10.3321C5.12897 8.70785 5.12268 6.72402 6.74921 5.10606C7.40865 4.45516 8.06791 3.79796 8.73354 3.14705L8.75868 3.12232C9.25476 2.62638 9.75722 2.13657 10.2596 1.64684C10.4291 1.47946 10.5924 1.31207 10.762 1.14469C12.3256 -0.386559 14.3728 -0.380353 15.9365 1.16331L18.7687 3.95922C18.7749 3.96543 18.7812 3.98404 18.8001 4.00887L18.9571 4.25063L26.4613 15.4466Z" fill="#F71729"/>
<path d="M60.9247 20.5487C60.9435 22.8425 60.9435 25.1424 60.9247 27.4424V28.0438C60.9121 29.234 59.9262 30.2259 58.6701 30.4119C57.6591 30.5545 56.667 30.5669 55.7061 30.4429C54.3246 30.2632 52.9932 29.823 51.7059 29.1535C50.5002 28.5273 49.3447 27.8267 48.2646 27.0147C47.9193 26.7605 47.7119 26.6923 47.3854 27.0643C46.9019 27.6284 46.3493 28.1492 45.7903 28.6451C45.4889 28.9241 45.4638 29.0729 45.7777 29.3828C46.186 29.7796 46.5941 30.1764 47.0023 30.5793C47.0525 30.6289 47.1028 30.6723 47.1467 30.7219C47.3916 30.9575 47.6302 31.1993 47.8752 31.4348C47.9003 31.4596 47.9192 31.4783 47.9442 31.503C50.0165 33.5364 52.0763 35.5822 54.1361 37.6218L54.2491 37.7334C54.2616 37.7458 54.2805 37.7643 54.2931 37.7768C54.3182 37.8016 54.3434 37.8326 54.3684 37.8574C54.8959 38.4402 55.2225 39.0601 55.348 39.6801C55.3606 39.7235 55.3669 39.7731 55.3732 39.8165C55.3857 39.9095 55.3983 40.0087 55.4046 40.1017V40.1513C55.4109 40.2443 55.4109 40.3435 55.4046 40.4365C55.3606 41.23 54.9901 42.0235 54.2994 42.7613C54.2742 42.7922 54.2491 42.817 54.224 42.8419C54.199 42.8667 54.1738 42.8976 54.1424 42.9225C53.483 43.5734 52.8237 44.2306 52.1581 44.8877C51.4923 45.5386 50.8267 46.1958 50.161 46.8529C50.1485 46.8653 50.1359 46.8777 50.1234 46.8901C50.1046 46.9088 50.0795 46.9336 50.0543 46.9584C50.0292 46.9769 50.004 47.0017 49.979 47.0204C49.9413 47.0576 49.9036 47.0885 49.8659 47.1196C49.8408 47.1382 49.8157 47.163 49.7906 47.1815C49.7403 47.225 49.69 47.2621 49.6399 47.2994C49.483 47.411 49.326 47.5101 49.1626 47.5969C49.1123 47.6217 49.0559 47.6527 49.0057 47.6775C48.9554 47.6961 48.9051 47.7209 48.8612 47.7394C48.811 47.7581 48.7669 47.7767 48.7167 47.7953C48.6728 47.8139 48.6288 47.8262 48.5786 47.8449C48.5284 47.8573 48.4718 47.8759 48.4154 47.8884C48.3149 47.9193 48.2082 47.9379 48.1014 47.9566C48.0638 47.9628 48.0198 47.969 47.9758 47.9752C47.8879 47.9876 47.8 47.9938 47.712 48H47.599C47.486 48 47.3666 47.9938 47.2537 47.9814C47.1908 47.9752 47.1281 47.969 47.0652 47.9566C46.9774 47.9441 46.8894 47.9256 46.8016 47.9008C46.7639 47.8946 46.7261 47.8822 46.6822 47.8698C46.117 47.7086 45.5707 47.3862 45.0621 46.9088C45.0369 46.884 45.0118 46.8592 44.9866 46.8407C42.9583 44.8382 40.9362 42.8358 38.9016 40.8335L33.2812 32.7495C33.8841 32.6565 34.4743 32.5139 35.0459 32.3279C36.1385 31.9807 37.1809 31.4848 38.1732 30.8339C39.0397 30.2697 39.8624 29.5879 40.6474 28.8005C42.7887 26.6556 44.9553 24.5291 47.1532 22.4338C49.5646 20.1338 52.3653 18.5157 55.6747 17.8152C56.3279 17.6787 56.9935 17.5858 57.6654 17.5548C57.835 17.5424 58.0045 17.5362 58.1741 17.5362C58.2684 17.5362 58.3688 17.5424 58.463 17.5424C59.788 17.5796 60.9058 18.6211 60.9184 19.923C60.9247 20.1334 60.9247 20.338 60.9247 20.5487Z" fill="#F71729"/>
<path fill-rule="evenodd" clip-rule="evenodd" d="M28.6368 19.8811C28.6368 19.5687 28.7625 19.2691 28.9863 19.0482C29.2101 18.8273 29.5136 18.7032 29.83 18.7032H31.0232C31.3397 18.7032 31.6432 18.8273 31.867 19.0482C32.0907 19.2691 32.2164 19.5687 32.2164 19.8811V22.237H34.6028C34.9193 22.237 35.2228 22.3611 35.4466 22.582C35.6703 22.8029 35.796 23.1025 35.796 23.4149V24.5928C35.796 24.9052 35.6703 25.2049 35.4466 25.4258C35.2228 25.6467 34.9193 25.7708 34.6028 25.7708H32.2164V28.1266C32.2164 28.439 32.0907 28.7386 31.867 28.9595C31.6432 29.1805 31.3397 29.3046 31.0232 29.3046H29.83C29.5136 29.3046 29.2101 29.1805 28.9863 28.9595C28.7625 28.7386 28.6368 28.439 28.6368 28.1266V25.7708H26.2504C25.934 25.7708 25.6305 25.6467 25.4067 25.4258C25.1829 25.2049 25.0572 24.9052 25.0572 24.5928V23.4149C25.0572 23.1025 25.1829 22.8029 25.4067 22.582C25.6305 22.3611 25.934 22.237 26.2504 22.237H28.6368V19.8811Z" fill="#F71729"/>
<path d="M78.2058 1.66023H81.9698C84.0106 1.66023 85.5147 2.01412 86.4821 2.72188C87.4647 3.42965 87.956 4.53647 87.956 6.04235C87.956 6.85553 87.8048 7.52565 87.5025 8.05271C87.2153 8.57976 86.7467 9.024 86.0966 9.38541C87.0943 9.792 87.8124 10.3191 88.2508 10.9666C88.6891 11.6141 88.9083 12.4574 88.9083 13.4965C88.9083 16.7341 86.7618 18.3529 82.4687 18.3529H78.2058V1.66023ZM82.4006 16.3652C83.9274 16.3652 85.0309 16.1468 85.7112 15.7101C86.3914 15.2584 86.7316 14.5355 86.7316 13.5416C86.7316 12.6231 86.4292 11.9078 85.8246 11.3958C85.2199 10.8687 84.3734 10.6052 83.285 10.6052H80.3599V16.3652H82.4006ZM83.1489 8.59482C84.9024 8.59482 85.7792 7.77412 85.7792 6.13271C85.7792 5.24424 85.4995 4.61176 84.9402 4.23529C84.3809 3.85882 83.4437 3.67059 82.1285 3.67059H80.3599V8.59482H83.1489Z" fill="#1F1F1F"/>
<path d="M95.6683 16.4329C96.4846 16.4329 97.1044 16.2748 97.5276 15.9586C97.9509 15.6273 98.1625 15.1454 98.1625 14.5129C98.1625 13.8805 97.9509 13.4061 97.5276 13.0899C97.1044 12.7586 96.4846 12.5929 95.6683 12.5929H92.902V16.4329H95.6683ZM90.7705 5.952H92.902V10.6729H96.0084C96.6433 10.6729 97.2178 10.7708 97.7317 10.9666C98.2608 11.1473 98.7143 11.4108 99.0922 11.7572C99.4852 12.0885 99.7876 12.4951 99.9992 12.9769C100.211 13.4438 100.317 13.9558 100.317 14.5129C100.317 15.0701 100.211 15.5896 99.9992 16.0715C99.7876 16.5384 99.4852 16.9449 99.0922 17.2913C98.7143 17.6226 98.2608 17.8861 97.7317 18.0819C97.2178 18.2626 96.6433 18.3529 96.0084 18.3529H90.7705V5.952ZM101.677 5.952H103.809V18.3529H101.677V5.952Z" fill="#1F1F1F"/>
<path d="M118.441 14.4C118.229 15.0325 117.919 15.6122 117.511 16.1393C117.118 16.6513 116.657 17.0955 116.128 17.472C115.599 17.8485 115.017 18.1421 114.382 18.3529C113.762 18.5487 113.112 18.6466 112.432 18.6466C111.51 18.6466 110.641 18.4809 109.825 18.1496C109.023 17.8033 108.32 17.3365 107.716 16.7492C107.111 16.1619 106.635 15.4767 106.287 14.6936C105.955 13.8955 105.788 13.0372 105.788 12.1186C105.788 11.2151 105.955 10.3718 106.287 9.58871C106.635 8.80565 107.096 8.12047 107.67 7.53318C108.26 6.94588 108.948 6.48659 109.734 6.15529C110.52 5.824 111.366 5.65835 112.273 5.65835C113.18 5.65835 114.027 5.83153 114.813 6.17788C115.614 6.50918 116.31 6.96847 116.899 7.55576C117.489 8.128 117.95 8.80565 118.282 9.58871C118.63 10.3718 118.804 11.2151 118.804 12.1186C118.804 12.4198 118.774 12.6984 118.713 12.9544H108.011C108.056 13.4965 108.199 13.9934 108.441 14.4452C108.698 14.8969 109.016 15.296 109.394 15.6424C109.787 15.9736 110.24 16.2372 110.754 16.4329C111.268 16.6136 111.812 16.704 112.387 16.704C113.218 16.704 113.966 16.5007 114.632 16.0941C115.312 15.6875 115.833 15.1228 116.196 14.4H118.441ZM116.65 11.0795C116.393 9.98024 115.879 9.12941 115.108 8.52706C114.352 7.90965 113.415 7.60094 112.296 7.60094C111.208 7.60094 110.278 7.91718 109.507 8.54965C108.736 9.16706 108.237 10.0104 108.011 11.0795H116.65Z" fill="#1F1F1F"/>
<path d="M122.194 14.6485C122.24 15.2508 122.497 15.7478 122.965 16.1393C123.449 16.5158 124.039 16.704 124.734 16.704C125.082 16.704 125.407 16.6513 125.709 16.5459C126.026 16.4405 126.299 16.2974 126.525 16.1167C126.752 15.9209 126.933 15.7026 127.07 15.4616C127.206 15.2056 127.274 14.9346 127.274 14.6485C127.274 13.9859 126.979 13.4889 126.389 13.1576C125.8 12.8113 124.938 12.6381 123.804 12.6381V11.0569C125.754 11.0569 126.729 10.4471 126.729 9.22729C126.729 8.77553 126.533 8.39153 126.14 8.07529C125.747 7.75906 125.271 7.60094 124.711 7.60094C124.167 7.60094 123.706 7.75153 123.328 8.05271C122.965 8.35388 122.754 8.74541 122.693 9.22729H120.607C120.637 8.71529 120.758 8.24094 120.97 7.80424C121.197 7.36753 121.491 6.99106 121.854 6.67482C122.232 6.34353 122.663 6.08753 123.147 5.90682C123.646 5.72612 124.175 5.63576 124.734 5.63576C125.308 5.63576 125.845 5.73365 126.344 5.92941C126.843 6.11012 127.274 6.36612 127.636 6.69741C128.014 7.01365 128.309 7.39012 128.521 7.82682C128.732 8.26353 128.838 8.73035 128.838 9.22729C128.838 9.81459 128.679 10.3266 128.362 10.7633C128.045 11.2 127.606 11.5012 127.047 11.6668V11.7572C127.788 11.9529 128.37 12.3068 128.793 12.8188C129.216 13.3158 129.428 13.9256 129.428 14.6485C129.428 15.2056 129.307 15.7252 129.065 16.2071C128.823 16.6889 128.49 17.1106 128.067 17.472C127.644 17.8334 127.145 18.1195 126.571 18.3304C125.996 18.5412 125.384 18.6466 124.734 18.6466C124.099 18.6466 123.502 18.5487 122.943 18.3529C122.398 18.1421 121.915 17.856 121.491 17.4946C121.083 17.1332 120.751 16.7115 120.494 16.2296C120.237 15.7327 120.093 15.2056 120.063 14.6485H122.194Z" fill="#1F1F1F"/>
<path d="M130.301 16.4329H132.002L136.514 5.952H138.645L143.158 16.4329H144.858V21.2442H143.384L142.75 18.3529H132.41L131.798 21.2442H130.301V16.4329ZM140.936 16.4329L137.58 8.59482L134.224 16.4329H140.936Z" fill="#1F1F1F"/>
<path d="M146.329 5.952H148.461V11.1021H155.263V5.952H157.372V18.3529H155.263V13.0221H148.461V18.3529H146.329V5.952Z" fill="#1F1F1F"/>
<path d="M159.354 12.1638C159.354 11.2301 159.521 10.3718 159.853 9.58871C160.201 8.79059 160.669 8.10541 161.259 7.53318C161.849 6.94588 162.544 6.48659 163.345 6.15529C164.161 5.824 165.046 5.65835 165.998 5.65835C166.905 5.65835 167.752 5.824 168.538 6.15529C169.324 6.48659 170.004 6.94588 170.578 7.53318C171.168 8.12047 171.621 8.81318 171.939 9.61129C172.271 10.3944 172.438 11.2527 172.438 12.1864C172.438 13.1049 172.271 13.9558 171.939 14.7388C171.621 15.5219 171.168 16.2071 170.578 16.7944C170.004 17.3666 169.324 17.8184 168.538 18.1496C167.752 18.4809 166.905 18.6466 165.998 18.6466C165.061 18.6466 164.184 18.4809 163.368 18.1496C162.567 17.8184 161.864 17.3666 161.259 16.7944C160.669 16.2071 160.201 15.5219 159.853 14.7388C159.521 13.9407 159.354 13.0824 159.354 12.1638ZM165.975 16.704C166.595 16.704 167.17 16.5911 167.699 16.3652C168.228 16.1393 168.681 15.8231 169.059 15.4165C169.452 15.0099 169.755 14.5355 169.966 13.9934C170.193 13.4362 170.306 12.8339 170.306 12.1864C170.306 11.5238 170.193 10.9139 169.966 10.3567C169.755 9.79953 169.445 9.31765 169.037 8.91106C168.644 8.50447 168.175 8.18824 167.631 7.96235C167.086 7.72141 166.497 7.60094 165.862 7.60094C165.242 7.60094 164.668 7.72141 164.139 7.96235C163.61 8.18824 163.149 8.50447 162.756 8.91106C162.363 9.31765 162.053 9.79953 161.826 10.3567C161.614 10.9139 161.508 11.5162 161.508 12.1638C161.508 12.8113 161.622 13.4136 161.849 13.9708C162.075 14.528 162.385 15.0099 162.778 15.4165C163.186 15.8231 163.663 16.1393 164.207 16.3652C164.751 16.5911 165.341 16.704 165.975 16.704Z" fill="#1F1F1F"/>
<path d="M178.364 1.50212C178.364 2.70682 178.915 3.30918 180.019 3.30918C181.122 3.30918 181.674 2.70682 181.674 1.50212H183.556C183.39 2.46588 183.005 3.19623 182.4 3.69318C181.81 4.19012 181.017 4.43859 180.019 4.43859C179.021 4.43859 178.22 4.19012 177.615 3.69318C177.026 3.19623 176.648 2.46588 176.482 1.50212H178.364ZM174.441 5.952H176.55V15.3487L183.466 5.952H185.597V18.3529H183.488V8.93365L176.572 18.3529H174.441V5.952Z" fill="#1F1F1F"/>
<path d="M77.8883 29.952H80.0198V35.1021H86.8223V29.952H88.931V42.3529H86.8223V37.0221H80.0198V42.3529H77.8883V29.952Z" fill="#1F1F1F"/>
<path d="M90.9133 36.1864C90.9133 35.2527 91.072 34.3868 91.3895 33.5887C91.722 32.7906 92.1755 32.1054 92.75 31.5332C93.3395 30.9459 94.0273 30.4866 94.8134 30.1553C95.6146 29.824 96.4762 29.6584 97.3983 29.6584C98.4414 29.6584 99.3257 29.8391 100.051 30.2005C100.792 30.5619 101.457 31.1492 102.047 31.9624V29.952H104.087V42.3529H102.047V40.3652C101.397 41.1784 100.716 41.7656 100.006 42.1271C99.3106 42.4734 98.4641 42.6466 97.4664 42.6466C96.5291 42.6466 95.6599 42.4885 94.8587 42.1722C94.0576 41.8409 93.3622 41.3892 92.7727 40.8169C92.1982 40.2447 91.7447 39.5671 91.4121 38.784C91.0796 37.9859 90.9133 37.12 90.9133 36.1864ZM93.0674 36.1638C93.0674 36.8113 93.1808 37.4136 93.4075 37.9708C93.6494 38.5129 93.9744 38.9873 94.3826 39.3939C94.7907 39.8005 95.2669 40.1242 95.8111 40.3652C96.3704 40.5911 96.9675 40.704 97.6024 40.704C98.2373 40.704 98.8193 40.5911 99.3484 40.3652C99.8926 40.1242 100.361 39.8005 100.754 39.3939C101.147 38.9873 101.45 38.5054 101.661 37.9482C101.888 37.3911 102.001 36.7887 102.001 36.1412C102.001 35.4786 101.888 34.8762 101.661 34.3341C101.434 33.7769 101.117 33.2951 100.709 32.8885C100.316 32.4819 99.8397 32.1656 99.2803 31.9398C98.7361 31.7139 98.139 31.6009 97.489 31.6009C96.8692 31.6009 96.2873 31.7214 95.7431 31.9624C95.214 32.1882 94.7454 32.512 94.3372 32.9336C93.9442 33.3402 93.6343 33.8221 93.4075 34.3793C93.1808 34.9365 93.0674 35.5313 93.0674 36.1638Z" fill="#1F1F1F"/>
<path d="M106.576 29.952H108.616V31.8494C109.13 31.1266 109.78 30.5845 110.566 30.2231C111.352 29.8466 112.244 29.6584 113.242 29.6584C114.164 29.6584 115.018 29.824 115.804 30.1553C116.59 30.4866 117.271 30.9384 117.845 31.5106C118.42 32.0828 118.865 32.768 119.183 33.5661C119.515 34.3492 119.682 35.2075 119.682 36.1412C119.682 37.0598 119.515 37.9181 119.183 38.7162C118.85 39.5144 118.397 40.2071 117.822 40.7944C117.248 41.3666 116.56 41.8184 115.759 42.1497C114.973 42.4809 114.119 42.6466 113.197 42.6466C111.322 42.6466 109.826 41.9464 108.707 40.5459V46.6447H106.576V29.952ZM113.083 40.704C113.718 40.704 114.3 40.5911 114.829 40.3652C115.374 40.1393 115.842 39.8231 116.235 39.4165C116.643 39.0099 116.961 38.5355 117.188 37.9934C117.414 37.4362 117.528 36.8339 117.528 36.1864C117.528 35.5238 117.414 34.9139 117.188 34.3567C116.961 33.7845 116.643 33.2951 116.235 32.8885C115.842 32.4819 115.366 32.1656 114.807 31.9398C114.262 31.7139 113.658 31.6009 112.993 31.6009C112.373 31.6009 111.791 31.7214 111.247 31.9624C110.718 32.1882 110.249 32.5045 109.841 32.9111C109.448 33.3176 109.138 33.7995 108.911 34.3567C108.684 34.9139 108.571 35.5162 108.571 36.1638C108.571 36.8113 108.684 37.4136 108.911 37.9708C109.138 38.5129 109.455 38.9873 109.864 39.3939C110.272 39.8005 110.748 40.1242 111.292 40.3652C111.851 40.5911 112.448 40.704 113.083 40.704Z" fill="#1F1F1F"/>
<path d="M121.65 29.952H123.781V35.5313L128.997 29.952H131.672L125.868 36.0056L131.763 42.3529H128.997L123.781 36.5478V42.3529H121.65V29.952Z" fill="#1F1F1F"/>
<path d="M132.461 36.1638C132.461 35.2301 132.627 34.3718 132.96 33.5887C133.307 32.7906 133.776 32.1054 134.365 31.5332C134.955 30.9459 135.65 30.4866 136.451 30.1553C137.268 29.824 138.152 29.6584 139.104 29.6584C140.011 29.6584 140.858 29.824 141.644 30.1553C142.43 30.4866 143.11 30.9459 143.685 31.5332C144.274 32.1205 144.728 32.8132 145.045 33.6113C145.378 34.3944 145.544 35.2527 145.544 36.1864C145.544 37.1049 145.378 37.9558 145.045 38.7388C144.728 39.5219 144.274 40.2071 143.685 40.7944C143.11 41.3666 142.43 41.8184 141.644 42.1497C140.858 42.4809 140.011 42.6466 139.104 42.6466C138.167 42.6466 137.29 42.4809 136.474 42.1497C135.673 41.8184 134.97 41.3666 134.365 40.7944C133.776 40.2071 133.307 39.5219 132.96 38.7388C132.627 37.9407 132.461 37.0824 132.461 36.1638ZM139.082 40.704C139.702 40.704 140.276 40.5911 140.805 40.3652C141.334 40.1393 141.788 39.8231 142.166 39.4165C142.559 39.0099 142.861 38.5355 143.073 37.9934C143.299 37.4362 143.413 36.8339 143.413 36.1864C143.413 35.5238 143.299 34.9139 143.073 34.3567C142.861 33.7995 142.551 33.3176 142.143 32.9111C141.75 32.5045 141.281 32.1882 140.737 31.9624C140.193 31.7214 139.603 31.6009 138.968 31.6009C138.349 31.6009 137.774 31.7214 137.245 31.9624C136.716 32.1882 136.255 32.5045 135.862 32.9111C135.469 33.3176 135.159 33.7995 134.932 34.3567C134.721 34.9139 134.615 35.5162 134.615 36.1638C134.615 36.8113 134.728 37.4136 134.955 37.9708C135.182 38.528 135.492 39.0099 135.885 39.4165C136.293 39.8231 136.769 40.1393 137.313 40.3652C137.857 40.5911 138.447 40.704 139.082 40.704Z" fill="#1F1F1F"/>
<path d="M150.875 29.952H152.916L158.221 42.3529H155.954L151.895 32.6174L147.836 42.3529H145.569L150.875 29.952Z" fill="#1F1F1F"/>
<path d="M158.225 36.1638C158.225 35.2301 158.391 34.3718 158.724 33.5887C159.072 32.7906 159.54 32.1054 160.13 31.5332C160.719 30.9459 161.415 30.4866 162.216 30.1553C163.032 29.824 163.916 29.6584 164.869 29.6584C165.776 29.6584 166.622 29.824 167.408 30.1553C168.194 30.4866 168.875 30.9459 169.449 31.5332C170.039 32.1205 170.492 32.8132 170.81 33.6113C171.142 34.3944 171.308 35.2527 171.308 36.1864C171.308 37.1049 171.142 37.9558 170.81 38.7388C170.492 39.5219 170.039 40.2071 169.449 40.7944C168.875 41.3666 168.194 41.8184 167.408 42.1497C166.622 42.4809 165.776 42.6466 164.869 42.6466C163.932 42.6466 163.055 42.4809 162.238 42.1497C161.437 41.8184 160.734 41.3666 160.13 40.7944C159.54 40.2071 159.072 39.5219 158.724 38.7388C158.391 37.9407 158.225 37.0824 158.225 36.1638ZM164.846 40.704C165.466 40.704 166.04 40.5911 166.569 40.3652C167.098 40.1393 167.552 39.8231 167.93 39.4165C168.323 39.0099 168.625 38.5355 168.837 37.9934C169.064 37.4362 169.177 36.8339 169.177 36.1864C169.177 35.5238 169.064 34.9139 168.837 34.3567C168.625 33.7995 168.315 33.3176 167.907 32.9111C167.514 32.5045 167.046 32.1882 166.501 31.9624C165.957 31.7214 165.368 31.6009 164.733 31.6009C164.113 31.6009 163.539 31.7214 163.009 31.9624C162.48 32.1882 162.019 32.5045 161.626 32.9111C161.233 33.3176 160.923 33.7995 160.697 34.3567C160.485 34.9139 160.379 35.5162 160.379 36.1638C160.379 36.8113 160.493 37.4136 160.719 37.9708C160.946 38.528 161.256 39.0099 161.649 39.4165C162.057 39.8231 162.533 40.1393 163.077 40.3652C163.622 40.5911 164.211 40.704 164.846 40.704Z" fill="#1F1F1F"/>
<path d="M173.312 29.952H179.91V31.872H175.443V42.3529H173.312V29.952Z" fill="#1F1F1F"/>
<path d="M187.247 40.4555L195.568 33.7016C195.856 33.4758 196.135 33.2198 196.407 32.9336C196.679 32.6325 196.921 32.3162 197.133 31.9849C197.345 31.6536 197.511 31.3073 197.632 30.9459C197.768 30.5845 197.836 30.2155 197.836 29.8391C197.836 29.0711 197.586 28.4536 197.088 27.9868C196.604 27.52 195.954 27.2866 195.137 27.2866C194.578 27.2866 194.072 27.392 193.618 27.6028C193.165 27.7986 192.772 28.0696 192.439 28.416C192.107 28.7624 191.827 29.1765 191.6 29.6584C191.389 30.1252 191.23 30.6296 191.124 31.1718H189.038C189.189 30.3586 189.439 29.5981 189.786 28.8904C190.149 28.1826 190.602 27.5727 191.147 27.0607C191.691 26.5336 192.326 26.1195 193.051 25.8184C193.777 25.5172 194.593 25.3666 195.5 25.3666C196.181 25.3666 196.793 25.472 197.337 25.6828C197.881 25.8786 198.35 26.1572 198.743 26.5186C199.136 26.88 199.438 27.3167 199.65 27.8287C199.861 28.3407 199.967 28.9054 199.967 29.5228C199.967 30.2607 199.846 30.9308 199.604 31.5332C199.378 32.1355 199.06 32.6927 198.652 33.2047C198.259 33.7167 197.806 34.1986 197.292 34.6504C196.793 35.0871 196.271 35.5238 195.727 35.9605L190.172 40.4104H197.949L197.609 42.3529H186.906L187.247 40.4555Z" fill="#F71729"/>
<path d="M199.597 37.6546L209.846 25.6602H212L209.778 37.5868H211.388L211.048 39.4842H209.438L208.894 42.3529H206.785L207.329 39.4842H199.257L199.597 37.6546ZM207.669 37.5868L209.279 28.8904L201.91 37.5868H207.669Z" fill="#F71729"/>
</svg>
