<svg width="20" height="22" viewBox="0 0 20 22" fill="none" xmlns="http://www.w3.org/2000/svg">
<path d="M8 21.5H12C15.7712 21.5 17.6569 21.5 18.8284 20.2698C20 19.0398 20 17.0598 20 13.1001C20 9.14036 20 7.16045 18.8284 5.93031C18.4658 5.54959 18.0343 5.28669 17.4996 5.10516C17.5 5.28316 17.5 5.4652 17.5 5.65038V7.91636C17.5 7.94719 17.5003 7.98076 17.5006 8.0168C17.5035 8.37427 17.5085 8.97341 17.264 9.52151C17.0195 10.0697 16.578 10.4493 16.3145 10.6758C16.2882 10.6983 16.263 10.72 16.2407 10.7395L14.7342 12.0578C13.8734 12.8109 13.1241 13.4666 12.4505 13.9215C11.7245 14.4118 10.9391 14.7745 10 14.7745C9.0609 14.7745 8.2756 14.4118 7.54949 13.9215C6.87589 13.4666 6.12661 12.8109 5.26587 12.0578L3.75937 10.7395C3.73681 10.7199 3.71207 10.6985 3.68551 10.6758C3.42207 10.4493 2.98056 10.0697 2.73604 9.52151C2.49152 8.97341 2.49648 8.37427 2.49944 8.0168C2.49973 7.98078 2.50001 7.94718 2.50001 7.91636V5.65037C2.49999 5.46496 2.49998 5.283 2.5004 5.10479C1.96577 5.28633 1.53442 5.54933 1.17157 5.93031C1.14441e-07 7.16045 0 9.14036 0 13.1001C0 17.0598 1.14441e-07 19.0398 1.17157 20.2698C2.34314 21.5 4.22877 21.5 8 21.5Z" fill="#F71729"/>
<path fill-rule="evenodd" clip-rule="evenodd" d="M4.71972 9.52959L6.15898 10.789C7.99562 12.396 8.9139 13.1995 10.0001 13.1995C11.0862 13.1995 12.0046 12.396 13.8412 10.789L15.2805 9.52959C15.6343 9.21995 15.8113 9.06518 15.9057 8.85349C16.0001 8.64184 16.0001 8.4 16.0001 7.91634V5.74995C16.0001 5.41329 16.0001 5.09952 15.9982 4.80673C15.9865 2.94711 15.9005 1.93309 15.2679 1.26883C14.5356 0.5 13.3571 0.5 11.0001 0.5H9.0001C6.64306 0.5 5.46455 0.5 4.73232 1.26883C4.09969 1.93309 4.01179 2.94711 4.00009 4.80673C3.99824 5.09952 4.00009 5.41329 4.00009 5.74995V7.91634C4.00009 8.4 4.00009 8.64184 4.0945 8.85349C4.18891 9.06518 4.36584 9.21995 4.71972 9.52959ZM7.25 4.69996C7.25 4.26504 7.58579 3.91247 8 3.91247H12C12.4142 3.91247 12.75 4.26504 12.75 4.69996C12.75 5.13487 12.4142 5.48745 12 5.48745H8C7.58579 5.48745 7.25 5.13487 7.25 4.69996ZM8.25 7.84993C8.25 7.41501 8.5858 7.06243 9 7.06243H11C11.4142 7.06243 11.75 7.41501 11.75 7.84993C11.75 8.28484 11.4142 8.63742 11 8.63742H9C8.5858 8.63742 8.25 8.28484 8.25 7.84993Z" fill="#F71729"/>
</svg>
