<svg width="16" height="16" viewBox="0 0 16 16" fill="none" xmlns="http://www.w3.org/2000/svg">
<path d="M11.1611 10.1231L10.7562 10.5227C10.7562 10.5227 9.79386 11.4725 7.16719 8.8799C4.54055 6.28737 5.50284 5.33757 5.50284 5.33757L5.75777 5.08593C6.38586 4.46604 6.44506 3.47081 5.89706 2.74425L4.77622 1.25801C4.09802 0.358749 2.78752 0.239958 2.01017 1.0072L0.614976 2.38428C0.229536 2.76472 -0.0287571 3.25788 0.00256728 3.80496C0.0827005 5.20456 0.720629 8.21593 4.28031 11.7294C8.05519 15.4552 11.5971 15.6033 13.0456 15.4692C13.5037 15.4269 13.9021 15.1953 14.2232 14.8783L15.4859 13.6321C16.3383 12.7908 16.0979 11.3485 15.0074 10.76L13.3091 9.84361C12.5931 9.45723 11.7207 9.5707 11.1611 10.1231Z" fill="#F71729"/>
</svg>
