<svg width="80" height="80" viewBox="0 0 80 80" fill="none" xmlns="http://www.w3.org/2000/svg">
<rect width="80" height="80" rx="40" fill="#F71729"/>
<path fill-rule="evenodd" clip-rule="evenodd" d="M39.99 26C40.6504 26 41.2838 26.295 41.7508 26.8201C42.2177 27.3452 42.4801 28.0574 42.4801 28.8V42.8C42.4801 43.5426 42.2177 44.2548 41.7508 44.7799C41.2838 45.305 40.6504 45.6 39.99 45.6C39.3296 45.6 38.6963 45.305 38.2293 44.7799C37.7623 44.2548 37.5 43.5426 37.5 42.8V28.8C37.5 28.0574 37.7623 27.3452 38.2293 26.8201C38.6963 26.295 39.3296 26 39.99 26ZM37.5 51.2C37.5 50.4574 37.7623 49.7452 38.2293 49.2201C38.6963 48.695 39.3296 48.4 39.99 48.4H40.01C40.6704 48.4 41.3037 48.695 41.7707 49.2201C42.2377 49.7452 42.5 50.4574 42.5 51.2C42.5 51.9426 42.2377 52.6548 41.7707 53.1799C41.3037 53.705 40.6704 54 40.01 54H39.99C39.3296 54 38.6963 53.705 38.2293 53.1799C37.7623 52.6548 37.5 51.9426 37.5 51.2Z" fill="white"/>
</svg>
