<svg width="19" height="19" viewBox="0 0 19 19" fill="none" xmlns="http://www.w3.org/2000/svg">
<path d="M1.52527 0.800295C1.92566 0.399902 2.57483 0.399902 2.97522 0.800295L18.1997 16.0248C18.6001 16.4252 18.6001 17.0743 18.1997 17.4747L17.4747 18.1997C17.0743 18.6001 16.4252 18.6001 16.0248 18.1997L0.800295 2.97522C0.399902 2.57483 0.399902 1.92566 0.800295 1.52527L1.52527 0.800295Z" fill="#1F1F1F"/>
<path d="M0.800295 17.4747C0.399902 17.0743 0.399902 16.4252 0.800295 16.0248L16.0248 0.800295C16.4252 0.399902 17.0743 0.399902 17.4747 0.800295L18.1997 1.52527C18.6001 1.92566 18.6001 2.57483 18.1997 2.97522L2.97522 18.1997C2.57483 18.6001 1.92566 18.6001 1.52527 18.1997L0.800295 17.4747Z" fill="#1F1F1F"/>
</svg>
