<svg width="80" height="80" viewBox="0 0 80 80" fill="none" xmlns="http://www.w3.org/2000/svg">
<rect width="80" height="80" rx="40" fill="#2BC968"/>
<path d="M35.2599 46.1982L51.7019 29.588C52.0899 29.196 52.5426 29 53.0599 29C53.5773 29 54.03 29.196 54.418 29.588C54.806 29.98 55 30.4458 55 30.9854C55 31.525 54.806 31.9902 54.418 32.3808L36.618 50.412C36.2299 50.804 35.7773 51 35.2599 51C34.7426 51 34.2899 50.804 33.9019 50.412L25.5596 41.9844C25.1716 41.5924 24.9854 41.1273 25.0009 40.589C25.0164 40.0506 25.2188 39.5848 25.6081 39.1915C25.9974 38.7982 26.4585 38.6023 26.9914 38.6036C27.5243 38.6049 27.9847 38.8009 28.3727 39.1915L35.2599 46.1982Z" fill="white"/>
</svg>
