<svg width="12" height="12" viewBox="0 0 12 12" fill="none" xmlns="http://www.w3.org/2000/svg">
<path d="M0.683514 0.200196C0.950442 -0.0667322 1.38322 -0.0667321 1.65015 0.200196L11.7998 10.3499C12.0667 10.6168 12.0667 11.0496 11.7998 11.3165L11.3165 11.7998C11.0496 12.0667 10.6168 12.0667 10.3499 11.7998L0.200196 1.65015C-0.0667322 1.38322 -0.0667321 0.950442 0.200196 0.683513L0.683514 0.200196Z" fill="#F71729"/>
<path d="M0.200196 11.3165C-0.0667322 11.0496 -0.0667321 10.6168 0.200196 10.3499L10.3499 0.200196C10.6168 -0.0667322 11.0496 -0.0667321 11.3165 0.200196L11.7998 0.683514C12.0667 0.950442 12.0667 1.38322 11.7998 1.65015L1.65015 11.7998C1.38322 12.0667 0.950442 12.0667 0.683513 11.7998L0.200196 11.3165Z" fill="#F71729"/>
</svg>
