<svg width="110" height="13" viewBox="0 0 110 13" fill="none" xmlns="http://www.w3.org/2000/svg">
<path d="M6.1601 2.09244H1.9616V9.44486H0V0.209896H8.12172V9.44486H6.1601V2.09244Z" fill="white"/>
<path d="M10.0306 0.213113H11.9922V1.22541C12.3937 0.834697 12.8239 0.532789 13.2827 0.31967C13.7416 0.106557 14.2578 0 14.8313 0C15.4737 0 16.0646 0.124318 16.6037 0.372948C17.1543 0.609743 17.6246 0.947174 18.0146 1.38525C18.4047 1.81147 18.7087 2.32061 18.9266 2.91254C19.1446 3.49272 19.2536 4.12615 19.2536 4.81282C19.2536 5.52321 19.1331 6.1744 18.8922 6.76639C18.6628 7.34652 18.3473 7.84973 17.9458 8.27596C17.5444 8.69034 17.0626 9.01593 16.5005 9.25275C15.9498 9.48951 15.359 9.60792 14.7281 9.60792C14.166 9.60792 13.6613 9.51914 13.2139 9.34153C12.7665 9.16392 12.3593 8.91529 11.9922 8.59565V13H10.0306V0.213113ZM14.4356 7.72541C14.8256 7.72541 15.187 7.6603 15.5196 7.53003C15.8638 7.39982 16.162 7.2104 16.4144 6.96177C16.6668 6.70128 16.8618 6.39345 16.9994 6.03823C17.1486 5.6712 17.2232 5.25682 17.2232 4.7951C17.2232 4.36887 17.16 3.97816 17.0339 3.62294C16.9077 3.2559 16.7241 2.94808 16.4832 2.69945C16.2538 2.43896 15.9785 2.23768 15.6573 2.09565C15.3361 1.95358 14.9805 1.88251 14.5904 1.88251C13.9939 1.88251 13.4663 2.03049 13.0074 2.32651C12.56 2.62248 12.2216 2.9777 11.9922 3.39208V6.19808C12.2216 6.69538 12.5485 7.07422 12.973 7.33471C13.3974 7.5952 13.885 7.72541 14.4356 7.72541Z" fill="white"/>
<path d="M20.2725 4.81282C20.2725 4.11428 20.3872 3.47495 20.6167 2.89483C20.8461 2.30284 21.1731 1.79371 21.5975 1.36749C22.0219 0.941254 22.5267 0.609743 23.1117 0.372948C23.6968 0.124318 24.3449 0 25.0561 0C25.7559 0 26.3983 0.124318 26.9833 0.372948C27.5798 0.609743 28.0903 0.941254 28.5147 1.36749C28.9392 1.79371 29.2661 2.30284 29.4955 2.89483C29.7364 3.47495 29.8569 4.11428 29.8569 4.81282C29.8569 5.5114 29.7364 6.15664 29.4955 6.74862C29.2661 7.3288 28.9392 7.83196 28.5147 8.25819C28.0903 8.68443 27.5798 9.01593 26.9833 9.25275C26.3983 9.48951 25.7559 9.60792 25.0561 9.60792C24.3563 9.60792 23.7139 9.48951 23.1289 9.25275C22.5439 9.01593 22.0391 8.68443 21.6147 8.25819C21.1902 7.83196 20.8576 7.3288 20.6167 6.74862C20.3872 6.15664 20.2725 5.5114 20.2725 4.81282ZM22.303 4.81282C22.303 5.22725 22.3661 5.61205 22.4923 5.96722C22.6299 6.32239 22.8192 6.63022 23.0601 6.8907C23.301 7.15119 23.5878 7.35838 23.9204 7.51232C24.2646 7.65435 24.6431 7.72541 25.0561 7.72541C25.4691 7.72541 25.8419 7.6603 26.1745 7.53003C26.5187 7.38795 26.8112 7.19263 27.0521 6.944C27.293 6.68352 27.4823 6.37569 27.6199 6.02052C27.7576 5.66529 27.8264 5.26272 27.8264 4.81282C27.8264 4.36291 27.7519 3.9604 27.6028 3.60517C27.4651 3.23814 27.2701 2.93031 27.0177 2.68168C26.7653 2.4212 26.4728 2.22587 26.1401 2.09565C25.8075 1.95358 25.4461 1.88251 25.0561 1.88251C24.6661 1.88251 24.299 1.95358 23.9548 2.09565C23.6222 2.22587 23.3297 2.4212 23.0773 2.68168C22.8364 2.93031 22.6471 3.23814 22.5094 3.60517C22.3718 3.9604 22.303 4.36291 22.303 4.81282Z" fill="white"/>
<path d="M30.3811 7.56235H31.417C31.8198 7.02956 32.0903 6.41981 32.2285 5.73314C32.3666 5.04642 32.4356 4.27091 32.4356 3.40663V0.209896H39.6524V7.56235H40.9127V11.5583H39.0827V9.44486H32.2112V11.5583H30.3811V7.56235ZM37.6842 7.56235V2.09244H34.3002V4.45443C34.3002 5.02274 34.2254 5.59106 34.0758 6.15932C33.9262 6.71583 33.719 7.18351 33.4543 7.56235H37.6842Z" fill="white"/>
<path d="M41.312 4.81282C41.312 4.11428 41.4271 3.47495 41.6573 2.89483C41.8875 2.30284 42.2155 1.79371 42.6414 1.36749C43.0672 0.941254 43.5737 0.609743 44.1607 0.372948C44.7477 0.124318 45.398 0 46.1117 0C46.8137 0 47.4583 0.124318 48.0453 0.372948C48.6439 0.609743 49.1561 0.941254 49.5819 1.36749C50.0078 1.79371 50.3358 2.30284 50.566 2.89483C50.8077 3.47495 50.9286 4.11428 50.9286 4.81282C50.9286 5.5114 50.8077 6.15664 50.566 6.74862C50.3358 7.3288 50.0078 7.83196 49.5819 8.25819C49.1561 8.68443 48.6439 9.01593 48.0453 9.25275C47.4583 9.48951 46.8137 9.60792 46.1117 9.60792C45.4096 9.60792 44.765 9.48951 44.178 9.25275C43.591 9.01593 43.0845 8.68443 42.6587 8.25819C42.2328 7.83196 41.899 7.3288 41.6573 6.74862C41.4271 6.15664 41.312 5.5114 41.312 4.81282ZM43.3493 4.81282C43.3493 5.22725 43.4125 5.61205 43.5391 5.96722C43.6773 6.32239 43.8672 6.63022 44.1089 6.8907C44.3506 7.15119 44.6384 7.35838 44.9722 7.51232C45.3175 7.65435 45.6973 7.72541 46.1117 7.72541C46.526 7.72541 46.9001 7.6603 47.2339 7.53003C47.5792 7.38795 47.8727 7.19263 48.1144 6.944C48.3561 6.68352 48.546 6.37569 48.6842 6.02052C48.8222 5.66529 48.8913 5.26272 48.8913 4.81282C48.8913 4.36291 48.8165 3.9604 48.6669 3.60517C48.5287 3.23814 48.3331 2.93031 48.0798 2.68168C47.8266 2.4212 47.5331 2.22587 47.1994 2.09565C46.8655 1.95358 46.503 1.88251 46.1117 1.88251C45.7203 1.88251 45.352 1.95358 45.0067 2.09565C44.6729 2.22587 44.3794 2.4212 44.1262 2.68168C43.8845 2.93031 43.6946 3.23814 43.5564 3.60517C43.4183 3.9604 43.3493 4.36291 43.3493 4.81282Z" fill="white"/>
<path d="M52.1466 0.209896H54.1148V3.95718L57.9993 0.209896H60.5718L56.2037 4.38342L60.7273 9.44486H58.2068L54.7711 5.64431L54.1148 6.3014V9.44486H52.1466V0.209896Z" fill="white"/>
<path d="M61.3488 0.209896H69.8088V2.09244H66.5628V9.44486H64.5948V2.09244H61.3488V0.209896Z" fill="white"/>
<path d="M70.2387 4.81282C70.2387 4.11428 70.3539 3.47495 70.5844 2.89483C70.8143 2.30284 71.1422 1.79371 71.5681 1.36749C71.9939 0.941254 72.5005 0.609743 73.0877 0.372948C73.6743 0.124318 74.3249 0 75.0383 0C75.7408 0 76.385 0.124318 76.9722 0.372948C77.5709 0.609743 78.0827 0.941254 78.5086 1.36749C78.9344 1.79371 79.2628 2.30284 79.4928 2.89483C79.7348 3.47495 79.8553 4.11428 79.8553 4.81282C79.8553 5.5114 79.7348 6.15664 79.4928 6.74862C79.2628 7.3288 78.9344 7.83196 78.5086 8.25819C78.0827 8.68443 77.5709 9.01593 76.9722 9.25275C76.385 9.48951 75.7408 9.60792 75.0383 9.60792C74.3364 9.60792 73.6916 9.48951 73.1049 9.25275C72.5177 9.01593 72.0112 8.68443 71.5854 8.25819C71.1595 7.83196 70.8258 7.3288 70.5844 6.74862C70.3539 6.15664 70.2387 5.5114 70.2387 4.81282ZM72.2763 4.81282C72.2763 5.22725 72.3397 5.61205 72.4659 5.96722C72.6042 6.32239 72.7938 6.63022 73.0358 6.8907C73.2773 7.15119 73.5654 7.35838 73.899 7.51232C74.2442 7.65435 74.624 7.72541 75.0383 7.72541C75.4527 7.72541 75.8272 7.6603 76.1608 7.53003C76.506 7.38795 76.7994 7.19263 77.0414 6.944C77.2828 6.68352 77.473 6.37569 77.6107 6.02052C77.749 5.66529 77.8182 5.26272 77.8182 4.81282C77.8182 4.36291 77.7433 3.9604 77.5935 3.60517C77.4557 3.23814 77.2598 2.93031 77.0068 2.68168C76.7533 2.4212 76.4599 2.22587 76.1263 2.09565C75.7926 1.95358 75.4296 1.88251 75.0383 1.88251C74.647 1.88251 74.2788 1.95358 73.9336 2.09565C73.5999 2.22587 73.3061 2.4212 73.0531 2.68168C72.8111 2.93031 72.6215 3.23814 72.4832 3.60517C72.3454 3.9604 72.2763 4.36291 72.2763 4.81282Z" fill="white"/>
<path d="M81.0582 0.213113H83.0261V1.22541C83.429 0.834697 83.8606 0.532789 84.321 0.31967C84.7814 0.106557 85.2995 0 85.8751 0C86.5194 0 87.1124 0.124318 87.6535 0.372948C88.2056 0.609743 88.6775 0.947174 89.0688 1.38525C89.4601 1.81147 89.7655 2.32061 89.9839 2.91254C90.2029 3.49272 90.3118 4.12615 90.3118 4.81282C90.3118 5.52321 90.1913 6.1744 89.9493 6.76639C89.7194 7.34652 89.403 7.84973 88.9997 8.27596C88.5969 8.69034 88.1134 9.01593 87.5498 9.25275C86.9971 9.48951 86.4042 9.60792 85.7714 9.60792C85.2073 9.60792 84.7008 9.51914 84.2519 9.34153C83.8029 9.16392 83.3944 8.91529 83.0261 8.59565V13H81.0582V0.213113ZM85.4781 7.72541C85.8694 7.72541 86.2319 7.6603 86.5655 7.53003C86.9107 7.39982 87.2103 7.2104 87.4633 6.96177C87.7163 6.70128 87.9122 6.39345 88.0505 6.03823C88.1998 5.6712 88.2747 5.25682 88.2747 4.7951C88.2747 4.36887 88.2113 3.97816 88.0851 3.62294C87.9583 3.2559 87.7739 2.94808 87.5325 2.69945C87.302 2.43896 87.0259 2.23768 86.7038 2.09565C86.3811 1.95358 86.0244 1.88251 85.6331 1.88251C85.035 1.88251 84.5054 2.03049 84.045 2.32651C83.596 2.62248 83.2566 2.9777 83.0261 3.39208V6.19808C83.2566 6.69538 83.5845 7.07422 84.0104 7.33471C84.4362 7.5952 84.9255 7.72541 85.4781 7.72541Z" fill="white"/>
<path d="M91.2876 4.81282C91.2876 4.11428 91.4028 3.47495 91.6328 2.89483C91.8633 2.30284 92.1912 1.79371 92.617 1.36749C93.0429 0.941254 93.5494 0.609743 94.1361 0.372948C94.7233 0.124318 95.3738 0 96.0873 0C96.7892 0 97.434 0.124318 98.0212 0.372948C98.6194 0.609743 99.1317 0.941254 99.5575 1.36749C99.9834 1.79371 100.311 2.30284 100.542 2.89483C100.783 3.47495 100.904 4.11428 100.904 4.81282C100.904 5.5114 100.783 6.15664 100.542 6.74862C100.311 7.3288 99.9834 7.83196 99.5575 8.25819C99.1317 8.68443 98.6194 9.01593 98.0212 9.25275C97.434 9.48951 96.7892 9.60792 96.0873 9.60792C95.3854 9.60792 94.7406 9.48951 94.1534 9.25275C93.5667 9.01593 93.0602 8.68443 92.6343 8.25819C92.2085 7.83196 91.8748 7.3288 91.6328 6.74862C91.4028 6.15664 91.2876 5.5114 91.2876 4.81282ZM93.3247 4.81282C93.3247 5.22725 93.3881 5.61205 93.5148 5.96722C93.6531 6.32239 93.8428 6.63022 94.0848 6.8907C94.3262 7.15119 94.6138 7.35838 94.948 7.51232C95.2932 7.65435 95.6729 7.72541 96.0873 7.72541C96.5016 7.72541 96.8756 7.6603 97.2093 7.53003C97.555 7.38795 97.8483 7.19263 98.0898 6.944C98.3318 6.68352 98.5214 6.37569 98.6597 6.02052C98.798 5.66529 98.8671 5.26272 98.8671 4.81282C98.8671 4.36291 98.7922 3.9604 98.6424 3.60517C98.5041 3.23814 98.3087 2.93031 98.0552 2.68168C97.8022 2.4212 97.5089 2.22587 97.1747 2.09565C96.841 1.95358 96.4786 1.88251 96.0873 1.88251C95.696 1.88251 95.3277 1.95358 94.9826 2.09565C94.6484 2.22587 94.355 2.4212 94.102 2.68168C93.86 2.93031 93.6704 3.23814 93.5321 3.60517C93.3938 3.9604 93.3247 4.36291 93.3247 4.81282Z" fill="white"/>
<path d="M102.127 0.209896H105.96C107.214 0.209896 108.158 0.393413 108.792 0.760446C109.424 1.12747 109.741 1.7609 109.741 2.6607C109.741 3.08694 109.649 3.44807 109.465 3.74403C109.281 4.04005 109.039 4.30645 108.74 4.54321C109.166 4.70901 109.482 4.98721 109.689 5.37792C109.896 5.75681 110 6.19486 110 6.69216C110 7.61565 109.684 8.30828 109.05 8.76999C108.418 9.2199 107.526 9.44486 106.374 9.44486H102.127V0.209896ZM104.096 5.62654V7.61565H106.185C106.771 7.61565 107.214 7.53868 107.514 7.38474C107.813 7.23085 107.963 6.98222 107.963 6.63886C107.963 6.27183 107.819 6.01134 107.531 5.85745C107.255 5.70351 106.823 5.62654 106.236 5.62654H104.096ZM104.096 2.03914V3.86835H106.409C106.812 3.86835 107.128 3.79143 107.358 3.63749C107.589 3.4836 107.704 3.24678 107.704 2.92709C107.704 2.54825 107.549 2.30553 107.237 2.19898C106.938 2.09244 106.495 2.03914 105.908 2.03914H104.096Z" fill="white"/>
</svg>
