<svg width="22" height="23" viewBox="0 0 22 23" fill="none" xmlns="http://www.w3.org/2000/svg">
<path d="M17.3615 16.3302L22 20.9676L20.4676 22.5L15.8302 17.8615C14.1047 19.2448 11.9585 19.9971 9.74697 19.9939C4.36664 19.9939 0 15.6273 0 10.247C0 4.86664 4.36664 0.5 9.74697 0.5C15.1273 0.5 19.4939 4.86664 19.4939 10.247C19.4971 12.4585 18.7448 14.6047 17.3615 16.3302ZM15.189 15.5266C16.5632 14.113 17.3307 12.2184 17.328 10.247C17.328 6.05902 13.9349 2.66599 9.74697 2.66599C5.55902 2.66599 2.16599 6.05902 2.16599 10.247C2.16599 14.4349 5.55902 17.828 9.74697 17.828C11.7184 17.8307 13.613 17.0632 15.0266 15.689L15.189 15.5266Z" fill="#1F1F1F" fill-opacity="0.2"/>
</svg>
