<svg width="12" height="14" viewBox="0 0 12 14" fill="none" xmlns="http://www.w3.org/2000/svg">
<path d="M12 9.04133C12 12.1561 10.0364 13.5228 8.5191 13.9837C8.19555 14.082 7.98285 13.7138 8.17642 13.4423C8.83673 12.516 9.6 11.1029 9.6 9.77343C9.6 8.34539 8.36692 6.65943 7.40407 5.61955C7.18395 5.38184 6.80003 5.53909 6.78803 5.85939C6.7482 6.92035 6.57667 8.33983 5.8371 9.45233C5.71807 9.6314 5.4654 9.64619 5.32973 9.47876C5.09865 9.19346 4.86758 8.8411 4.6365 8.56268C4.512 8.41274 4.28703 8.41069 4.14346 8.54335C3.58369 9.06073 2.8 9.86758 2.8 10.8716C2.8 11.5524 3.0702 12.2661 3.37505 12.8403C3.54276 13.1562 3.24455 13.5364 2.9218 13.3711C1.5848 12.6862 0 11.2988 0 9.04133C0 6.73784 3.23272 3.54677 4.46704 0.532041C4.66178 0.0563281 5.26207 -0.167212 5.67952 0.143229C8.20792 2.02331 12 5.65762 12 9.04133Z" fill="#F71729"/>
</svg>
