<svg width="28" height="28" viewBox="0 0 28 28" fill="none" xmlns="http://www.w3.org/2000/svg">
<path fill-rule="evenodd" clip-rule="evenodd" d="M25.7767 11.0048C25.7002 10.9999 25.6169 11 25.5307 11H22.1241C19.334 11 16.9466 13.2135 16.9466 16.1C16.9466 18.9865 19.334 21.2001 22.1241 21.2001H25.5307C25.6169 21.2001 25.7002 21.2001 25.7767 21.1952C26.91 21.1231 27.9122 20.2293 27.9965 18.9808C28.0021 18.8989 28.002 18.8107 28.002 18.7289V13.4711C28.002 13.3893 28.0021 13.3011 27.9965 13.2192C27.9122 11.9708 26.91 11.0769 25.7767 11.0048ZM21.824 17.46C22.5422 17.46 23.1246 16.8511 23.1246 16.1C23.1246 15.3489 22.5422 14.74 21.824 14.74C21.1057 14.74 20.5233 15.3489 20.5233 16.1C20.5233 16.8511 21.1057 17.46 21.824 17.46Z" fill="white"/>
<path fill-rule="evenodd" clip-rule="evenodd" d="M25.5297 23.24C25.7309 23.2348 25.8832 23.4226 25.8286 23.6179C25.5577 24.5868 25.1278 25.4125 24.4378 26.1079C23.428 27.1257 22.1476 27.5773 20.5654 27.7917C19.0282 28 17.064 28 14.5841 28H11.7331C9.2532 28 7.28897 28 5.75171 27.7917C4.16964 27.5773 2.88913 27.1257 1.8793 26.1079C0.86945 25.0901 0.421296 23.7996 0.208594 22.2051C0.00191167 20.6557 0.00193977 18.6761 0.00195377 16.1767V16.0233C0.00192577 13.5239 0.00191167 11.5443 0.208594 9.99494C0.421296 8.40043 0.86945 7.10987 1.8793 6.09208C2.88913 5.07431 4.16964 4.62263 5.75171 4.40826C7.28895 4.19995 9.25318 4.19998 11.7331 4.2H14.5841C17.064 4.19997 19.0282 4.19995 20.5654 4.40826C22.1476 4.62263 23.428 5.07431 24.4378 6.09208C25.1278 6.78744 25.5577 7.61325 25.8286 8.58217C25.8832 8.77742 25.7309 8.96526 25.5297 8.96L22.1241 8.96001C18.2962 8.96001 14.9225 12.0077 14.9225 16.1C14.9225 20.1923 18.2962 23.24 22.1241 23.24H25.5297ZM5.0622 9.64001C4.50326 9.64001 4.05015 10.0967 4.05015 10.66C4.05015 11.2234 4.50326 11.6801 5.0622 11.6801H10.4598C11.0187 11.6801 11.4719 11.2234 11.4719 10.66C11.4719 10.0967 11.0187 9.64001 10.4598 9.64001H5.0622Z" fill="white"/>
<path d="M8.08931 2.83414L10.8316 0.813761C12.3043 -0.271254 14.2996 -0.271254 15.7723 0.813761L18.529 2.84476C17.3764 2.79993 16.0892 2.79997 14.678 2.8H11.6392C10.3497 2.79997 9.16369 2.79994 8.08931 2.83414Z" fill="white"/>
</svg>
