<svg width="28" height="28" viewBox="0 0 28 28" fill="none" xmlns="http://www.w3.org/2000/svg">
<path d="M8.05 1.03704C8.05 0.464302 7.57989 0 7 0C6.42011 0 5.95 0.464302 5.95 1.03704V3.2207C3.93494 3.38006 2.61208 3.77118 1.6402 4.73106C0.668318 5.69094 0.272314 6.99747 0.110964 8.98765H27.889C27.7277 6.99747 27.3316 5.69094 26.3598 4.73106C25.3879 3.77118 24.065 3.38006 22.05 3.2207V1.03704C22.05 0.464302 21.5799 0 21 0C20.4201 0 19.95 0.464302 19.95 1.03704V3.12895C19.0186 3.11111 17.9746 3.11111 16.8 3.11111H11.2C10.0254 3.11111 8.98138 3.11111 8.05 3.12895V1.03704Z" fill="white"/>
<path fill-rule="evenodd" clip-rule="evenodd" d="M0 14.1728C0 13.0127 1.58966e-07 11.9816 0.0180602 11.0617H27.9819C28 11.9816 28 13.0127 28 14.1728V16.9383C28 22.1528 28 24.7602 26.3598 26.38C24.7197 28 22.0797 28 16.8 28H11.2C5.92026 28 3.28041 28 1.6402 26.38C1.60217e-07 24.7602 0 22.1528 0 16.9383V14.1728ZM21 16.9383C21.7732 16.9383 22.4 16.3192 22.4 15.5556C22.4 14.7919 21.7732 14.1728 21 14.1728C20.2268 14.1728 19.6 14.7919 19.6 15.5556C19.6 16.3192 20.2268 16.9383 21 16.9383ZM21 22.4691C21.7732 22.4691 22.4 21.8501 22.4 21.0864C22.4 20.3227 21.7732 19.7037 21 19.7037C20.2268 19.7037 19.6 20.3227 19.6 21.0864C19.6 21.8501 20.2268 22.4691 21 22.4691ZM15.4 15.5556C15.4 16.3192 14.7732 16.9383 14 16.9383C13.2268 16.9383 12.6 16.3192 12.6 15.5556C12.6 14.7919 13.2268 14.1728 14 14.1728C14.7732 14.1728 15.4 14.7919 15.4 15.5556ZM15.4 21.0864C15.4 21.8501 14.7732 22.4691 14 22.4691C13.2268 22.4691 12.6 21.8501 12.6 21.0864C12.6 20.3227 13.2268 19.7037 14 19.7037C14.7732 19.7037 15.4 20.3227 15.4 21.0864ZM7 16.9383C7.77319 16.9383 8.4 16.3192 8.4 15.5556C8.4 14.7919 7.77319 14.1728 7 14.1728C6.22681 14.1728 5.6 14.7919 5.6 15.5556C5.6 16.3192 6.22681 16.9383 7 16.9383ZM7 22.4691C7.77319 22.4691 8.4 21.8501 8.4 21.0864C8.4 20.3227 7.77319 19.7037 7 19.7037C6.22681 19.7037 5.6 20.3227 5.6 21.0864C5.6 21.8501 6.22681 22.4691 7 22.4691Z" fill="white"/>
</svg>
