<svg width="28" height="22" viewBox="0 0 28 22" fill="none" xmlns="http://www.w3.org/2000/svg">
<path fill-rule="evenodd" clip-rule="evenodd" d="M11.201 22H16.801C22.0807 22 24.7206 22 26.3607 20.389C28.001 18.7782 28.001 16.1854 28.001 11V10.9987C28.001 10.3916 28.001 9.81986 27.9983 9.28125H0.00362248C0.000976484 9.82025 0.000976563 10.3924 0.000976563 11C0.000976563 16.1854 0.000976682 18.7782 1.64117 20.389C3.28139 22 5.92124 22 11.201 22ZM13.651 16.5C13.651 15.9305 14.1211 15.4688 14.701 15.4688H16.801C17.3809 15.4688 17.851 15.9305 17.851 16.5C17.851 17.0695 17.3809 17.5312 16.801 17.5312H14.701C14.1211 17.5312 13.651 17.0695 13.651 16.5ZM5.60098 15.4688C5.02108 15.4688 4.55098 15.9305 4.55098 16.5C4.55098 17.0695 5.02108 17.5312 5.60098 17.5312H11.201C11.7809 17.5312 12.251 17.0695 12.251 16.5C12.251 15.9305 11.7809 15.4688 11.201 15.4688H5.60098Z" fill="white"/>
<path d="M16.801 0H11.201C5.92124 0 3.28139 -1.19209e-07 1.64117 1.61091C0.460219 2.77078 0.129566 4.43963 0.0369844 7.21875H27.965C27.8725 4.43963 27.5418 2.77078 26.3607 1.61091C24.7206 -1.19209e-07 22.0807 0 16.801 0Z" fill="white"/>
</svg>
