<svg width="20" height="26" viewBox="0 0 20 26" fill="none" xmlns="http://www.w3.org/2000/svg">
<path d="M-0.000976562 5.65933L2.98663 11.2873V14.7201L0.00251843 20.337L-0.000976562 5.65933Z" fill="white"/>
<path d="M11.4702 9.23932L14.2697 7.43102L19.999 7.42538L11.4702 12.9318V9.23932Z" fill="white"/>
<path d="M11.4544 5.62618L11.4702 13.0773L8.47562 11.1382V0L11.4544 5.62618Z" fill="white"/>
<path d="M19.999 7.42538L14.2697 7.43102L11.4544 5.62618L8.47562 0L19.999 7.42538Z" fill="white"/>
<path d="M11.4702 20.3682V16.7531L8.47562 14.8508L8.47726 26L11.4702 20.3682Z" fill="white"/>
<path d="M14.2627 18.5764L2.98663 11.2873L-0.000976562 5.65933L19.9869 18.569L14.2627 18.5764Z" fill="white"/>
<path d="M8.47726 26L11.4702 20.3682L14.2627 18.5764L19.9869 18.569L8.47726 26Z" fill="white"/>
<path d="M0.00251843 20.337L8.50008 14.851L5.64323 13.0037L2.98663 14.7201L0.00251843 20.337Z" fill="white"/>
</svg>
