<svg width="28" height="23" viewBox="0 0 28 23" fill="none" xmlns="http://www.w3.org/2000/svg">
<path d="M10.7952 0H16.1928C21.2816 0 23.8262 -1.57143e-07 25.407 1.60872C26.5454 2.76702 26.8641 4.4336 26.9533 7.20896H0.0347064C0.123942 4.4336 0.442643 2.76702 1.58092 1.60872C3.16184 -1.57143e-07 5.70629 0 10.7952 0Z" fill="white"/>
<path fill-rule="evenodd" clip-rule="evenodd" d="M26.9873 12.1076L26.4361 11.5467C25.2504 10.3401 23.328 10.3401 22.1423 11.5467L21.0609 12.6471C20.6293 11.4757 19.5188 10.6418 18.2169 10.6418C16.5401 10.6418 15.1807 12.0251 15.1807 13.7313V16.1533C14.5197 16.2281 13.8782 16.5235 13.3712 17.0392C12.1855 18.2458 12.1855 20.202 13.3712 21.4085L13.9231 21.9701H10.7952C5.70629 21.9701 3.16184 21.9701 1.58092 20.3614C1.54426e-07 18.7528 0 16.1634 0 10.9851C0 10.3783 -7.54036e-08 9.80693 0.00255029 9.26866H26.9854C26.988 9.80693 26.988 10.3783 26.988 10.9851C26.988 11.3737 26.988 11.7476 26.9873 12.1076ZM5.3976 15.4478C4.83866 15.4478 4.38555 15.9089 4.38555 16.4776C4.38555 17.0464 4.83866 17.5075 5.3976 17.5075H10.7952C11.3541 17.5075 11.8072 17.0464 11.8072 16.4776C11.8072 15.9089 11.3541 15.4478 10.7952 15.4478H5.3976Z" fill="white"/>
<path fill-rule="evenodd" clip-rule="evenodd" d="M18.2169 12.7015C18.7758 12.7015 19.2289 13.1626 19.2289 13.7313V19.4838L20.2001 18.4957C20.5953 18.0935 21.236 18.0935 21.6313 18.4957C22.0265 18.8979 22.0265 19.5499 21.6313 19.9521L18.9325 22.6983C18.5372 23.1005 17.8965 23.1005 17.5013 22.6983L14.8025 19.9521C14.4073 19.5499 14.4073 18.8979 14.8025 18.4957C15.1977 18.0935 15.8384 18.0935 16.2337 18.4957L17.2048 19.4838V13.7313C17.2048 13.1626 17.658 12.7015 18.2169 12.7015ZM23.5736 13.0032C23.9688 12.601 24.6095 12.601 25.0048 13.0032L27.7036 15.7494C28.0988 16.1516 28.0988 16.8036 27.7036 17.2058C27.3083 17.608 26.6676 17.608 26.2724 17.2058L25.3012 16.2177V21.9701C25.3012 22.5389 24.8481 23 24.2892 23C23.7303 23 23.2771 22.5389 23.2771 21.9701V16.2177L22.306 17.2058C21.9107 17.608 21.27 17.608 20.8748 17.2058C20.4796 16.8036 20.4796 16.1516 20.8748 15.7494L23.5736 13.0032Z" fill="white"/>
</svg>
