<svg width="28" height="28" viewBox="0 0 28 28" fill="none" xmlns="http://www.w3.org/2000/svg">
<path fill-rule="evenodd" clip-rule="evenodd" d="M20.3329 4.57657e-07H20.4285C21.6658 -1.35423e-05 22.6636 -1.36535e-05 23.4669 0.0763563C24.2953 0.15512 25.017 0.321944 25.6661 0.71967C26.3232 1.12235 26.8757 1.67485 27.2784 2.33198C27.676 2.98101 27.8429 3.70275 27.9217 4.53114C27.998 5.33442 27.998 6.33226 27.998 7.56956V7.66524C27.998 8.47822 27.998 9.15667 27.9457 9.70774C27.8909 10.2838 27.7721 10.8207 27.4702 11.3131C27.175 11.795 26.7698 12.2002 26.2879 12.4956C25.7954 12.7973 25.2587 12.9161 24.6826 12.9709C24.1315 13.0234 23.4529 13.0232 22.64 13.0232H21.0931C19.923 13.0234 18.9473 13.0234 18.1727 12.9192C17.3551 12.8093 16.6169 12.5675 16.0237 11.9743C15.4305 11.3812 15.1887 10.643 15.0788 9.82537C14.9747 9.05078 14.9747 8.07505 14.9748 6.90493V5.35815C14.9748 4.54516 14.9747 3.86659 15.0272 3.31552C15.0819 2.73944 15.2008 2.20255 15.5025 1.71013C15.7979 1.22823 16.203 0.82306 16.6849 0.527758C17.1773 0.225989 17.7142 0.107142 18.2903 0.0523605C18.8413 -2.75323e-05 19.5199 -1.35423e-05 20.3329 4.57657e-07ZM21.4864 8.13953C20.8152 8.13953 20.4796 8.13953 20.2426 7.97139C20.159 7.91207 20.0859 7.83906 20.0266 7.75544C19.8584 7.51848 19.8584 7.18285 19.8584 6.51164C19.8584 5.84042 19.8584 5.50479 20.0266 5.26782C20.0859 5.1842 20.159 5.11119 20.2426 5.05186C20.4796 4.88372 20.8152 4.88372 21.4864 4.88372C22.1577 4.88372 22.4932 4.88372 22.7303 5.05186C22.8139 5.11119 22.8868 5.1842 22.9461 5.26782C23.1143 5.50479 23.1143 5.84039 23.1143 6.51162C23.1143 7.18285 23.1143 7.51848 22.9461 7.75544C22.8868 7.83906 22.8139 7.91207 22.7303 7.97139C22.4932 8.13953 22.1577 8.13953 21.4864 8.13953Z" fill="white"/>
<path fill-rule="evenodd" clip-rule="evenodd" d="M11.3112 0.527758C10.8187 0.225989 10.2819 0.107142 9.70579 0.0523605C9.15471 -2.75323e-05 8.47621 -1.35423e-05 7.66319 4.57657e-07H7.56762C6.33034 -1.35423e-05 5.33245 -1.36535e-05 4.52919 0.0763563C3.70079 0.15512 2.97905 0.321944 2.33003 0.71967C1.6729 1.12235 1.1204 1.67485 0.717717 2.33198C0.319991 2.98101 0.153167 3.70275 0.0744032 4.53114C-0.00196678 5.33441 -0.00196667 6.33223 -0.00195267 7.56951V7.66508C-0.00196667 8.47811 -0.00198066 9.15666 0.0504073 9.70774C0.105189 10.2838 0.224035 10.8207 0.525805 11.3131C0.821107 11.795 1.22628 12.2002 1.70818 12.4956C2.2006 12.7973 2.73748 12.9161 3.31357 12.9709C3.86461 13.0234 4.54305 13.0232 5.356 13.0232H6.90297C8.07306 13.0234 9.04882 13.0234 9.82341 12.9192C10.641 12.8093 11.3792 12.5675 11.9724 11.9743C12.5656 11.3812 12.8073 10.643 12.9172 9.82537C13.0214 9.05078 13.0214 8.07506 13.0213 6.90497V5.35816C13.0213 4.54521 13.0214 3.86656 12.9689 3.31552C12.9142 2.73944 12.7953 2.20255 12.4936 1.71013C12.1982 1.22823 11.793 0.82306 11.3112 0.527758ZM5.26587 7.97139C5.50283 8.13953 5.83844 8.13953 6.50967 8.13953C7.1809 8.13953 7.51652 8.13953 7.75349 7.97139C7.83711 7.91207 7.91012 7.83906 7.96944 7.75544C8.13758 7.51848 8.13758 7.18285 8.13758 6.51162C8.13758 5.84039 8.13758 5.50479 7.96944 5.26782C7.91012 5.1842 7.83711 5.11119 7.75349 5.05186C7.51652 4.88372 7.1809 4.88372 6.50967 4.88372C5.83844 4.88372 5.50283 4.88372 5.26587 5.05186C5.18225 5.11119 5.10924 5.1842 5.0499 5.26782C4.88176 5.50479 4.88176 5.84039 4.88176 6.51162C4.88176 7.18285 4.88176 7.51848 5.0499 7.75544C5.10924 7.83906 5.18225 7.91207 5.26587 7.97139Z" fill="white"/>
<path fill-rule="evenodd" clip-rule="evenodd" d="M9.82341 15.0808C10.641 15.1907 11.3792 15.4325 11.9724 16.0257C12.5656 16.6188 12.8073 17.3571 12.9172 18.1747C13.0214 18.9493 13.0214 19.9249 13.0213 21.0951V22.6419C13.0213 23.4549 13.0214 24.1335 12.9689 24.6845C12.9142 25.2606 12.7953 25.7974 12.4936 26.2899C12.1982 26.7718 11.793 27.1769 11.3112 27.4722C10.8187 27.774 10.2819 27.8929 9.70579 27.9476C9.15472 28 8.47613 28 7.66315 28H7.56761C6.3303 28 5.33247 28 4.52919 27.9237C3.70079 27.8449 2.97905 27.678 2.33003 27.2804C1.6729 26.8776 1.1204 26.3252 0.717717 25.668C0.319991 25.019 0.153167 24.2973 0.0744032 23.4689C-0.00196678 22.6656 -0.00196667 21.6678 -0.00195267 20.4305V20.3349C-0.00196667 19.5219 -0.00198066 18.8433 0.0504073 18.2923C0.105189 17.7162 0.224035 17.1793 0.525805 16.6869C0.821107 16.205 1.22628 15.7998 1.70818 15.5044C2.2006 15.2027 2.73748 15.0839 3.31357 15.0291C3.86462 14.9766 4.54312 14.9768 5.35608 14.9768H6.90297C8.07309 14.9766 9.04882 14.9766 9.82341 15.0808ZM6.50967 23.1162C5.83844 23.1162 5.50283 23.1162 5.26587 22.9481C5.18225 22.8887 5.10924 22.8158 5.0499 22.7322C4.88176 22.4952 4.88176 22.1596 4.88176 21.4883C4.88176 20.8172 4.88176 20.4816 5.0499 20.2446C5.10924 20.161 5.18225 20.0879 5.26587 20.0285C5.50283 19.8604 5.83844 19.8604 6.50966 19.8604C7.18087 19.8604 7.51652 19.8604 7.75349 20.0285C7.83711 20.0879 7.91012 20.161 7.96944 20.2446C8.13758 20.4816 8.13758 20.8172 8.13758 21.4883C8.13758 22.1596 8.13758 22.4952 7.96944 22.7322C7.91012 22.8158 7.83711 22.8887 7.75349 22.9481C7.51652 23.1162 7.1809 23.1162 6.50967 23.1162Z" fill="white"/>
<path d="M14.9748 20.4617V20.5117H16.9282C16.9282 19.5768 16.9295 18.9491 16.9781 18.4706C17.0251 18.0085 17.1083 17.795 17.2026 17.6537C17.3214 17.4759 17.474 17.3233 17.6518 17.2046C17.793 17.1102 18.0065 17.0271 18.4687 16.98C18.9472 16.9315 19.5748 16.9302 20.5097 16.9302H23.1143V14.9768H20.4597C19.5877 14.9768 18.8601 14.9766 18.271 15.0366C17.6544 15.0994 17.0822 15.2358 16.5665 15.5803C16.1755 15.8416 15.8396 16.1774 15.5784 16.5684C15.2338 17.0842 15.0975 17.6564 15.0346 18.2729C14.9747 18.8621 14.9748 19.5896 14.9748 20.4617Z" fill="white"/>
<path d="M27.998 23.1491V23.1162H26.0445C26.0445 23.7364 26.0441 24.1527 26.0221 24.4749C26.0007 24.7884 25.9623 24.9411 25.9206 25.0415C25.7554 25.4405 25.4386 25.7573 25.0396 25.9225C24.9392 25.9643 24.7864 26.0026 24.473 26.024C24.1507 26.046 23.7345 26.0464 23.1143 26.0464H20.5097V28H23.1472C23.7261 28 24.2092 28 24.606 27.973C25.019 27.9448 25.409 27.8841 25.7872 27.7274C26.6647 27.3638 27.3619 26.6666 27.7255 25.7891C27.8821 25.411 27.9429 25.0209 27.971 24.6079C27.998 24.2112 27.998 23.728 27.998 23.1491Z" fill="white"/>
<path d="M16.9282 27.0232C16.9282 27.5626 16.491 28 15.9515 28C15.412 28 14.9748 27.5626 14.9748 27.0232V23.1162H16.9282V27.0232Z" fill="white"/>
<path d="M27.0213 14.9768C26.4818 14.9768 26.0445 15.414 26.0445 15.9534V20.5117H27.998V15.9534C27.998 15.414 27.5607 14.9768 27.0213 14.9768Z" fill="white"/>
<path d="M19.7046 20.4642C19.598 20.7215 19.598 21.0477 19.598 21.7C19.598 22.3523 19.598 22.6785 19.7046 22.9358C19.8467 23.2788 20.1193 23.5514 20.4623 23.6935C20.7196 23.8 21.0458 23.8 21.698 23.8C22.3503 23.8 22.6765 23.8 22.9338 23.6935C23.2768 23.5514 23.5494 23.2788 23.6915 22.9358C23.798 22.6785 23.798 22.3523 23.798 21.7C23.798 21.0477 23.798 20.7215 23.6915 20.4642C23.5494 20.1212 23.2768 19.8486 22.9338 19.7065C22.6765 19.6 22.3503 19.6 21.698 19.6C21.0458 19.6 20.7196 19.6 20.4623 19.7065C20.1193 19.8486 19.8467 20.1212 19.7046 20.4642Z" fill="white"/>
</svg>
