<svg width="24" height="22" viewBox="0 0 24 22" fill="none" xmlns="http://www.w3.org/2000/svg">
<path d="M16.7416 14.1139L16.1342 14.6999C16.1342 14.6999 14.6908 16.093 10.7508 12.2905C6.81082 8.48815 8.25426 7.09511 8.25426 7.09511L8.63666 6.72604C9.57879 5.81686 9.66759 4.35719 8.84559 3.29157L7.16434 1.11175C6.14703 -0.207167 4.18127 -0.381395 3.01526 0.743895L0.922463 2.76362C0.344304 3.32159 -0.0431357 4.04489 0.00385093 4.84727C0.124051 6.90002 1.08094 11.3167 6.42047 16.4698C12.0828 21.9343 17.3957 22.1515 19.5684 21.9549C20.2556 21.8928 20.8532 21.5531 21.3348 21.0882L23.2289 19.2604C24.5074 18.0265 24.1469 15.9111 22.511 15.048L19.9637 13.704C18.8896 13.1373 17.581 13.3037 16.7416 14.1139Z" fill="#F71729"/>
</svg>
