<svg width="22" height="22" viewBox="0 0 22 22" fill="none" xmlns="http://www.w3.org/2000/svg">
<path fill-rule="evenodd" clip-rule="evenodd" d="M0.57112 6.40501C6.29425e-08 7.44841 0 8.70704 0 11.2243V12.8975C0 17.1884 1.25885e-07 19.3339 1.28873 20.6669C2.57747 22 4.65164 22 8.8 22H13.2C17.3483 22 19.4226 22 20.7112 20.6669C22 19.3339 22 17.1884 22 12.8975V11.2243C22 8.70704 22 7.44841 21.4289 6.40501C20.8578 5.36163 19.8144 4.71406 17.7276 3.41893L15.5276 2.05356C13.3217 0.684519 12.2187 0 11 0C9.78131 0 8.67833 0.684519 6.47243 2.05356L4.27243 3.41894C2.18564 4.71406 1.14224 5.36163 0.57112 6.40501ZM11.825 9.9C11.825 9.44438 11.4556 9.075 11 9.075C10.5444 9.075 10.175 9.44438 10.175 9.9V12.375H7.7C7.24437 12.375 6.875 12.7444 6.875 13.2C6.875 13.6556 7.24437 14.025 7.7 14.025H10.175V16.5C10.175 16.9556 10.5444 17.325 11 17.325C11.4556 17.325 11.825 16.9556 11.825 16.5V14.025H14.3C14.7556 14.025 15.125 13.6556 15.125 13.2C15.125 12.7444 14.7556 12.375 14.3 12.375H11.825V9.9Z" fill="#F71729"/>
</svg>
