<svg width="22" height="24" viewBox="0 0 22 24" fill="none" xmlns="http://www.w3.org/2000/svg">
<path d="M22 10.546V12.1322H18.8193C18.3801 12.1322 18.0241 12.4873 18.0241 12.9253C18.0241 13.3633 18.3801 13.7184 18.8193 13.7184H22V16.6337C22 17.3285 21.7063 17.9912 21.1911 18.4589C19.8274 19.697 18.1514 20.3988 16.4337 20.5638V21.6494C16.4337 22.0874 16.0777 22.4425 15.6386 22.4425C15.1994 22.4425 14.8434 22.0874 14.8434 21.6494V20.5638C13.1257 20.3988 11.4498 19.697 10.086 18.4589C9.5708 17.9912 9.27711 17.3285 9.27711 16.6337V9.75287C9.27711 7.75888 9.27711 6.76189 9.8982 6.14244C10.5193 5.52299 11.5189 5.52299 13.5181 5.52299H17.759C19.7582 5.52299 20.7578 5.52299 21.3789 6.14244C21.9116 6.67367 21.9874 7.48255 21.9982 8.95977H17.759C17.3199 8.95977 16.9639 9.31486 16.9639 9.75287C16.9639 10.1909 17.3199 10.546 17.759 10.546H22Z" fill="#F71729"/>
<path d="M13.8295 1.40091C13.1259 0.824634 12.2454 0.506631 11.3349 0.500096L11.2838 0.500001H7.09845C5.64849 0.499979 4.47974 0.499969 3.56055 0.623228C2.60622 0.751192 1.8027 1.02497 1.16452 1.66147C0.526347 2.29799 0.25185 3.09941 0.12355 4.05125C-3.1312e-05 4.96804 -2.06547e-05 6.1337 5.50133e-07 7.57988V22.7069C5.50133e-07 23.1449 0.356019 23.5 0.795181 23.5C1.23435 23.5 1.59036 23.1449 1.59036 22.7069V7.63793C1.59036 6.12003 1.59206 5.06137 1.69973 4.26261C1.80432 3.48667 1.99564 3.07576 2.28907 2.78309C2.5825 2.49043 2.99449 2.2996 3.77246 2.19529L7.15663 2.08621H11.2817L11.3235 2.08627L11.3255 2.08628C11.8704 2.09066 12.3973 2.28095 12.8186 2.62552L12.8202 2.62675L12.8529 2.65383L12.8572 2.65745C12.8951 2.68896 12.9215 2.71089 12.9452 2.72998C13.5105 3.18538 14.1675 3.46275 14.8434 3.56531V5.52299H16.4337V3.48576C17.084 3.31931 17.6993 2.98689 18.2113 2.49174C18.2333 2.47043 18.2573 2.44645 18.2927 2.41125L18.8514 1.85391C19.1619 1.54419 19.1619 1.04203 18.8514 0.732295C18.5409 0.422573 18.0375 0.422573 17.7269 0.732295L17.1728 1.28494C17.1308 1.32675 17.1162 1.34139 17.1041 1.35304C16.9031 1.54744 16.676 1.69996 16.4337 1.81014V1.2931C16.4337 0.855089 16.0777 0.500001 15.6386 0.500001C15.1994 0.500001 14.8434 0.855089 14.8434 1.2931V1.94828C14.5234 1.86556 14.2166 1.71512 13.9445 1.49599L13.8699 1.43437L13.8329 1.40365L13.8295 1.40091Z" fill="#F71729"/>
</svg>
