<svg width="22" height="24" viewBox="0 0 22 24" fill="none" xmlns="http://www.w3.org/2000/svg">
<path fill-rule="evenodd" clip-rule="evenodd" d="M1.43192 1.40588C-1.39872e-07 2.81178 0 5.07451 0 9.6V14.4C0 18.9254 -1.39872e-07 21.1883 1.43192 22.5941C2.86385 24 5.16848 24 9.77778 24H12.2222C16.8315 24 19.1362 24 20.568 22.5941C22 21.1883 22 18.9254 22 14.4V9.6C22 5.07451 22 2.81178 20.568 1.40588C19.1362 1.37329e-07 16.8315 0 12.2222 0H9.77778C5.16848 0 2.86385 1.37329e-07 1.43192 1.40588ZM11.9167 4.8C11.9167 4.30295 11.5062 3.9 11 3.9C10.4938 3.9 10.0833 4.30295 10.0833 4.8V6.3H8.55552C8.04925 6.3 7.63885 6.70295 7.63885 7.2C7.63885 7.69705 8.04925 8.1 8.55552 8.1H10.0833V9.6C10.0833 10.097 10.4938 10.5 11 10.5C11.5062 10.5 11.9167 10.097 11.9167 9.6V8.1H13.4444C13.9507 8.1 14.3611 7.69705 14.3611 7.2C14.3611 6.70295 13.9507 6.3 13.4444 6.3H11.9167V4.8ZM6.11111 13.5C5.60485 13.5 5.19444 13.903 5.19444 14.4C5.19444 14.897 5.60485 15.3 6.11111 15.3H15.8889C16.3951 15.3 16.8056 14.897 16.8056 14.4C16.8056 13.903 16.3951 13.5 15.8889 13.5H6.11111ZM7.33333 18.3C6.82708 18.3 6.41667 18.703 6.41667 19.2C6.41667 19.697 6.82708 20.1 7.33333 20.1H14.6667C15.1729 20.1 15.5833 19.697 15.5833 19.2C15.5833 18.703 15.1729 18.3 14.6667 18.3H7.33333Z" fill="#F71729"/>
</svg>
