<svg width="28" height="22" viewBox="0 0 28 22" fill="none" xmlns="http://www.w3.org/2000/svg">
<path d="M0.5 2.46875C0.5 1.38184 1.40703 0.5 2.525 0.5H16.025C17.143 0.5 18.05 1.38184 18.05 2.46875V4.4375H20.1889C20.9061 4.4375 21.5938 4.7123 22.1 5.20449L25.3611 8.375C25.8673 8.86719 26.15 9.53574 26.15 10.233V14.9375C26.8967 14.9375 27.5 15.524 27.5 16.25C27.5 16.976 26.8967 17.5625 26.15 17.5625H24.8C24.8 19.7363 22.9859 21.5 20.75 21.5C18.5141 21.5 16.7 19.7363 16.7 17.5625H11.3C11.3 19.7363 9.48594 21.5 7.25 21.5C5.01406 21.5 3.2 19.7363 3.2 17.5625H2.525C1.40703 17.5625 0.5 16.6807 0.5 15.5938V2.46875ZM18.05 11H23.45V10.233L20.1889 7.0625H18.05V11ZM7.25 19.5312C7.78706 19.5312 8.30213 19.3238 8.68189 18.9546C9.06165 18.5854 9.275 18.0846 9.275 17.5625C9.275 17.0404 9.06165 16.5396 8.68189 16.1704C8.30213 15.8012 7.78706 15.5938 7.25 15.5938C6.71294 15.5938 6.19787 15.8012 5.81811 16.1704C5.43835 16.5396 5.225 17.0404 5.225 17.5625C5.225 18.0846 5.43835 18.5854 5.81811 18.9546C6.19787 19.3238 6.71294 19.5312 7.25 19.5312ZM22.775 17.5625C22.775 17.0404 22.5617 16.5396 22.1819 16.1704C21.8021 15.8012 21.2871 15.5938 20.75 15.5938C20.2129 15.5938 19.6979 15.8012 19.3181 16.1704C18.9383 16.5396 18.725 17.0404 18.725 17.5625C18.725 18.0846 18.9383 18.5854 19.3181 18.9546C19.6979 19.3238 20.2129 19.5312 20.75 19.5312C21.2871 19.5312 21.8021 19.3238 22.1819 18.9546C22.5617 18.5854 22.775 18.0846 22.775 17.5625ZM7.925 3.78125V5.75H5.9C5.52875 5.75 5.225 6.04531 5.225 6.40625V7.71875C5.225 8.07969 5.52875 8.375 5.9 8.375H7.925V10.3438C7.925 10.7047 8.22875 11 8.6 11H9.95C10.3212 11 10.625 10.7047 10.625 10.3438V8.375H12.65C13.0212 8.375 13.325 8.07969 13.325 7.71875V6.40625C13.325 6.04531 13.0212 5.75 12.65 5.75H10.625V3.78125C10.625 3.42031 10.3212 3.125 9.95 3.125H8.6C8.22875 3.125 7.925 3.42031 7.925 3.78125Z" fill="#F71729"/>
</svg>
