<svg width="36" height="36" viewBox="0 0 36 36" fill="none" xmlns="http://www.w3.org/2000/svg">
<path d="M29.5638 0.451905C28.9614 -0.150635 27.9844 -0.150635 27.382 0.451905C26.7794 1.05442 26.7794 2.0313 27.382 2.63384L29.283 4.53486L25.8854 7.93242L24.1504 6.19742C22.6 4.64696 21.8248 3.87172 20.9434 3.55086C20.0084 3.2106 18.9836 3.2106 18.0488 3.55086C17.1672 3.87172 16.392 4.64696 14.8416 6.19742L14.6026 6.43652L29.5634 21.3976L29.8024 21.1584C31.3528 19.608 32.128 18.8328 32.4488 17.9512C32.789 17.0164 32.789 15.9916 32.4488 15.0566C32.128 14.175 31.3528 13.3998 29.8024 11.8494L28.0674 10.1144L31.4648 6.7168L33.3662 8.61826C33.9688 9.2208 34.9456 9.2208 35.5482 8.61826C36.1506 8.01574 36.1506 7.03886 35.5482 6.43634L29.5638 0.451905Z" fill="#F71729"/>
<path d="M6.03144 15.0078L12.4207 8.61838L27.3814 23.5794L25.0752 25.8858L19.1396 19.9502C18.5372 19.3476 17.5602 19.3476 16.9578 19.9502C16.3552 20.5526 16.3552 21.5296 16.9578 22.132L22.8932 28.0678L21.709 29.252L18.3232 25.866C17.7206 25.2636 16.7438 25.2636 16.1412 25.866C15.5388 26.4686 15.5388 27.4454 16.1412 28.048L19.3838 31.2906C15.6924 33.759 10.7911 33.6556 7.20104 30.9806L2.63376 35.5482C2.03126 36.1506 1.0544 36.1506 0.451875 35.5482C-0.150625 34.9456 -0.150625 33.9686 0.451875 33.3662L5.01924 28.7986C1.9334 24.6562 2.2708 18.7686 6.03144 15.0078Z" fill="#F71729"/>
</svg>
