<svg width="36" height="36" viewBox="0 0 36 36" fill="none" xmlns="http://www.w3.org/2000/svg">
<path d="M5.25 3.63792C5.25 1.62874 6.79512 0 8.70113 0H27.2989C29.2049 0 30.75 1.62874 30.75 3.63792V9.60005C30.75 9.76072 30.7473 9.92071 30.742 10.08C30.5737 10.0809 30.4028 10.1149 30.2373 10.1853L30.2305 10.1882L30.2001 10.201C30.1726 10.2125 30.1304 10.23 30.0752 10.2526C29.9646 10.2979 29.8014 10.3636 29.5963 10.4434C29.1852 10.6032 28.6089 10.8181 27.9497 11.0376C26.6008 11.487 25.02 11.9161 23.8076 11.9886C21.8328 12.1066 20.4203 11.3002 18.6688 10.2642L18.5907 10.2178C16.8909 9.21194 14.8559 8.00752 12.0384 8.17592C10.4676 8.26981 8.61565 8.79382 7.2278 9.25606C6.51846 9.49232 5.90032 9.72282 5.45894 9.89447C5.38606 9.92279 5.3179 9.94957 5.25484 9.97453C5.25162 9.85011 5.25 9.72529 5.25 9.60005V3.63792Z" fill="#F71729"/>
<path d="M5.63738 12.9009C6.92509 18.2766 11.2854 22.3633 16.6339 22.9639V33.12H10.7143C9.95983 33.12 9.34821 33.7647 9.34821 34.56C9.34821 35.3553 9.95983 36 10.7143 36H25.2857C26.0402 36 26.6518 35.3553 26.6518 34.56C26.6518 33.7647 26.0402 33.12 25.2857 33.12H19.3661V22.9639C24.5989 22.3764 28.8858 18.4519 30.2748 13.2481C29.8648 13.4039 29.349 13.5919 28.7728 13.7838C27.3851 14.2461 25.5331 14.7701 23.9623 14.864C21.1449 15.0323 19.1098 13.8279 17.41 12.8221L17.3319 12.7757C15.5804 11.7397 14.1679 10.9333 12.1931 11.0513C10.9808 11.1238 9.40001 11.5529 8.05096 12.0023C7.39183 12.2218 6.81546 12.4367 6.40448 12.5965C6.19929 12.6763 6.0362 12.742 5.92557 12.7873C5.87029 12.8099 5.82817 12.8274 5.80053 12.8389L5.77013 12.8517L5.76339 12.8546C5.72168 12.8723 5.67964 12.8878 5.63738 12.9009Z" fill="#F71729"/>
</svg>
