<svg width="36" height="36" viewBox="0 0 36 36" fill="none" xmlns="http://www.w3.org/2000/svg">
<path fill-rule="evenodd" clip-rule="evenodd" d="M30.75 10.7999V24.9896C30.75 26.3588 30.1688 27.6654 29.1477 28.5914C26.3543 31.1243 22.898 32.5352 19.3661 32.8241V34.65C19.3661 35.3956 18.7544 36 18 36C17.2456 36 16.6339 35.3956 16.6339 34.65V32.8241C13.102 32.5352 9.6456 31.1243 6.85224 28.5914C5.83124 27.6654 5.25 26.3588 5.25 24.9896V10.7999C5.25 7.40581 5.25 5.70875 6.31698 4.65435C7.38393 3.59992 9.10119 3.59992 12.5357 3.59992H23.4643C26.8988 3.59992 28.616 3.59992 29.683 4.65435C30.75 5.70875 30.75 7.40581 30.75 10.7999ZM18 19.7998C20.012 19.7998 21.6429 18.1209 21.6429 16.0498C21.6429 14.754 20.2167 13.0244 19.1491 11.9112C18.5171 11.2522 17.4829 11.2522 16.8509 11.9112C15.7833 13.0244 14.3571 14.754 14.3571 16.0498C14.3571 18.1209 15.9881 19.7998 18 19.7998ZM12.9911 25.2C12.9911 24.4544 13.6027 23.85 14.3571 23.85H21.6429C22.3973 23.85 23.0089 24.4544 23.0089 25.2C23.0089 25.9455 22.3973 26.55 21.6429 26.55H14.3571C13.6027 26.55 12.9911 25.9455 12.9911 25.2Z" fill="#F71729"/>
<path d="M21.1556 1.8C20.5256 0.723962 19.3484 0 18 0C16.6516 0 15.4744 0.723962 14.8445 1.8H21.1556Z" fill="#F71729"/>
</svg>
