<svg width="36" height="36" viewBox="0 0 36 36" fill="none" xmlns="http://www.w3.org/2000/svg">
<path d="M26.1 19.6367C21.6452 14.848 16.2 18.3804 16.2 23.3615C16.2 27.8733 19.4652 30.4761 22.2451 32.6922L22.3232 32.7545C22.5853 32.9632 22.8425 33.1688 23.0922 33.3723C24.12 34.2106 25.11 35 26.1 35C27.09 35 28.08 34.2106 29.1078 33.3723C32.0207 30.9966 36 28.3424 36 23.3615C36 21.7251 35.4123 20.245 34.4653 19.1652C32.5292 16.9576 29.0914 16.4212 26.1 19.6367Z" fill="#F71729"/>
<path d="M10.9913 28.382C5.93674 24.5672 0 20.0865 0 12.3191C0 3.74433 9.90029 -2.3367 18 5.90694C26.0996 -2.3367 36 3.74433 36 12.3191C36 13.7889 35.7874 15.141 35.4085 16.3933C34.1143 15.3748 32.4918 14.7321 30.6936 14.7222C29.0916 14.7134 27.5285 15.2063 26.0978 16.1507C23.5978 14.5059 20.7772 14.2846 18.3056 15.4535C15.3621 16.8456 13.5 19.9601 13.5 23.3613C13.5 27.426 15.5673 30.2774 17.7147 32.344C16.0096 32.2112 14.3013 30.9199 12.5311 29.553C12.0325 29.1679 11.5167 28.7786 10.9913 28.382Z" fill="#F71729"/>
</svg>
