<svg width="42" height="36" viewBox="0 0 42 36" fill="none" xmlns="http://www.w3.org/2000/svg">
<path d="M23.6879 14.3377C24.8026 12.8444 25.4615 10.9982 25.4615 8.99997C25.4615 4.02943 21.3846 0 16.3556 0C14.3338 0 12.4659 0.65122 10.955 1.75301L23.6879 14.3377Z" fill="#F71729"/>
<path d="M21.7565 16.247C20.2456 17.3488 18.3777 18 16.3559 18C11.3269 18 7.25 13.9706 7.25 9.00006C7.25 7.00181 7.90889 5.15567 9.02365 3.66228L21.7565 16.247Z" fill="#F71729"/>
<path d="M41.75 25.65C41.4697 23.8149 40.6149 22.0491 39.1852 20.6361C35.6292 17.1213 29.8637 17.1213 26.3076 20.6361C24.878 22.0491 24.0231 23.8149 23.743 25.65H41.75Z" fill="#F71729"/>
<path d="M41.75 28.35H23.743C24.0231 30.1851 24.878 31.9509 26.3076 33.3639C29.8637 36.8787 35.6292 36.8787 39.1852 33.3639C40.6149 31.9509 41.4697 30.1851 41.75 28.35Z" fill="#F71729"/>
</svg>
