<svg width="36" height="36" viewBox="0 0 36 36" fill="none" xmlns="http://www.w3.org/2000/svg">
<path d="M6.25399 34.8991H5.76471C3.99001 34.8991 3.10266 34.8991 2.55132 34.3719C2 33.8447 2 32.9962 2 31.2991V29.2975C2 28.3642 2 27.8977 2.25069 27.481C2.50138 27.0641 2.87957 26.8538 3.63595 26.4332C8.61566 23.6635 15.6875 22.1045 20.4077 24.7966C20.7247 24.9775 21.0101 25.1959 21.2537 25.4576C22.3042 26.586 22.2278 28.289 21.017 29.2995C20.7612 29.5128 20.4889 29.6748 20.2144 29.731C20.4399 29.7059 20.656 29.6773 20.8623 29.6458C22.5779 29.3841 24.0179 28.5075 25.3363 27.5551L28.7381 25.0979C29.9373 24.2316 31.7173 24.2314 32.9167 25.0974C33.9966 25.8772 34.3268 27.1609 33.6441 28.2073C32.848 29.4277 31.7263 30.9888 30.6492 31.9426C29.5706 32.8979 27.965 33.7507 26.6541 34.3557C25.2019 35.026 23.5978 35.4121 21.9659 35.6649C18.6566 36.177 15.2077 36.0988 11.9319 35.4535C10.0801 35.0887 8.15678 34.8991 6.25399 34.8991Z" fill="#F71729"/>
<path d="M15.8523 12.9668C17.8507 14.8777 21.0907 14.8777 23.0891 12.9668C25.0875 11.0558 25.0875 7.95755 23.0891 6.04661L21.7276 4.74469C21.1612 5.83429 20.2159 7.25333 18.6651 8.73632C17.1142 10.2194 15.6301 11.1234 14.4907 11.6648L15.8523 12.9668Z" fill="#F71729"/>
<path d="M18.2643 1.43322C16.2658 -0.477738 13.0258 -0.477738 11.0275 1.43322C9.02909 3.34415 9.02909 6.44242 11.0275 8.35336L13.072 10.3084C13.2142 10.251 13.3683 10.1848 13.533 10.1089C14.5169 9.65548 15.8814 8.85227 17.3337 7.46356C18.7859 6.07486 19.626 4.76993 20.1004 3.82887C20.1796 3.67152 20.2487 3.52426 20.3089 3.38838L18.2643 1.43322Z" fill="#F71729"/>
</svg>
