<svg width="32" height="36" viewBox="0 0 32 36" fill="none" xmlns="http://www.w3.org/2000/svg">
<path d="M5.80883 5.09285C5.80883 7.87886 9.00688 10.8137 11.645 12.7608C13.1259 13.8536 13.8662 14.4 15.0735 14.4C16.2809 14.4 17.0214 13.8536 18.502 12.7608C21.1403 10.8137 24.3382 7.87891 24.3382 5.09283C24.3382 0.0705225 19.2425 -1.80457 15.0735 2.07513C10.9046 -1.80457 5.80883 0.0705225 5.80883 5.09285Z" fill="#F71729"/>
<path d="M4.43752 34.8991H3.95588C2.20891 34.8991 1.33544 34.8991 0.792708 34.3719C0.25 33.8447 0.25 32.9962 0.25 31.2991V29.2975C0.25 28.3642 0.25 27.8977 0.496775 27.481C0.74355 27.0641 1.11582 26.8538 1.86039 26.4332C6.7623 23.6635 13.7237 22.1045 18.3701 24.7966C18.6821 24.9775 18.963 25.1959 19.2028 25.4576C20.2369 26.586 20.1617 28.289 18.9699 29.2995C18.7181 29.5128 18.45 29.6748 18.1798 29.731C18.4018 29.7059 18.6145 29.6773 18.8176 29.6458C20.5064 29.3841 21.9239 28.5075 23.2217 27.5551L26.5703 25.0979C27.7508 24.2316 29.503 24.2314 30.6836 25.0974C31.7467 25.8772 32.0717 27.1609 31.3996 28.2073C30.616 29.4277 29.5118 30.9888 28.4516 31.9426C27.3899 32.8979 25.8093 33.7507 24.5189 34.3557C23.0894 35.026 21.5103 35.4121 19.904 35.6649C16.6463 36.177 13.2514 36.0988 10.0267 35.4535C8.20381 35.0887 6.31058 34.8991 4.43752 34.8991Z" fill="#F71729"/>
</svg>
