<svg width="183" height="56" viewBox="0 0 183 56" fill="none" xmlns="http://www.w3.org/2000/svg">
<path d="M96.9181 29.6261C97.4016 29.6109 97.843 29.4364 98.2811 29.2557C98.9624 28.9746 99.6466 28.709 100.375 28.5693C100.63 28.5203 100.874 28.4088 101.121 28.321C101.616 28.1451 102.1 27.9303 102.606 27.7941C104.685 27.2336 106.73 26.5626 108.781 25.9074C109.18 25.7798 109.591 25.6716 110.004 25.6062C110.735 25.4907 111.433 25.2699 112.142 25.0692C112.948 24.841 113.786 24.7312 114.607 24.5538C115.274 24.4096 115.937 24.246 116.599 24.0823C116.956 23.9941 117.303 23.8343 117.663 23.7989C119.075 23.6604 120.446 23.2825 121.866 23.1624C123.221 23.0478 124.565 22.7691 125.908 22.5294C127.824 22.1876 129.751 21.9598 131.696 21.8871C132.009 21.8754 132.322 21.8264 132.635 21.7976C133.21 21.7449 133.785 21.6917 134.361 21.6444C134.727 21.6143 135.101 21.6298 135.46 21.5634C136.507 21.37 137.547 21.4221 138.595 21.5549C139.062 21.6139 139.539 21.6024 140.011 21.5986C140.759 21.5928 141.476 21.7466 142.17 22.0075C142.942 22.2977 143.579 22.7184 143.692 23.6446C143.728 23.9374 143.961 24.0886 144.252 24.0987C144.986 24.1243 145.715 24.182 146.452 24.0314C147.014 23.9166 147.6 23.8928 148.177 23.8829C150.017 23.8512 151.859 23.9486 153.696 23.7715C153.954 23.7466 154.222 23.7857 154.482 23.8186C154.854 23.866 155.212 23.8511 155.568 23.7178C156.12 23.5111 156.693 23.5079 157.277 23.5163C158.378 23.5319 159.484 23.5961 160.578 23.3925C160.63 23.3828 160.684 23.3656 160.734 23.3716C162.309 23.5587 163.875 23.1498 165.449 23.3011C165.71 23.3261 165.975 23.311 166.238 23.3096C167.815 23.3011 169.391 23.2806 170.968 23.2875C171.545 23.29 172.121 23.3551 172.698 23.3953C172.855 23.4062 173.013 23.4593 173.167 23.4443C174.795 23.2854 176.415 23.6282 178.042 23.5252C178.146 23.5186 178.254 23.5204 178.357 23.5369C179.601 23.7364 180.848 23.8957 182.112 23.8719C182.262 23.869 182.421 23.9372 182.563 24.0011C182.819 24.1161 182.975 24.318 182.997 24.6073C183.018 24.8895 182.942 25.1425 182.68 25.2736C182.449 25.3889 182.201 25.4972 181.949 25.5342C181.587 25.5874 181.215 25.5756 180.847 25.5871C179.692 25.6238 178.536 25.6318 177.383 25.7047C176.76 25.7441 176.134 25.822 175.556 26.1355C175.137 26.3632 174.868 26.1256 174.717 25.7119C174.627 25.4668 174.579 25.205 174.528 24.9476C174.47 24.6493 174.274 24.4863 174.002 24.4384C173.693 24.3841 173.376 24.3534 173.062 24.3522C170.276 24.3416 167.489 24.3397 164.702 24.3354C163.809 24.334 162.914 24.2948 162.023 24.3393C159.976 24.4415 157.929 24.5637 155.88 24.5731C153.037 24.5861 150.205 24.7749 147.374 25.0007C146.17 25.0967 144.967 25.2051 143.762 25.3009C143.283 25.339 142.836 25.4707 142.402 25.6748C141.688 26.0103 140.972 26.3439 140.244 26.6455C139.322 27.027 138.399 27.407 137.411 27.6014C137 27.6822 136.592 27.8042 136.202 27.9575C134.973 28.4409 133.686 28.703 132.406 28.9997C131.896 29.1181 131.387 29.2479 130.876 29.363C130.261 29.5012 129.653 29.6448 129.017 29.6962C128.235 29.7593 127.462 29.9387 126.687 30.0785C125.91 30.2186 125.134 30.3611 124.338 30.3267C124.182 30.3198 124.017 30.3219 123.869 30.3655C122.44 30.7888 120.951 30.706 119.493 30.8649C118.033 31.024 116.557 31.0638 115.082 30.9879C114.295 30.9473 113.505 30.9647 112.717 30.9242C112.523 30.9142 112.332 30.7859 112.145 30.6995C112.109 30.6827 112.073 30.6028 112.082 30.5614C112.101 30.4686 112.127 30.358 112.191 30.2988C112.262 30.2324 112.377 30.1853 112.476 30.1808C112.894 30.1613 113.315 30.1346 113.733 30.1591C114.419 30.1993 115.092 30.1863 115.771 30.0422C116.283 29.9337 116.812 29.875 117.336 29.8617C119.707 29.801 122.041 29.41 124.382 29.0852C124.486 29.0707 124.589 29.0344 124.693 29.0341C126.124 29.0308 127.513 28.6951 128.887 28.3797C130.933 27.9103 133.021 27.618 135.018 26.9251C135.858 26.6336 136.756 26.5237 137.598 26.2205C137.843 26.1323 138.078 26.0164 138.313 25.9039C138.349 25.8868 138.374 25.8203 138.379 25.7739C138.383 25.7409 138.345 25.672 138.327 25.6722C137.961 25.6761 137.595 25.6725 137.231 25.701C136.497 25.7584 135.766 25.882 135.032 25.8919C133.713 25.9096 132.415 26.1148 131.115 26.2919C130.436 26.3843 129.763 26.4774 129.078 26.4871C127.655 26.5074 126.249 26.6791 124.846 26.9187C123.811 27.0954 122.763 27.1935 121.721 27.3314C121.358 27.3795 120.992 27.4263 120.633 27.501C119.912 27.6511 119.195 27.812 118.451 27.8061C118.191 27.804 117.923 27.8419 117.673 27.9116C116.502 28.2374 115.307 28.3958 114.097 28.4602C113.887 28.4713 113.668 28.4575 113.469 28.5126C111.995 28.9215 110.476 29.0835 108.979 29.3654C108.825 29.3944 108.672 29.4422 108.527 29.5001C108.273 29.601 108.073 29.7595 108.019 30.0512C107.968 30.325 107.861 30.5644 107.547 30.5959C107.14 30.6368 106.82 30.4407 106.66 30.0821C106.423 29.5531 106.494 29.1594 106.883 28.7909C107.117 28.5687 107.381 28.4138 107.698 28.337C109.793 27.8297 111.923 27.5232 114.051 27.2002C114.961 27.3445 115.815 27.011 116.691 26.8769C117.42 26.7652 118.146 26.654 118.885 26.6417C119.146 26.6374 119.426 26.6511 119.664 26.5641C120.57 26.2326 121.529 26.2635 122.46 26.1141C123.289 25.9811 124.13 25.9199 124.96 25.7947C125.894 25.6541 126.836 25.6123 127.772 25.5028C129.963 25.2466 132.163 25.0965 134.359 24.8912C136.556 24.6856 138.752 24.5002 140.959 24.4641C141.39 24.457 141.789 24.3717 142.109 24.0414C142.295 23.8491 142.284 23.5021 142.062 23.3643C141.419 22.9645 140.701 22.8186 139.963 22.7595C139.544 22.726 139.122 22.7311 138.701 22.7253C136.283 22.6919 133.87 22.7186 131.455 22.9296C130.04 23.0532 128.627 23.1669 127.225 23.3964C126.344 23.5406 125.447 23.5143 124.565 23.6748C123.273 23.91 121.964 24.056 120.675 24.3048C119.026 24.6229 117.39 25.0078 115.748 25.3594C115.08 25.5024 114.412 25.6454 113.74 25.768C112.289 26.0328 110.904 26.5496 109.469 26.8828C107.677 27.2989 105.937 27.89 104.221 28.5578C103.489 28.8428 102.722 29.0533 101.955 29.2327C100.773 29.5096 99.6498 29.963 98.5128 30.3676C97.1774 30.8429 95.862 31.3807 94.56 31.9428C93.6456 32.3376 92.7857 32.8224 92.027 33.5103C91.2113 34.2497 90.2892 34.8709 89.4148 35.5453C89.2073 35.7053 89.0024 35.8691 88.8007 36.0364C88.5173 36.2715 88.2477 36.5245 87.9554 36.7474C85.3614 38.727 82.7679 40.7071 80.1644 42.6738C79.4942 43.1799 78.7429 43.5651 78.1069 44.1329C77.5214 44.6556 76.8577 45.0913 76.22 45.5533C76.009 45.7061 75.7683 45.817 75.5463 45.9553C75.234 46.15 74.8723 46.301 74.6271 46.5612C73.8564 47.3789 72.8384 47.8463 71.975 48.529C71.1087 49.214 70.1961 49.8339 69.2918 50.4675C67.2653 51.8874 65.1923 53.2304 63.071 54.5003C62.3943 54.9054 61.7087 55.2958 61.0199 55.6798C60.6486 55.8868 60.2485 56.0258 59.8151 55.996C59.6016 55.9813 59.4207 55.886 59.2867 55.6985C59.0235 55.33 58.9445 54.9386 59.0778 54.5017C59.283 53.8291 59.6963 53.2749 60.1295 52.7491C61.336 51.2845 62.6148 49.8837 64.0916 48.685C64.9495 47.9886 65.7394 47.2161 66.5886 46.5088C67.1937 46.0048 67.8225 45.5223 68.4007 44.9914C69.2582 44.204 70.2439 43.6 71.1578 42.8957C71.9493 42.2858 72.7855 41.7327 73.6187 41.1798C74.3176 40.7161 75.0478 40.3 75.7508 39.8423C76.4135 39.411 77.0825 39.0028 77.8098 38.6809C78.3841 38.4267 78.9291 38.0975 79.4651 37.7658C80.9004 36.8776 82.4316 36.1779 83.9352 35.4225C85.4829 34.645 87.0286 33.8666 88.6097 33.1567C89.4257 32.7903 90.2293 32.3987 91.083 32.1322C91.9561 31.8596 92.6953 31.3693 93.3869 30.7922C94.2339 30.0855 95.0772 29.3741 95.9196 28.662C96.6423 28.0511 97.394 27.4701 98.0751 26.8153C99.1009 25.8289 100.205 24.9376 101.298 24.0326C102.516 23.0238 103.571 21.8464 104.738 20.7855C105.166 20.3962 105.549 19.9559 105.986 19.5782C107.107 18.6097 108.08 17.5089 108.949 16.3133C109 16.2445 109.007 16.1443 109.066 15.9565C108.573 16.3061 108.129 16.5746 107.738 16.9062C105.05 19.1859 102.302 21.3881 99.5061 23.5332C98.84 24.0443 98.1252 24.4818 97.4734 25.0197C96.8312 25.5497 96.0587 25.9224 95.3369 26.3532C94.4753 26.8676 93.5486 27.2471 92.6119 27.5912C91.9111 27.8487 91.1644 27.8622 90.4286 27.7746C89.8118 27.7013 89.3548 27.344 89.0828 26.7916C88.9211 26.4632 88.8326 26.0989 88.7071 25.7522C88.6268 25.5308 88.4213 25.476 88.2017 25.6274C87.3787 26.1945 86.5489 26.7526 85.7434 27.344C85.4446 27.5635 85.1385 27.7478 84.8106 27.9197C83.6944 28.505 82.6094 29.1507 81.4889 29.7271C80.8848 30.038 80.2442 30.2908 79.5975 30.499C79.2601 30.6076 78.8678 30.6158 78.511 30.575C78.0208 30.519 77.6244 30.2541 77.4067 29.7832C77.2962 29.5441 77.191 29.3013 77.1042 29.0529C76.9786 28.6935 76.9658 28.3253 77.1182 27.97C77.575 26.9052 78.0744 25.8862 78.8439 24.9781C79.6915 23.9778 80.5468 22.9723 81.295 21.8856C81.5919 21.4544 81.9528 21.0675 82.2785 20.6558C82.3038 20.6237 82.2981 20.5451 82.2767 20.5038C82.2561 20.4638 82.186 20.4106 82.1558 20.4204C81.8077 20.5325 81.4318 20.6024 81.1228 20.7849C79.9007 21.5067 78.6275 22.1368 77.4277 22.8993C76.8524 23.2649 76.209 23.5221 75.6301 23.8829C74.248 24.7445 72.8864 25.6391 71.5153 26.5186C71.2495 26.6891 70.9824 26.8581 70.7092 27.0161C69.6618 27.622 68.6496 28.281 67.6497 28.9638C66.6952 29.6157 65.703 30.2131 64.7147 30.8134C63.9969 31.2493 63.2737 31.6701 62.577 32.1457C61.9322 32.5858 61.211 32.9229 60.5299 33.3199C59.35 34.0078 58.1147 34.6016 56.892 35.2134C56.6151 35.3519 56.2989 35.4301 55.9918 35.4801C55.867 35.5003 55.6821 35.4047 55.5866 35.3031C55.2731 34.9697 55.2739 34.6645 55.5044 34.3083C55.8823 33.7247 56.3775 33.2378 56.9082 32.8203C57.8216 32.1018 58.61 31.2551 59.4593 30.4728C61.1623 28.904 62.8035 27.2673 64.5166 25.7101C65.7225 24.6139 67.0099 23.6083 68.2521 22.5517C69.5747 21.4269 70.8899 20.2933 72.2014 19.1556C72.5584 18.8458 72.8989 18.5156 73.2318 18.1797C73.7138 17.6933 74.1816 17.1957 74.7486 16.7998C74.9051 16.6905 74.9833 16.4685 75.0981 16.2989C75.1476 16.2981 75.1995 16.3064 75.2446 16.2925C75.2791 16.2818 75.3051 16.243 75.3349 16.2168C75.2622 16.2509 75.1894 16.2851 75.1168 16.3193C74.646 16.3668 74.1747 16.4108 73.7045 16.4635C73.4966 16.4868 73.2814 16.4996 73.0855 16.5651C71.8336 16.9837 70.5307 17.1632 69.2442 17.4243C68.0606 17.6645 66.9012 18.022 65.6995 18.1799C64.3713 18.7002 62.91 18.6623 61.5755 19.1708C61.2905 19.2793 60.9524 19.2435 60.6402 19.2844C59.9847 19.3702 59.44 19.6568 59.0427 20.1986C57.8583 21.8133 56.6855 23.4335 55.8911 25.2936C55.6645 25.8243 55.3787 26.3316 55.0936 26.8346C54.442 27.9842 53.9338 29.1988 53.4462 30.423C52.8996 31.7952 52.3102 33.1472 51.6024 34.4445C51.4768 34.6746 51.3452 34.9034 51.1936 35.1165C51.0362 35.3375 50.7997 35.457 50.5451 35.5416C50.3614 35.6027 50.0619 35.5333 49.9851 35.3673C49.9227 35.2328 49.8737 35.0591 49.9044 34.9219C49.9491 34.7213 50.0682 34.5369 50.1593 34.3473C50.7299 33.1601 51.3075 31.9764 51.8712 30.786C52.6821 29.0738 53.4617 27.3465 54.2956 25.6458C54.8749 24.464 55.4976 23.3016 56.1505 22.1589C56.5137 21.5232 56.9829 20.949 57.3895 20.3371C57.4262 20.2819 57.3627 20.1488 57.3252 20.0607C57.3102 20.0254 57.2421 20.0053 57.1944 19.9933C57.1447 19.9807 57.0893 19.9781 57.0382 19.9849C56.4003 20.0685 55.822 20.2929 55.3072 20.69C54.1819 21.5581 53.0564 22.4263 51.9168 23.2753C50.8627 24.0605 49.7905 24.8213 48.7254 25.5917C48.4268 25.8076 48.1189 26.0108 47.8261 26.2343C44.5997 28.6965 42.0222 30.4823 38.5289 32.7562C36.5907 34.0178 34.6122 35.2091 32.5831 36.3133C31.1065 37.1168 29.5885 37.8388 28.0151 38.4424C27.1808 38.7625 26.3527 39.0941 25.5031 39.3743C24.7963 39.6074 24.0723 39.7339 23.3397 39.7874C22.9276 39.8175 22.4929 39.7792 22.0917 39.6783C20.3706 39.2456 19.7031 37.5179 20.3194 36.0774C20.9019 34.7159 21.6578 33.4573 22.6577 32.3511C23.611 31.2964 24.5086 30.1898 25.4835 29.1562C26.3876 28.1978 27.2294 27.1875 28.1033 26.2043C28.7312 25.4978 29.4332 24.8567 30.1133 24.198C31.2464 23.1005 32.3735 21.996 33.5322 20.9261C34.2268 20.2848 34.9883 19.717 35.6969 19.0901C36.088 18.7442 36.4332 18.3457 36.7935 17.9656C36.8172 17.9406 36.8095 17.8606 36.7874 17.8238C36.7633 17.7837 36.6976 17.7323 36.6633 17.7406C36.3583 17.815 36.0485 17.8805 35.7544 17.9878C33.5321 18.7981 31.2769 19.5086 29.0339 20.2567C27.4388 20.7888 25.8586 21.3693 24.2497 21.8604C22.1396 22.5046 20.0506 23.2242 17.8797 23.6559C17.3142 23.7684 16.7586 23.9403 16.2072 24.1127C14.1953 24.7418 12.1257 25.1218 10.0625 25.5151C8.723 25.7705 7.358 25.8914 6.00435 26.0723C5.95218 26.0793 5.89953 26.0913 5.84762 26.0889C4.31658 26.0165 2.81895 25.7601 1.40772 25.1456C0.542836 24.7689 -0.0728338 23.6247 0.00695161 22.6787C0.0206542 22.5166 0.120285 22.3676 0.286403 22.3479C0.429774 22.331 0.590086 22.3661 0.727112 22.419C0.814997 22.453 0.897685 22.5496 0.9421 22.6385C1.05948 22.8733 1.16316 23.116 1.25706 23.3615C1.3984 23.7305 1.67353 23.9625 2.01245 24.13C2.77433 24.5064 3.56813 24.7703 4.42599 24.803C4.89735 24.8208 5.36789 24.8061 5.83182 24.9535C6.01509 25.0117 6.24783 24.9611 6.44695 24.9134C7.3171 24.7045 8.20338 24.6072 9.08419 24.4686C10.2715 24.2816 11.4875 24.1993 12.6359 23.7891C12.8331 23.7187 13.0373 23.6371 13.2423 23.6241C14.2517 23.56 15.1964 23.233 16.1546 22.9502C16.8089 22.7572 17.4717 22.587 18.1391 22.4468C18.9132 22.2842 19.6568 22.033 20.4084 21.7936C22.0076 21.2844 23.625 20.8328 25.2348 20.3573C25.3857 20.3128 25.5362 20.2666 25.6867 20.2204C28.8018 19.2617 31.8813 18.1985 34.9322 17.0508C35.4724 16.8475 36.0232 16.6707 36.5748 16.5C37.3274 16.2671 38.0553 15.9819 38.7811 15.6693C40.0577 15.1193 41.1545 14.3363 42.1811 13.4165C43.4744 12.2577 44.7767 11.1073 46.1136 10C46.9633 9.29631 47.879 8.67234 48.7722 8.02236C49.7062 7.34264 50.6879 6.73282 51.6311 6.06455C52.3109 5.58282 53.1063 5.26759 53.8411 4.86131C54.9028 4.27426 56.0359 3.85064 57.1681 3.43875C58.554 2.93466 59.9981 2.63013 61.4685 2.5139C61.9288 2.47752 62.4081 2.5945 62.8696 2.6871C63.3637 2.78626 63.6567 3.56954 63.3629 3.98008C62.8994 4.62797 62.331 5.17459 61.6789 5.63051C59.9127 6.86518 58.0949 8.01619 56.2108 9.0629C55.1081 9.67542 54.0565 10.3729 52.9379 10.965C50.1442 12.4439 47.256 13.699 44.3098 14.8302C43.2798 15.2256 42.2497 15.6225 41.2353 16.056C40.8552 16.2185 40.4864 16.4471 40.1702 16.7144C38.7256 17.9354 37.2981 19.1768 35.8718 20.4194C35.317 20.9027 34.7756 21.4019 34.2389 21.9056C33.5485 22.5536 32.8829 23.2287 32.1813 23.8641C31.4001 24.5717 30.6205 25.2762 29.9459 26.0926C29.6788 26.4157 29.3549 26.6919 29.0547 26.9871C28.867 27.1716 28.6602 27.3385 28.4876 27.5359C26.6854 29.597 24.8756 31.6518 23.0962 33.7328C22.373 34.5785 21.8839 35.5773 21.4806 36.613C21.405 36.8072 21.3643 37.018 21.3303 37.225C21.2446 37.7464 21.6328 38.3014 22.1481 38.4118C22.8257 38.5569 23.5012 38.5849 24.1783 38.3996C25.4964 38.039 26.7939 37.6417 28.0634 37.1079C29.3264 36.5768 30.4939 35.8681 31.7459 35.3251C32.224 35.1178 32.6581 34.8062 33.107 34.5335C34.4555 33.7144 35.7985 32.8862 37.1497 32.0716C37.8692 31.6378 38.6235 31.2687 39.3318 30.8077C39.8156 30.4928 40.3027 30.1889 40.7542 29.8275C42.0276 28.8083 43.4546 28.0127 44.7708 27.0543C45.6624 26.405 46.6022 25.824 47.4342 25.0909C47.7889 24.7784 48.1759 24.5003 48.5632 24.228C49.5944 23.503 50.6391 22.7984 51.5937 21.9683C51.9481 21.6601 52.3522 21.4097 52.731 21.1293C52.834 21.0531 52.8469 20.948 52.7658 20.8474C52.738 20.8128 52.6762 20.7833 52.6331 20.7871C52.0059 20.8424 51.3715 20.8612 50.754 20.973C49.6696 21.1693 48.5795 21.3277 47.5025 21.5838C46.5851 21.802 45.6527 21.9767 44.7362 22.2049C44.1268 22.3567 43.5322 22.5807 42.947 22.8131C42.659 22.9274 42.3971 23.1195 42.1425 23.3029C41.9241 23.4602 41.7865 23.6854 41.7581 23.9652C41.7264 24.278 41.6991 24.5916 41.6548 24.9025C41.6301 25.0761 41.2638 25.1772 41.1267 25.0595C41.0876 25.0261 41.0356 25.0058 41.0026 24.968C40.9337 24.8892 40.8539 24.8114 40.813 24.718C40.2078 23.3336 40.1143 22.9271 41.629 22.0148C42.8156 21.3001 44.1293 20.9151 45.4833 20.6893C46.5168 20.517 47.5478 20.3313 48.5993 20.2531C49.3206 20.1995 50.0398 20.0532 50.7498 19.826C51.4905 19.5888 52.2703 19.4327 53.0654 19.3816C53.7443 19.3379 54.4159 19.1864 55.0923 19.0941C55.3625 19.0572 55.5914 18.944 55.8081 18.7897C56.1507 18.5457 56.4928 18.3009 56.8386 18.0617C57.4006 17.6733 57.978 17.306 58.5257 16.8984C59.0726 16.4913 59.6298 16.0999 60.1518 15.6544C61.0317 14.9035 61.9605 14.2093 62.8826 13.5097C63.3483 13.1564 63.765 12.7611 64.1208 12.2989C65.5059 10.5001 67.1466 8.93129 68.6674 7.2554C69.513 6.32357 70.452 5.4481 71.4637 4.70424C72.7274 3.77498 73.9902 2.81721 75.4896 2.24899C76.1526 1.99769 76.8167 1.96044 77.4988 1.97012C77.8036 1.97446 78.1524 2.46763 78.0701 2.80143C78.0088 3.05022 77.9298 3.33877 77.7589 3.50851C77.0502 4.21241 76.3326 4.91306 75.5652 5.55051C73.7036 7.09676 71.7912 8.57819 69.8075 9.96675C68.7744 10.6898 67.7803 11.4688 66.7628 12.2145C66.2976 12.5554 65.8184 12.877 65.3456 13.2075C65.13 13.3584 64.8902 13.484 64.7028 13.6645C63.4894 14.833 62.2714 15.9989 61.2824 17.3752C61.232 17.4455 61.2254 17.5867 61.2605 17.668C61.2924 17.7418 61.4127 17.8299 61.4874 17.8243C62.0621 17.7807 62.6478 17.7726 63.2067 17.6477C65.4623 17.1439 67.7084 16.5972 69.9604 16.0766C70.677 15.9109 71.4072 15.802 72.1203 15.6237C73.1363 15.3695 74.1763 15.2241 75.1793 14.9082C75.8284 14.7038 76.4923 14.5393 77.1581 14.3976C77.5849 14.3068 77.9632 14.1433 78.2739 13.8481C78.9592 13.197 79.7719 12.6848 80.3559 11.9238C81.8133 10.7086 83.0625 9.27735 84.4184 7.95699C85.4357 6.96631 86.441 5.9639 87.483 4.99834C88.5301 4.02811 89.7014 3.22206 90.8604 2.40295C91.3718 2.04152 91.9409 1.73529 92.5243 1.50939C93.5502 1.11199 94.539 0.624708 95.6282 0.371244C96.3509 0.203059 97.0731 0.10911 97.8016 0.0243061C98.7915 -0.0909107 99.6853 0.210373 100.473 0.781919C101.155 1.27632 101.448 2.02668 101.498 2.84065C101.543 3.57997 101.441 4.30846 101.084 4.98859C100.613 5.88607 100.073 6.71094 99.1933 7.26806C98.9294 7.4353 98.7159 7.68057 98.4613 7.86514C97.9933 8.20436 97.5407 8.58273 97.0291 8.8391C96.3715 9.16856 95.7378 9.54883 95.0745 9.85506C93.597 10.5371 92.0925 11.1643 90.5325 11.6416C90.3322 11.7029 90.0954 11.6999 89.9295 11.8091C89.1174 12.3436 88.1648 12.4781 87.2752 12.7899C86.3826 13.1026 85.4718 13.3508 84.5642 13.6143C83.4564 13.9357 82.3139 14.1377 81.238 14.5827C80.6101 14.8425 79.911 14.8756 79.2672 15.1291C78.8208 15.3049 78.4092 15.5052 78.0222 15.7867C76.7025 16.7467 75.4857 17.8286 74.271 18.9149C73.0172 20.0362 71.792 21.1918 70.4373 22.1947C70.3951 22.226 70.3551 22.2608 70.317 22.2971C68.3318 24.1831 66.1352 25.8253 64.1661 27.7353C62.9579 28.9072 61.7334 30.0661 60.5194 31.2339C60.2186 31.5232 59.9605 31.8572 59.683 32.1707C59.6832 32.1707 59.6694 32.1563 59.6694 32.1563C60.1873 32.0373 60.6558 31.8092 61.1151 31.5434C62.2533 30.8846 63.4014 30.2436 64.4394 29.4265C64.6043 29.2966 64.7765 29.1676 64.9636 29.0759C65.9595 28.5878 66.8565 27.9408 67.7675 27.3188C68.2485 26.9905 68.8166 26.8141 69.2762 26.4804C71.1108 25.1486 73.1373 24.1294 75.0135 22.8683C75.2317 22.7215 75.4466 22.5693 75.6691 22.4296C75.9794 22.2348 76.2828 22.0227 76.6116 21.8652C77.4176 21.4792 78.2059 21.0609 78.9562 20.5776C80.1103 19.8342 81.382 19.3213 82.5869 18.6785C82.7687 18.5815 82.9831 18.5425 83.1856 18.4891C83.8154 18.3231 84.4783 18.9649 84.3049 19.6025C84.2095 19.9531 84.0653 20.3056 83.8708 20.6109C83.2193 21.6337 82.5029 22.6117 81.6915 23.5143C80.7028 24.6141 79.8724 25.8359 78.9854 27.014C78.6291 27.4872 78.4265 28.0223 78.3755 28.617C78.3446 28.9773 78.6194 29.26 78.9471 29.1679C79.351 29.0544 79.7551 28.9378 80.1501 28.7971C81.7952 28.2113 83.2859 27.3087 84.7755 26.4245C85.8119 25.8092 86.754 25.0337 87.7365 24.3274C87.9499 24.1741 88.1447 23.9925 88.367 23.8545C89.3102 23.269 90.1712 22.5962 90.8985 21.742C91.4826 21.0558 92.2805 20.6138 92.9964 20.0804C93.3392 19.825 93.664 19.9073 93.9319 20.2893C94.1438 20.5914 94.1168 20.8992 93.857 21.1332C93.8179 21.1685 93.7762 21.2008 93.7367 21.2356C93.0264 21.8628 92.3267 22.5027 91.6031 23.1139C90.939 23.6748 90.5469 24.4177 90.1664 25.1705C90.0986 25.3045 90.0993 25.4769 90.084 25.6331C90.0467 26.0121 90.3438 26.3827 90.71 26.4083C90.9182 26.423 91.1326 26.4428 91.3364 26.4106C92.2781 26.2615 93.1741 25.9566 94.0056 25.494C95.2932 24.7776 96.54 23.995 97.7242 23.1123C98.6098 22.4524 99.5314 21.841 100.412 21.1749C101.293 20.5089 102.137 19.7946 103.007 19.1139C104.746 17.7531 106.528 16.4456 108.223 15.0317C109.764 13.7464 111.462 12.6917 113.057 11.4888C113.271 11.3276 113.497 11.1902 113.771 11.19C113.98 11.1898 114.187 11.2252 114.327 11.4199C114.481 11.6348 114.547 11.9997 114.423 12.1611C114.2 12.4523 113.981 12.7534 113.72 13.0088C112.475 14.2256 111.364 15.561 110.252 16.8962C110.016 17.1791 109.775 17.4577 109.524 17.7271C109.201 18.0739 108.86 18.4028 108.538 18.7507C106.031 21.4629 103.22 23.852 100.51 26.3482C100.201 26.633 99.8712 26.898 99.5322 27.1465C98.5939 27.8339 97.8115 28.6879 96.9948 29.5057C96.9614 29.5391 96.9585 29.6033 96.9412 29.653C96.8592 29.6786 96.6703 29.5716 96.7549 29.8039C96.8091 29.745 96.8635 29.6856 96.9181 29.6261ZM75.7547 3.62949C75.7547 3.62949 75.7756 3.65076 75.7758 3.65144C75.666 3.75649 75.5563 3.86155 75.4464 3.96654C74.4421 4.14827 73.5658 4.65655 72.7839 5.24849C71.7875 6.00291 70.8966 6.90114 69.9863 7.76517C69.5717 8.15871 69.2197 8.61863 68.8392 9.04868L68.7882 9.0969L68.8183 9.02903C69.0091 8.9575 69.2258 8.92242 69.3869 8.80855C70.6184 7.93871 71.8135 7.01446 73.0714 6.18593C73.9967 5.57646 74.7407 4.79866 75.4676 3.98767C75.6389 3.92928 75.7246 3.80181 75.7547 3.62949ZM88.4141 34.7336C88.2074 34.7556 87.9715 34.7199 87.7981 34.8081C85.1299 36.1651 82.3774 37.3573 79.8097 38.9113C79.45 39.129 79.0719 39.3158 78.7046 39.521C78.3376 39.7261 77.9658 39.924 77.6091 40.1462C75.7783 41.2868 73.976 42.4717 72.1676 43.6478C70.4366 44.7735 68.8918 46.1236 67.3403 47.4623C66.2282 48.4219 65.1873 49.4688 64.0862 50.4461C63.6546 50.8292 63.2184 51.2221 62.8651 51.674C62.5695 52.052 62.2391 52.3793 61.8952 52.7047C61.6286 52.957 61.3863 53.2367 61.1483 53.5171C61.0872 53.5891 61.0499 53.7137 61.0618 53.8064C61.0723 53.8889 61.1727 54.03 61.222 54.0252C61.4262 54.0055 61.6617 53.9929 61.8214 53.8833C62.7754 53.229 63.8349 52.7467 64.7604 52.0455C65.0943 51.7925 65.4731 51.5996 65.8306 51.3778C66.1428 51.1841 66.4829 51.0228 66.7605 50.7876C68.13 49.6269 69.7016 48.7542 71.1249 47.6703C72.0444 46.9702 73.0203 46.3444 73.9325 45.6356C75.7187 44.2476 77.5527 42.927 79.4037 41.6295C80.4793 40.8755 81.4692 40.0012 82.6063 39.334C83.7162 38.2763 85.0281 37.4816 86.2225 36.5344C86.9622 35.9478 87.6716 35.3226 88.394 34.7138C88.3941 34.714 88.4141 34.7336 88.4141 34.7336ZM81.374 13.3517C83.1444 12.7807 84.9613 12.2693 86.7538 11.667C89.0439 10.8976 91.3023 10.0648 93.4943 9.04868C93.875 8.87223 94.2788 8.74651 94.6608 8.5725C96.2466 7.85038 97.7427 6.99164 98.9908 5.74322C99.6801 5.05375 100.153 4.25495 100.36 3.3003C100.542 2.46486 100.049 1.68956 99.2179 1.51149C99.0134 1.46767 98.8031 1.44308 98.5941 1.42913C97.0444 1.32515 95.5598 1.59928 94.1502 2.24743C93.4828 2.55434 92.8513 2.94273 92.1769 3.23121C91.1465 3.67196 90.3192 4.4123 89.4051 5.02462C88.1553 6.30108 86.6701 7.31067 85.4652 8.65087C84.2374 10.0166 82.8616 11.2484 81.5516 12.5398C81.4019 12.6872 81.2471 12.832 81.1173 12.9961C81.0633 13.0644 81.0215 13.2222 81.0588 13.2647C81.113 13.3266 81.2436 13.321 81.374 13.3517ZM44.6662 13.4025C45.5398 13.0999 46.7203 12.6677 47.8439 12.0921C48.1715 11.9244 48.4922 11.7281 48.839 11.6165C50.4029 11.1135 51.7934 10.2649 53.2053 9.45712C53.3873 9.35294 53.5522 9.18455 53.746 9.14181C54.2801 9.02402 54.6723 8.6781 55.1104 8.39564C55.6842 8.02568 56.2805 7.69052 56.8719 7.34867C58.376 6.47929 59.7939 5.48501 61.1449 4.3932C61.1848 4.36096 61.233 4.31598 61.2403 4.27094C61.255 4.17956 61.2561 4.08148 61.2374 3.9916C61.2308 3.95976 61.1499 3.92312 61.103 3.92319C59.8778 3.92488 58.7223 4.29214 57.5738 4.6531C56.8269 4.88793 56.0975 5.20317 55.3832 5.5178C53.216 6.47211 51.1414 7.60389 49.329 9.16342C49.1308 9.33391 48.9083 9.47622 48.694 9.62733C47.1037 10.7482 45.6545 12.0488 44.1246 13.2465C44.0478 13.3066 43.9958 13.4054 43.9484 13.4947C43.906 13.575 43.9514 13.6124 44.0511 13.5849C44.1498 13.5577 44.2474 13.5271 44.6662 13.4025ZM58.7697 18.3776L58.791 18.2901L58.7056 18.3319L58.7697 18.3776Z" fill="#F71729"/>
<path d="M107.862 28.6124C107.367 28.6201 106.872 28.7396 106.546 29.1393C106.166 29.6042 106.259 30.3069 106.587 30.7732C107.195 31.6389 108.456 31.6625 109.391 31.527C109.97 31.443 110.547 31.3251 111.128 31.2575C111.764 31.1836 112.379 31.1386 113.02 31.1311C113.665 31.1236 114.295 31.0832 114.937 31.0281C115.266 30.9999 115.582 30.9626 115.905 30.896C116.207 30.8338 116.498 30.838 116.763 30.667C116.849 30.6114 116.851 30.4883 116.763 30.4331C116.551 30.3003 116.377 30.2883 116.129 30.2646C115.855 30.2385 115.589 30.1906 115.314 30.1833C114.805 30.1695 114.296 30.1194 113.787 30.1212C112.727 30.1248 111.689 30.4038 110.622 30.3499C110.216 30.3294 109.66 30.2708 109.354 30.2276C108.958 30.1719 108.548 30.1427 108.258 30.0913C108.174 30.0764 108.09 30.0598 108.008 30.0372C107.988 30.0319 107.791 29.9616 107.878 30.0002C107.751 29.9442 107.717 29.9511 107.639 29.8318C107.517 29.6457 107.702 29.2896 107.94 29.1945C108.23 29.0786 108.22 28.6067 107.862 28.6124Z" fill="#F71729"/>
</svg>
