<svg width="38" height="38" viewBox="0 0 38 38" fill="none" xmlns="http://www.w3.org/2000/svg">
<path d="M14.351 0C12.7769 0 11.5008 1.27609 11.5008 2.85024V4.7504C11.5008 6.32455 12.7769 7.60065 14.351 7.60065H23.8519C25.4259 7.60065 26.7021 6.32455 26.7021 4.7504V2.85024C26.7021 1.27609 25.4259 0 23.8519 0H14.351Z" fill="#F71729"/>
<path fill-rule="evenodd" clip-rule="evenodd" d="M8.65056 3.86991C6.26033 4.004 4.7514 4.38489 3.66963 5.46665C2 7.13628 2 9.82351 2 15.198V26.599C2 31.9734 2 34.6607 3.66963 36.3303C5.33927 38 8.02649 38 13.401 38H24.8019C30.1764 38 32.8636 38 34.5332 36.3303C36.2029 34.6607 36.2029 31.9734 36.2029 26.599V15.198C36.2029 9.82351 36.2029 7.13628 34.5332 5.46665C33.4515 4.38489 31.9426 4.004 29.5523 3.86991V4.7504C29.5523 7.89869 27.0002 10.4509 23.8519 10.4509H14.351C11.2028 10.4509 8.65056 7.89869 8.65056 4.7504V3.86991ZM9.60065 14.7262C8.81358 14.7262 8.17552 15.3643 8.17552 16.1514C8.17552 16.9384 8.81358 17.5765 9.60065 17.5765H10.5507C11.3378 17.5765 11.9758 16.9384 11.9758 16.1514C11.9758 15.3643 11.3378 14.7262 10.5507 14.7262H9.60065ZM16.2512 14.7262C15.4642 14.7262 14.8261 15.3643 14.8261 16.1514C14.8261 16.9384 15.4642 17.5765 16.2512 17.5765H28.6023C29.3893 17.5765 30.0274 16.9384 30.0274 16.1514C30.0274 15.3643 29.3893 14.7262 28.6023 14.7262H16.2512ZM9.60065 21.3768C8.81358 21.3768 8.17552 22.0149 8.17552 22.8019C8.17552 23.589 8.81358 24.2271 9.60065 24.2271H10.5507C11.3378 24.2271 11.9758 23.589 11.9758 22.8019C11.9758 22.0149 11.3378 21.3768 10.5507 21.3768H9.60065ZM16.2512 21.3768C15.4642 21.3768 14.8261 22.0149 14.8261 22.8019C14.8261 23.589 15.4642 24.2271 16.2512 24.2271H28.6023C29.3893 24.2271 30.0274 23.589 30.0274 22.8019C30.0274 22.0149 29.3893 21.3768 28.6023 21.3768H16.2512ZM9.60065 28.0274C8.81358 28.0274 8.17552 28.6655 8.17552 29.4525C8.17552 30.2395 8.81358 30.8776 9.60065 30.8776H10.5507C11.3378 30.8776 11.9758 30.2395 11.9758 29.4525C11.9758 28.6655 11.3378 28.0274 10.5507 28.0274H9.60065ZM16.2512 28.0274C15.4642 28.0274 14.8261 28.6655 14.8261 29.4525C14.8261 30.2395 15.4642 30.8776 16.2512 30.8776H28.6023C29.3893 30.8776 30.0274 30.2395 30.0274 29.4525C30.0274 28.6655 29.3893 28.0274 28.6023 28.0274H16.2512Z" fill="#F71729"/>
</svg>
