<svg width="38" height="38" viewBox="0 0 38 38" fill="none" xmlns="http://www.w3.org/2000/svg">
<path d="M27.25 7.6C27.25 11.7974 23.7801 15.2 19.5 15.2C15.2198 15.2 11.75 11.7974 11.75 7.6C11.75 3.40263 15.2198 0 19.5 0C23.7801 0 27.25 3.40263 27.25 7.6Z" fill="#F71729"/>
<path d="M26.6265 21.8553C25.7099 21.8662 24.8556 21.899 24.1111 21.9971C22.8654 22.1614 21.5022 22.554 20.3756 23.6586C19.2491 24.7633 18.8488 26.1003 18.6814 27.3218C18.5309 28.4194 18.5311 29.7607 18.5312 31.1866V31.5134C18.5311 32.9394 18.5309 34.2806 18.6814 35.3782C18.7988 36.2353 19.0309 37.1492 19.5482 38C19.5322 38 19.5161 38 19.5 38C4 38 4 34.1721 4 29.45C4 24.7279 10.9396 20.9 19.5 20.9C22.0695 20.9 24.4929 21.2449 26.6265 21.8553Z" fill="#F71729"/>
<path fill-rule="evenodd" clip-rule="evenodd" d="M22.4307 37.0261C23.4236 38 25.0221 38 28.2188 38C31.4154 38 33.0139 38 34.0068 37.0261C35 36.0523 35 34.4848 35 31.35C35 28.2152 35 26.6477 34.0068 25.6739C33.0139 24.7 31.4154 24.7 28.2188 24.7C25.0221 24.7 23.4236 24.7 22.4307 25.6739C21.4375 26.6477 21.4375 28.2152 21.4375 31.35C21.4375 34.4848 21.4375 36.0523 22.4307 37.0261ZM26.3328 34.1553C24.9725 33.2002 23.375 32.0783 23.375 30.1336C23.375 27.9868 26.0391 26.4641 28.2188 28.5281C30.3984 26.4641 33.0625 27.9868 33.0625 30.1336C33.0625 32.0783 31.465 33.2002 30.1047 34.1553C29.9635 34.2545 29.8246 34.352 29.6905 34.4485C29.1875 34.8097 28.7031 35.15 28.2188 35.15C27.7344 35.15 27.25 34.8097 26.747 34.4485C26.613 34.352 26.474 34.2545 26.3328 34.1553Z" fill="#F71729"/>
</svg>
