<svg width="38" height="38" viewBox="0 0 38 38" fill="none" xmlns="http://www.w3.org/2000/svg">
<path d="M20.2558 2.25581C20.2558 1.56225 19.6935 1 19 1C18.3065 1 17.7442 1.56225 17.7442 2.25581V7.27907C17.7442 7.97263 18.3065 8.53488 19 8.53488C19.6935 8.53488 20.2558 7.97263 20.2558 7.27907V2.25581Z" fill="#F71729"/>
<path fill-rule="evenodd" clip-rule="evenodd" d="M2.25581 34.4884H5.60465V25.6977C5.60465 18.2996 11.6019 12.3023 19 12.3023C26.3981 12.3023 32.3953 18.2996 32.3953 25.6977V34.4884H35.7442C36.4377 34.4884 37 35.0506 37 35.7442C37 36.4377 36.4377 37 35.7442 37H2.25581C1.56225 37 1 36.4377 1 35.7442C1 35.0506 1.56225 34.4884 2.25581 34.4884ZM20.2558 30.3849C21.0066 29.9507 21.5116 29.1389 21.5116 28.2093C21.5116 26.8222 20.3871 25.6977 19 25.6977C17.6129 25.6977 16.4884 26.8222 16.4884 28.2093C16.4884 29.1389 16.9934 29.9507 17.7442 30.3849V34.4884H20.2558V30.3849ZM21.6712 17.6916C21.9314 17.0486 22.6636 16.7385 23.3064 16.9987C25.3007 17.806 26.8914 19.3967 27.6986 21.3907C27.9588 22.0337 27.6485 22.7658 27.0057 23.026C26.3628 23.2863 25.6307 22.9761 25.3705 22.3333C24.8184 20.9695 23.7277 19.8789 22.3641 19.3268C21.7213 19.0666 21.411 18.3344 21.6712 17.6916Z" fill="#F71729"/>
<path d="M34.9577 8.06549C35.4481 8.55591 35.4481 9.35106 34.9577 9.84148L32.4461 12.3531C31.9556 12.8435 31.1606 12.8435 30.6702 12.3531C30.1798 11.8627 30.1798 11.0675 30.6702 10.5771L33.1818 8.06549C33.6723 7.57507 34.4673 7.57507 34.9577 8.06549Z" fill="#F71729"/>
<path d="M4.81823 8.06549C4.32781 7.57507 3.53266 7.57507 3.04224 8.06549C2.55182 8.55591 2.55182 9.35106 3.04224 9.84148L5.55387 12.3531C6.04429 12.8435 6.83943 12.8435 7.32985 12.3531C7.82028 11.8627 7.82028 11.0675 7.32985 10.5771L4.81823 8.06549Z" fill="#F71729"/>
</svg>
