<svg width="38" height="38" viewBox="0 0 38 38" fill="none" xmlns="http://www.w3.org/2000/svg">
<path fill-rule="evenodd" clip-rule="evenodd" d="M5.94532 12.0202L5.19186 15.0294H1.32558C0.593489 15.0294 0 15.622 0 16.3529C0 17.0839 0.593489 17.6765 1.32558 17.6765H36.6744C37.4065 17.6765 38 17.0839 38 16.3529C38 15.622 37.4065 15.0294 36.6744 15.0294H32.8081L32.0547 12.0202C31.0902 8.16843 30.608 6.24253 29.1697 5.12126C27.7313 4 25.7431 4 21.7666 4H16.2334C12.2569 4 10.2686 4 8.8303 5.12126C7.39199 6.24253 6.90976 8.16843 5.94532 12.0202ZM9.27907 34C12.1479 34 14.5606 32.0502 15.2604 29.4052L17.2216 28.4262C18.3411 27.8673 19.6589 27.8673 20.7784 28.4262L22.7396 29.4052C23.4393 32.0502 25.852 34 28.7209 34C32.1374 34 34.907 31.2347 34.907 27.8235C34.907 24.4124 32.1374 21.6471 28.7209 21.6471C25.7868 21.6471 23.3299 23.6867 22.6945 26.4232L21.9642 26.0586C20.0981 25.1271 17.9019 25.1271 16.0358 26.0586L15.3055 26.4232C14.6702 23.6867 12.2132 21.6471 9.27907 21.6471C5.86261 21.6471 3.09302 24.4124 3.09302 27.8235C3.09302 31.2347 5.86261 34 9.27907 34Z" fill="#F71729"/>
</svg>
