<svg width="38" height="38" viewBox="0 0 38 38" fill="none" xmlns="http://www.w3.org/2000/svg">
<path d="M11.6019 31.6808C6.26656 27.5335 0 22.6624 0 14.2182C0 4.89632 10.4503 -1.71457 19 7.24736L22.8 11.0786C23.3565 11.64 24.2588 11.6398 24.8153 11.0782C25.3717 10.5167 25.3715 9.6064 24.815 9.04505L21.1441 5.34288C29.2001 -0.607305 38 5.66402 38 14.2182C38 22.6624 31.7334 27.5335 26.398 31.6808C25.8436 32.1119 25.2991 32.5352 24.7728 32.9538C22.8 34.5228 20.9 36 19 36C17.1 36 15.2 34.5228 13.2273 32.9538C12.7009 32.5352 12.1565 32.1119 11.6019 31.6808Z" fill="#F71729"/>
</svg>
