<svg width="24" height="24" viewBox="0 0 24 24" fill="none" xmlns="http://www.w3.org/2000/svg">
<path d="M9.17195 12.8184C7.05651 14.9272 3.6267 14.9272 1.51125 12.8184C0.684002 11.9938 0.180252 10.9687 0 9.90001H10.6832C10.503 10.9687 9.99918 11.9938 9.17195 12.8184Z" fill="#F71729"/>
<path d="M10.6832 8.10001H0C0.180252 7.03132 0.684002 6.00629 1.51125 5.18163C3.6267 3.07279 7.05651 3.07279 9.17195 5.18163C9.99918 6.00629 10.503 7.03132 10.6832 8.10001Z" fill="#F71729"/>
<path d="M15.2817 6.14559C16.6919 7.55148 18.9784 7.55148 20.3887 6.14559C21.0939 5.44264 21.4465 4.52133 21.4465 3.6C21.4465 2.67868 21.0939 1.75736 20.3887 1.05441C18.9784 -0.351471 16.6919 -0.351471 15.2817 1.05441C14.5765 1.75736 14.2239 2.67868 14.2239 3.6C14.2239 4.52133 14.5765 5.44264 15.2817 6.14559Z" fill="#F71729"/>
<path d="M22.6821 12.1138C24.4393 13.8655 24.4393 16.7056 22.6821 18.4572L21.4454 19.6901L21.4461 19.6865L20.5651 19.5173C20.5602 19.5162 20.5476 19.5133 20.5304 19.509C20.4959 19.5004 20.4375 19.4845 20.3584 19.4593C20.2 19.4089 19.9586 19.3209 19.6572 19.1761C19.0556 18.8871 18.2115 18.3705 17.3088 17.4707C16.4062 16.5709 15.8879 15.7294 15.5979 15.1294C15.4526 14.829 15.3642 14.5883 15.3137 14.4304C15.2884 14.3514 15.2725 14.2933 15.2638 14.2588C15.2594 14.2416 15.2569 14.2303 15.2558 14.2253L15.0857 13.3459L15.0821 13.3467L16.3188 12.1138C18.076 10.3621 20.9249 10.3621 22.6821 12.1138Z" fill="#F71729"/>
<path d="M13.5588 14.8651C13.5691 14.9001 13.5806 14.9377 13.5936 14.9781C13.6678 15.2097 13.7867 15.5291 13.9714 15.9109C14.341 16.6757 14.9729 17.6877 16.0321 18.7434C17.0912 19.7993 18.1063 20.4292 18.8733 20.7977C19.2564 20.9817 19.5768 21.1001 19.8091 21.1741C19.8495 21.187 19.8871 21.1984 19.922 21.2087L18.4398 22.6863C16.6827 24.4379 13.8338 24.4379 12.0765 22.6863C10.3194 20.9345 10.3194 18.0945 12.0765 16.3428L13.5588 14.8651Z" fill="#F71729"/>
</svg>
