<svg width="20" height="24" viewBox="0 0 20 24" fill="none" xmlns="http://www.w3.org/2000/svg">
<path d="M3.52941 3.39523C3.52941 5.25257 5.55992 7.20913 7.23494 8.50719C8.17518 9.23573 8.64518 9.6 9.41177 9.6C10.1784 9.6 10.6485 9.23573 11.5886 8.5072C13.2637 7.20916 15.2941 5.2526 15.2941 3.39522C15.2941 0.0470149 12.0587 -1.20305 9.41177 1.38342C6.7648 -1.20305 3.52941 0.0470149 3.52941 3.39523Z" fill="#F71729"/>
<path d="M2.65874 23.2661H2.35294C1.24375 23.2661 0.689165 23.2661 0.344577 22.9146C6.73182e-08 22.5631 0 21.9974 0 20.8661V19.5317C0 18.9095 1.51466e-07 18.5984 0.156683 18.3206C0.313365 18.0427 0.54973 17.9026 1.02247 17.6221C4.13479 15.7757 8.55471 14.7364 11.5048 16.5311C11.7029 16.6517 11.8813 16.7972 12.0335 16.9717C12.6901 17.724 12.6424 18.8593 11.8857 19.533C11.7258 19.6752 11.5555 19.7832 11.384 19.8206C11.5249 19.804 11.66 19.7849 11.7889 19.7639C12.8612 19.5894 13.7612 19.005 14.5852 18.3701L16.7113 16.732C17.4608 16.1544 18.5733 16.1543 19.3229 16.7316C19.9979 17.2514 20.2042 18.1073 19.7775 18.8048C19.28 19.6184 18.5789 20.6592 17.9058 21.2951C17.2317 21.9319 16.2281 22.5005 15.4088 22.9038C14.5012 23.3507 13.4986 23.6081 12.4787 23.7766C10.4104 24.118 8.25483 24.0659 6.20745 23.6357C5.05004 23.3924 3.84799 23.2661 2.65874 23.2661Z" fill="#F71729"/>
</svg>
