<svg width="24" height="22" viewBox="0 0 24 22" fill="none" xmlns="http://www.w3.org/2000/svg">
<path d="M18.9535 0H16.279C15.9837 0 15.7442 0.249363 15.7442 0.556962V0.622583L19.4883 3.74157V0.556962C19.4883 0.249363 19.2489 0 18.9535 0Z" fill="#F71729"/>
<path fill-rule="evenodd" clip-rule="evenodd" d="M10.6628 7.24051C10.6628 6.4715 11.2615 5.8481 12 5.8481C12.7385 5.8481 13.3372 6.4715 13.3372 7.24051C13.3372 8.00956 12.7385 8.63291 12 8.63291C11.2615 8.63291 10.6628 8.00956 10.6628 7.24051Z" fill="#F71729"/>
<path fill-rule="evenodd" clip-rule="evenodd" d="M21.3604 8.86739L22.1964 9.56382C22.5425 9.85199 23.0473 9.79362 23.3242 9.43327C23.6009 9.07302 23.5449 8.54725 23.1988 8.25897L14.506 1.0177C13.041 -0.202779 10.9591 -0.202779 9.49397 1.0177L0.801148 8.25897C0.455132 8.54725 0.399034 9.07302 0.675846 9.43327C0.952648 9.79362 1.45755 9.85199 1.80356 9.56382L2.63956 8.86739V20.3291H1.30235C0.859236 20.3291 0.50003 20.7032 0.50003 21.1646C0.50003 21.6259 0.859236 22 1.30235 22H22.6976C23.1407 22 23.5 21.6259 23.5 21.1646C23.5 20.7032 23.1407 20.3291 22.6976 20.3291H21.3604V8.86739ZM9.05815 7.24051C9.05815 5.5487 10.3752 4.17722 12 4.17722C13.6247 4.17722 14.9418 5.5487 14.9418 7.24051C14.9418 8.93233 13.6247 10.3038 12 10.3038C10.3752 10.3038 9.05815 8.93233 9.05815 7.24051ZM12.0528 11.4177C12.7641 11.4177 13.3769 11.4176 13.8677 11.4863C14.3936 11.56 14.8978 11.7261 15.3066 12.1518C15.7156 12.5777 15.875 13.1025 15.9457 13.6502C16.0075 14.1292 16.0114 14.7201 16.0116 15.4022C16.0116 15.4478 16.0116 15.4937 16.0116 15.5399V20.3291H14.4069V15.5949C14.4069 14.7837 14.4052 14.2592 14.3554 13.8728C14.3086 13.5105 14.2331 13.3969 14.172 13.3333C14.1109 13.2697 14.0018 13.1911 13.6538 13.1423C13.2827 13.0904 12.7791 13.0886 12 13.0886C11.2209 13.0886 10.7172 13.0904 10.3462 13.1423C9.99823 13.1911 9.88912 13.2697 9.82803 13.3333C9.76695 13.3969 9.69141 13.5105 9.64463 13.8728C9.59474 14.2592 9.59304 14.7837 9.59304 15.5949V20.3291H7.98839V15.5399C7.98835 14.7994 7.98831 14.1612 8.05429 13.6502C8.125 13.1025 8.28446 12.5777 8.69338 12.1518C9.10228 11.7261 9.60643 11.56 10.1324 11.4863C10.6231 11.4176 11.236 11.4177 11.9472 11.4177H12.0528Z" fill="#F71729"/>
<path fill-rule="evenodd" clip-rule="evenodd" d="M10.6628 7.24051C10.6628 6.4715 11.2615 5.8481 12 5.8481C12.7385 5.8481 13.3372 6.4715 13.3372 7.24051C13.3372 8.00956 12.7385 8.63291 12 8.63291C11.2615 8.63291 10.6628 8.00956 10.6628 7.24051Z" fill="#F71729"/>
</svg>
