<svg width="26" height="22" viewBox="0 0 26 22" fill="none" xmlns="http://www.w3.org/2000/svg">
<path fill-rule="evenodd" clip-rule="evenodd" d="M4.06785 6.11415L3.55233 8.22059H0.906977C0.406072 8.22059 0 8.6354 0 9.14706C0 9.65872 0.406072 10.0735 0.906977 10.0735H25.093C25.5939 10.0735 26 9.65872 26 9.14706C26 8.6354 25.5939 8.22059 25.093 8.22059H22.4477L21.9321 6.11415C21.2722 3.4179 20.9423 2.06977 19.9582 1.28488C18.9741 0.5 17.6137 0.5 14.8929 0.5H11.1071C8.38627 0.5 7.0259 0.5 6.04178 1.28488C5.05768 2.06977 4.72773 3.4179 4.06785 6.11415ZM6.34884 21.5C8.31173 21.5 9.96255 20.1351 10.4413 18.2837L11.7832 17.5983C12.5492 17.2071 13.4508 17.2071 14.2168 17.5983L15.5586 18.2837C16.0374 20.1351 17.6882 21.5 19.6512 21.5C21.9887 21.5 23.8837 19.5643 23.8837 17.1765C23.8837 14.7886 21.9887 12.8529 19.6512 12.8529C17.6436 12.8529 15.9625 14.2807 15.5278 16.1963L15.0281 15.9411C13.7513 15.2889 12.2487 15.2889 10.9719 15.9411L10.4722 16.1963C10.0375 14.2807 8.35639 12.8529 6.34884 12.8529C4.01126 12.8529 2.11628 14.7886 2.11628 17.1765C2.11628 19.5643 4.01126 21.5 6.34884 21.5Z" fill="#F71729"/>
</svg>
