<svg width="24" height="24" viewBox="0 0 24 24" fill="none" xmlns="http://www.w3.org/2000/svg">
<path fill-rule="evenodd" clip-rule="evenodd" d="M12 23.5C18.3512 23.5 23.5 18.3512 23.5 12C23.5 5.64872 18.3512 0.5 12 0.5C5.64872 0.5 0.5 5.64872 0.5 12C0.5 18.3512 5.64872 23.5 12 23.5ZM6.88255 9.24005C6.50147 8.95425 6.42425 8.41362 6.71005 8.03255C6.99586 7.65147 7.53647 7.57425 7.91755 7.86005L10.2175 9.58505C10.4347 9.74796 10.5625 10.0036 10.5625 10.275C10.5625 10.5465 10.4347 10.8022 10.2175 10.965L7.91755 12.69C7.53647 12.9759 6.99586 12.8986 6.71005 12.5175C6.42425 12.1365 6.50147 11.5959 6.88255 11.31L8.26255 10.275L6.88255 9.24005ZM17.29 8.03255C17.5759 8.41362 17.4986 8.95425 17.1175 9.24005L15.7375 10.275L17.1175 11.31C17.4986 11.5959 17.5759 12.1365 17.29 12.5175C17.0042 12.8986 16.4636 12.9759 16.0825 12.69L13.7825 10.965C13.5654 10.8022 13.4375 10.5465 13.4375 10.275C13.4375 10.0036 13.5654 9.74796 13.7825 9.58505L16.0825 7.86005C16.4636 7.57425 17.0042 7.65147 17.29 8.03255ZM16.06 17.21C15.7231 17.5468 15.177 17.5468 14.8402 17.21L14.2995 16.6693C13.6546 17.278 12.6448 17.2779 12 16.6689C11.3553 17.2779 10.3455 17.278 9.70057 16.6693L9.15993 17.21C8.8231 17.5468 8.277 17.5468 7.94017 17.21C7.60334 16.8731 7.60334 16.327 7.94017 15.9902L8.51517 15.4152C9.15806 14.7723 10.1934 14.761 10.85 15.3813C11.495 14.7721 12.5051 14.7721 13.15 15.3813C13.8068 14.761 14.842 14.7723 15.485 15.4152L16.06 15.9902C16.3968 16.327 16.3968 16.8731 16.06 17.21Z" fill="#F71729"/>
</svg>
